<svg width="82" height="36" viewBox="0 0 82 36" fill="none" xmlns="http://www.w3.org/2000/svg">
<path d="M63.6911 8.55216L63.6151 7.55505L63.6911 8.55216ZM81.2588 7.92283C81.6185 7.50377 81.5704 6.87243 81.1513 6.5127L74.3223 0.650607C73.9032 0.290874 73.2719 0.338978 72.9122 0.758041C72.5525 1.17711 72.6005 1.80844 73.0196 2.16817L79.0899 7.37892L73.8791 13.4492C73.5194 13.8682 73.5675 14.4996 73.9866 14.8593C74.4056 15.219 75.037 15.1709 75.3967 14.7519L81.2588 7.92283ZM63.6911 8.55216L63.7671 9.54927L80.576 8.26859L80.5 7.27148L80.424 6.27438L63.6151 7.55505L63.6911 8.55216ZM1 34.7715L1.65652 35.5258C19.0252 20.4086 40.8076 11.2986 63.7671 9.54927L63.6911 8.55216L63.6151 7.55505C40.2264 9.33705 18.0368 18.6174 0.343476 34.0172L1 34.7715Z" fill="url(#paint0_linear_5377_3399)"/>
<defs>
<linearGradient id="paint0_linear_5377_3399" x1="45.0474" y1="-17.9568" x2="4.04744" y2="37.0432" gradientUnits="userSpaceOnUse">
<stop stop-color="#0F3446"/>
<stop offset="1" stop-color="#D3B8F0"/>
</linearGradient>
</defs>
</svg>
