<svg width="47" height="57" viewBox="0 0 47 57" fill="none" xmlns="http://www.w3.org/2000/svg">
<path d="M2.91395 54.3342L3.57047 55.0885L2.91395 54.3342ZM41.507 2.1092L40.5932 1.70307L40.5932 1.70307L41.507 2.1092ZM42.9333 0.641025C42.7351 0.125547 42.1565 -0.131606 41.641 0.0666525L33.2409 3.29746C32.7254 3.49572 32.4683 4.07431 32.6665 4.58979C32.8648 5.10526 33.4434 5.36241 33.9589 5.16415L41.4256 2.29232L44.2975 9.75909C44.4957 10.2746 45.0743 10.5317 45.5898 10.3335C46.1053 10.1352 46.3624 9.5566 46.1642 9.04113L42.9333 0.641025ZM1 56L1.65652 56.7543L3.57047 55.0885L2.91395 54.3342L2.25742 53.5799L0.343476 55.2457L1 56ZM41.507 2.1092L42.4208 2.51534L42.9138 1.40614L42 1L41.0862 0.593864L40.5932 1.70307L41.507 2.1092ZM2.91395 54.3342L3.57047 55.0885C20.204 40.6111 33.4649 22.6663 42.4208 2.51534L41.507 2.1092L40.5932 1.70307C31.7559 21.5871 18.6707 39.2942 2.25742 53.5799L2.91395 54.3342Z" fill="url(#paint0_linear_5377_3395)"/>
<defs>
<linearGradient id="paint0_linear_5377_3395" x1="45.0474" y1="3.27173" x2="4.04744" y2="58.2717" gradientUnits="userSpaceOnUse">
<stop stop-color="#0F3446"/>
<stop offset="1" stop-color="#D3B8F0"/>
</linearGradient>
</defs>
</svg>
