<svg width="272" height="72" viewBox="0 0 272 72" fill="none" xmlns="http://www.w3.org/2000/svg">
<path d="M42.2728 7.53201L43.0481 8.16354L42.2728 7.53201ZM12.6608 67.4892L13.6336 67.721L13.6336 67.721L12.6608 67.4892ZM11.5934 68.918C11.8827 69.3885 12.4986 69.5352 12.9691 69.2459L20.635 64.5306C21.1054 64.2413 21.2522 63.6253 20.9628 63.1549C20.6735 62.6845 20.0576 62.5377 19.5871 62.8271L12.773 67.0184L8.58164 60.2043C8.29229 59.7339 7.67637 59.5871 7.20596 59.8764C6.73553 60.1658 6.58875 60.7817 6.87811 61.2521L11.5934 68.918ZM43.7119 5.76514L42.9366 5.1336L41.4974 6.90047L42.2728 7.53201L43.0481 8.16354L44.4873 6.39667L43.7119 5.76514ZM12.6608 67.4892L11.688 67.2574L11.4724 68.1623L12.4451 68.3941L13.4179 68.6259L13.6336 67.721L12.6608 67.4892ZM42.2728 7.53201L41.4974 6.90047C27.1458 24.52 16.9562 45.1516 11.688 67.2574L12.6608 67.4892L13.6336 67.721C18.8319 45.9081 28.8866 25.5497 43.0481 8.16354L42.2728 7.53201Z" fill="url(#paint0_linear_5277_3340)"/>
<path d="M251.583 69.0823L252.583 69.093L252.583 69.093L251.583 69.0823ZM250.852 71.2857C251.238 71.6805 251.871 71.6873 252.266 71.301L258.698 65.006C259.093 64.6197 259.1 63.9866 258.713 63.5919C258.327 63.1972 257.694 63.1903 257.299 63.5766L251.582 69.1722L245.986 63.4547C245.6 63.06 244.967 63.0531 244.572 63.4394C244.177 63.8257 244.17 64.4588 244.557 64.8536L250.852 71.2857ZM251.583 69.0823L250.583 69.0715L250.566 70.5755L251.566 70.5863L252.566 70.5971L252.583 69.093L251.583 69.0823ZM223.713 6.36653L223.051 7.11591C240.79 22.7897 250.838 45.4014 250.583 69.0715L251.583 69.0823L252.583 69.093C252.844 44.8421 242.549 21.6756 224.375 5.61715L223.713 6.36653Z" fill="url(#paint1_linear_5277_3340)"/>
<defs>
<linearGradient id="paint0_linear_5277_3340" x1="8.86635" y1="66.6074" x2="40.1331" y2="3.97846" gradientUnits="userSpaceOnUse">
<stop stop-color="#0F3446"/>
<stop offset="1" stop-color="#D6F7E6"/>
</linearGradient>
<linearGradient id="paint1_linear_5277_3340" x1="247.993" y1="72.1367" x2="220.139" y2="7.91693" gradientUnits="userSpaceOnUse">
<stop stop-color="#0F3446"/>
<stop offset="1" stop-color="#D6F7E6"/>
</linearGradient>
</defs>
</svg>
