<svg width="24" height="21" viewBox="0 0 24 21" fill="none" xmlns="http://www.w3.org/2000/svg">
<path d="M1.7276 0.818082C1.62713 0.416238 1.21993 0.171926 0.818082 0.272397C0.416238 0.372868 0.171926 0.780075 0.272397 1.18192L1.7276 0.818082ZM5.76564 15.7854L6.21646 15.186L5.76564 15.7854ZM3.02129 9.25175L3.75064 9.07694L3.02129 9.25175ZM5.58574 15.6435L6.06354 15.0654L5.58574 15.6435ZM22.0192 9.74254L22.7485 9.91734L22.0192 9.74254ZM19.8897 15.3575L19.3643 14.8223L19.8897 15.3575ZM19.0404 16.0273L19.4384 16.663L19.0404 16.0273ZM21.9421 5.75597L22.4568 5.21052L21.9421 5.75597ZM22.3038 6.21465L22.9542 5.8412L22.3038 6.21465ZM14.0001 9.25C13.5859 9.25 13.2501 9.58579 13.2501 10C13.2501 10.4142 13.5859 10.75 14.0001 10.75V9.25ZM17.0001 12.25C16.5859 12.25 16.2501 12.5858 16.2501 13C16.2501 13.4142 16.5859 13.75 17.0001 13.75V12.25ZM2.05273 5.21053V5.96053H18.445V5.21053V4.46053H2.05273V5.21053ZM13.0837 16.7895V16.0395H12.5791V16.7895V17.5395H13.0837V16.7895ZM3.02129 9.25175L3.75064 9.07694L2.78208 5.03572L2.05273 5.21053L1.32339 5.38533L2.29195 9.42655L3.02129 9.25175ZM2.05273 5.21053L2.78034 5.02861L1.7276 0.818082L1 1L0.272397 1.18192L1.32513 5.39244L2.05273 5.21053ZM12.5791 16.7895V16.0395C10.7352 16.0395 9.41662 16.0383 8.38995 15.919C7.38226 15.8019 6.738 15.5783 6.21646 15.186L5.76564 15.7854L5.31482 16.3848C6.12828 16.9966 7.06459 17.275 8.21679 17.4089C9.35001 17.5406 10.7706 17.5395 12.5791 17.5395V16.7895ZM3.02129 9.25175L2.29195 9.42655C2.71343 11.1852 3.04339 12.5669 3.43559 13.6383C3.83435 14.7275 4.32336 15.5731 5.10793 16.2216L5.58574 15.6435L6.06354 15.0654C5.56052 14.6496 5.19292 14.0752 4.84416 13.1226C4.48885 12.152 4.18038 10.87 3.75064 9.07694L3.02129 9.25175ZM5.76564 15.7854L6.21646 15.186C6.16457 15.147 6.11359 15.1067 6.06354 15.0654L5.58574 15.6435L5.10793 16.2216C5.17564 16.2775 5.24462 16.332 5.31482 16.3848L5.76564 15.7854ZM13.0837 16.7895V17.5395C14.6483 17.5395 15.8774 17.5404 16.8659 17.4404C17.8695 17.3389 18.6953 17.1283 19.4384 16.663L19.0404 16.0273L18.6424 15.3917C18.1682 15.6885 17.5955 15.859 16.715 15.948C15.8194 16.0386 14.6788 16.0395 13.0837 16.0395V16.7895ZM19.8897 15.3575L19.3643 14.8223C19.145 15.0376 18.9029 15.2285 18.6424 15.3917L19.0404 16.0273L19.4384 16.663C19.7909 16.4423 20.1184 16.184 20.4151 15.8927L19.8897 15.3575ZM18.445 5.21053V5.96053C19.4375 5.96053 20.1131 5.96185 20.6157 6.02318C21.106 6.08301 21.3071 6.18794 21.4273 6.30143L21.9421 5.75597L22.4568 5.21052C21.9991 4.77856 21.4246 4.61076 20.7974 4.53423C20.1826 4.4592 19.3986 4.46053 18.445 4.46053V5.21053ZM22.0192 9.74254L22.7485 9.91734C22.9708 8.99004 23.1548 8.22794 23.2251 7.61254C23.2969 6.98475 23.2676 6.38698 22.9542 5.8412L22.3038 6.21465L21.6534 6.5881C21.7357 6.7315 21.7909 6.95145 21.7348 7.44219C21.6773 7.94532 21.5212 8.60257 21.2898 9.56774L22.0192 9.74254ZM21.9421 5.75597L21.4273 6.30143C21.5163 6.38541 21.5925 6.482 21.6534 6.5881L22.3038 6.21465L22.9542 5.8412C22.8202 5.60776 22.6526 5.39527 22.4568 5.21052L21.9421 5.75597ZM21.0001 13V12.25H17.0001V13V13.75H21.0001V13ZM21.9575 10V9.25L14.0001 9.25V10V10.75L21.9575 10.75V10ZM22.0192 9.74254L21.2898 9.56774C21.269 9.65479 21.2484 9.74053 21.2281 9.82505L21.9575 10L22.6868 10.1749C22.7071 10.0903 22.7277 10.0044 22.7485 9.91734L22.0192 9.74254ZM21.9575 10L21.2281 9.82505C20.9305 11.0658 20.699 12.0133 20.4566 12.7717L21.1711 13L21.8855 13.2283C22.148 12.4067 22.3925 11.4015 22.6868 10.1749L21.9575 10ZM21.1711 13L20.4566 12.7717C20.1309 13.791 19.8104 14.3844 19.3643 14.8223L19.8897 15.3575L20.4151 15.8927C21.1139 15.2067 21.5286 14.3453 21.8855 13.2283L21.1711 13ZM21.0001 13V13.75H21.1711V13V12.25H21.0001V13Z" fill="#0F3446"/>
<path d="M10.4734 19.9472C10.4734 20.5285 10.0021 20.9998 9.4208 20.9998C8.83944 20.9998 8.36816 20.5285 8.36816 19.9472C8.36816 19.3658 8.83944 18.8945 9.4208 18.8945C10.0021 18.8945 10.4734 19.3658 10.4734 19.9472Z" fill="#0F3446"/>
<path d="M16.7892 19.9472C16.7892 20.5285 16.3179 20.9998 15.7366 20.9998C15.1552 20.9998 14.684 20.5285 14.684 19.9472C14.684 19.3658 15.1552 18.8945 15.7366 18.8945C16.3179 18.8945 16.7892 19.3658 16.7892 19.9472Z" fill="#0F3446"/>
</svg>
