<svg width="21" height="20" viewBox="0 0 21 20" fill="none" xmlns="http://www.w3.org/2000/svg">
<path d="M3.56107 18.0451L4.00191 17.4383L3.56107 18.0451ZM2.45491 16.9389L3.06168 16.4981L2.45491 16.9389ZM18.5451 16.9389L17.9383 16.4981L18.5451 16.9389ZM17.4389 18.0451L16.9981 17.4383L17.4389 18.0451ZM17.4389 1.95491L16.9981 2.56168L17.4389 1.95491ZM18.5451 3.06107L17.9383 3.50191L18.5451 3.06107ZM3.56107 1.95491L4.00191 2.56168L3.56107 1.95491ZM2.45491 3.06107L3.06168 3.50191L2.45491 3.06107ZM8.90901 7.59099C8.61612 7.2981 8.14124 7.2981 7.84835 7.59099C7.55546 7.88388 7.55546 8.35876 7.84835 8.65165L8.90901 7.59099ZM12.091 12.8943C12.3839 13.1872 12.8588 13.1872 13.1517 12.8943C13.4445 12.6014 13.4445 12.1265 13.1517 11.8336L12.091 12.8943ZM7.84835 11.8336C7.55546 12.1265 7.55546 12.6014 7.84835 12.8943C8.14124 13.1872 8.61612 13.1872 8.90901 12.8943L7.84835 11.8336ZM13.1516 8.65165C13.4445 8.35876 13.4445 7.88388 13.1516 7.59099C12.8588 7.2981 12.3839 7.2981 12.091 7.59099L13.1516 8.65165ZM10.5 19V18.25C8.60843 18.25 7.24999 18.249 6.19804 18.135C5.16013 18.0225 4.50992 17.8074 4.00191 17.4383L3.56107 18.0451L3.12023 18.6518C3.92656 19.2377 4.87094 19.5 6.03648 19.6263C7.18798 19.751 8.64184 19.75 10.5 19.75V19ZM1.5 10H0.75C0.75 11.8582 0.748971 13.312 0.873728 14.4635C1.00001 15.6291 1.26232 16.5734 1.84815 17.3798L2.45491 16.9389L3.06168 16.4981C2.69259 15.9901 2.47745 15.3399 2.365 14.302C2.25103 13.25 2.25 11.8916 2.25 10H1.5ZM3.56107 18.0451L4.00191 17.4383C3.64111 17.1762 3.32382 16.8589 3.06168 16.4981L2.45491 16.9389L1.84815 17.3798C2.20281 17.8679 2.63209 18.2972 3.12023 18.6518L3.56107 18.0451ZM19.5 10H18.75C18.75 11.8916 18.749 13.25 18.635 14.302C18.5225 15.3399 18.3074 15.9901 17.9383 16.4981L18.5451 16.9389L19.1518 17.3798C19.7377 16.5734 20 15.6291 20.1263 14.4635C20.251 13.312 20.25 11.8582 20.25 10H19.5ZM10.5 19V19.75C12.3582 19.75 13.812 19.751 14.9635 19.6263C16.1291 19.5 17.0734 19.2377 17.8798 18.6518L17.4389 18.0451L16.9981 17.4383C16.4901 17.8074 15.8399 18.0225 14.802 18.135C13.75 18.249 12.3916 18.25 10.5 18.25V19ZM18.5451 16.9389L17.9383 16.4981C17.6762 16.8589 17.3589 17.1762 16.9981 17.4383L17.4389 18.0451L17.8798 18.6518C18.3679 18.2972 18.7972 17.8679 19.1518 17.3798L18.5451 16.9389ZM10.5 1V1.75C12.3916 1.75 13.75 1.75103 14.802 1.865C15.8399 1.97745 16.4901 2.19259 16.9981 2.56168L17.4389 1.95491L17.8798 1.34815C17.0734 0.762324 16.1291 0.500006 14.9635 0.373728C13.812 0.248971 12.3582 0.25 10.5 0.25V1ZM19.5 10H20.25C20.25 8.14184 20.251 6.68798 20.1263 5.53648C20 4.37094 19.7377 3.42656 19.1518 2.62023L18.5451 3.06107L17.9383 3.50191C18.3074 4.00992 18.5225 4.66013 18.635 5.69804C18.749 6.74999 18.75 8.10843 18.75 10H19.5ZM17.4389 1.95491L16.9981 2.56168C17.3589 2.82382 17.6762 3.14111 17.9383 3.50191L18.5451 3.06107L19.1518 2.62023C18.7972 2.13209 18.3679 1.70281 17.8798 1.34815L17.4389 1.95491ZM10.5 1V0.25C8.64184 0.25 7.18798 0.248971 6.03648 0.373728C4.87094 0.500006 3.92656 0.762324 3.12023 1.34815L3.56107 1.95491L4.00191 2.56168C4.50992 2.19259 5.16013 1.97745 6.19804 1.865C7.24999 1.75103 8.60843 1.75 10.5 1.75V1ZM1.5 10H2.25C2.25 8.10843 2.25103 6.74999 2.365 5.69804C2.47745 4.66013 2.69259 4.00992 3.06168 3.50191L2.45491 3.06107L1.84815 2.62023C1.26232 3.42656 1.00001 4.37094 0.873728 5.53648C0.748971 6.68798 0.75 8.14184 0.75 10H1.5ZM3.56107 1.95491L3.12023 1.34815C2.63209 1.70281 2.20281 2.13209 1.84815 2.62023L2.45491 3.06107L3.06168 3.50191C3.32382 3.14111 3.64111 2.82382 4.00191 2.56168L3.56107 1.95491ZM8.37868 8.12132L7.84835 8.65165L12.091 12.8943L12.6213 12.364L13.1517 11.8336L8.90901 7.59099L8.37868 8.12132ZM8.37868 12.364L8.90901 12.8943L13.1516 8.65165L12.6213 8.12132L12.091 7.59099L7.84835 11.8336L8.37868 12.364Z" fill="#0F3446"/>
</svg>
