<svg width="25" height="25" viewBox="0 0 25 25" fill="none" xmlns="http://www.w3.org/2000/svg">
<path d="M5.39433 20.5451L5.83516 19.9383L5.39433 20.5451ZM4.28817 19.4389L4.89493 18.9981L4.28817 19.4389ZM20.3783 19.4389L19.7716 18.9981L20.3783 19.4389ZM19.2722 20.5451L18.8313 19.9383L19.2722 20.5451ZM19.2722 4.45491L18.8313 5.06168L19.2722 4.45491ZM20.3783 5.56107L19.7716 6.00191L20.3783 5.56107ZM5.39433 4.45491L5.83516 5.06168L5.39433 4.45491ZM4.28817 5.56107L4.89493 6.00191L4.28817 5.56107ZM9.33325 11.75C8.91904 11.75 8.58325 12.0858 8.58325 12.5C8.58325 12.9142 8.91904 13.25 9.33325 13.25V11.75ZM15.3333 13.25C15.7475 13.25 16.0833 12.9142 16.0833 12.5C16.0833 12.0858 15.7475 11.75 15.3333 11.75V13.25ZM12.3333 21.5V20.75C10.4417 20.75 9.08324 20.749 8.0313 20.635C6.99339 20.5225 6.34317 20.3074 5.83516 19.9383L5.39433 20.5451L4.95349 21.1518C5.75981 21.7377 6.70419 22 7.86973 22.1263C9.02123 22.251 10.4751 22.25 12.3333 22.25V21.5ZM3.33325 12.5H2.58325C2.58325 14.3582 2.58222 15.812 2.70698 16.9635C2.83326 18.1291 3.09558 19.0734 3.6814 19.8798L4.28817 19.4389L4.89493 18.9981C4.52584 18.4901 4.3107 17.8399 4.19825 16.802C4.08428 15.75 4.08325 14.3916 4.08325 12.5H3.33325ZM5.39433 20.5451L5.83516 19.9383C5.47436 19.6762 5.15707 19.3589 4.89493 18.9981L4.28817 19.4389L3.6814 19.8798C4.03606 20.3679 4.46534 20.7972 4.95349 21.1518L5.39433 20.5451ZM21.3333 12.5H20.5833C20.5833 14.3916 20.5822 15.75 20.4683 16.802C20.3558 17.8399 20.1407 18.4901 19.7716 18.9981L20.3783 19.4389L20.9851 19.8798C21.5709 19.0734 21.8332 18.1291 21.9595 16.9635C22.0843 15.812 22.0833 14.3582 22.0833 12.5H21.3333ZM12.3333 21.5V22.25C14.1914 22.25 15.6453 22.251 16.7968 22.1263C17.9623 22 18.9067 21.7377 19.713 21.1518L19.2722 20.5451L18.8313 19.9383C18.3233 20.3074 17.6731 20.5225 16.6352 20.635C15.5833 20.749 14.2248 20.75 12.3333 20.75V21.5ZM20.3783 19.4389L19.7716 18.9981C19.5094 19.3589 19.1921 19.6762 18.8313 19.9383L19.2722 20.5451L19.713 21.1518C20.2012 20.7972 20.6304 20.3679 20.9851 19.8798L20.3783 19.4389ZM12.3333 3.5V4.25C14.2248 4.25 15.5833 4.25103 16.6352 4.365C17.6731 4.47745 18.3233 4.69259 18.8313 5.06168L19.2722 4.45491L19.713 3.84815C18.9067 3.26232 17.9623 3.00001 16.7968 2.87373C15.6453 2.74897 14.1914 2.75 12.3333 2.75V3.5ZM21.3333 12.5H22.0833C22.0833 10.6418 22.0843 9.18798 21.9595 8.03648C21.8332 6.87094 21.5709 5.92656 20.9851 5.12023L20.3783 5.56107L19.7716 6.00191C20.1407 6.50992 20.3558 7.16013 20.4683 8.19804C20.5822 9.24999 20.5833 10.6084 20.5833 12.5H21.3333ZM19.2722 4.45491L18.8313 5.06168C19.1921 5.32382 19.5094 5.64111 19.7716 6.00191L20.3783 5.56107L20.9851 5.12023C20.6304 4.63209 20.2012 4.20281 19.713 3.84815L19.2722 4.45491ZM12.3333 3.5V2.75C10.4751 2.75 9.02123 2.74897 7.86973 2.87373C6.70419 3.00001 5.75981 3.26232 4.95349 3.84815L5.39433 4.45491L5.83516 5.06168C6.34317 4.69259 6.99339 4.47745 8.0313 4.365C9.08324 4.25103 10.4417 4.25 12.3333 4.25V3.5ZM3.33325 12.5H4.08325C4.08325 10.6084 4.08428 9.24999 4.19825 8.19804C4.3107 7.16013 4.52584 6.50992 4.89493 6.00191L4.28817 5.56107L3.6814 5.12023C3.09558 5.92656 2.83326 6.87094 2.70698 8.03648C2.58222 9.18798 2.58325 10.6418 2.58325 12.5H3.33325ZM5.39433 4.45491L4.95349 3.84815C4.46534 4.20281 4.03606 4.63209 3.6814 5.12023L4.28817 5.56107L4.89493 6.00191C5.15707 5.64111 5.47436 5.32382 5.83516 5.06168L5.39433 4.45491ZM9.33325 12.5V13.25H15.3333V12.5V11.75H9.33325V12.5Z" fill="#0F3446"/>
</svg>
