<svg width="20" height="20" viewBox="0 0 20 20" fill="none" xmlns="http://www.w3.org/2000/svg">
<path d="M2.78136 1.67261C2.85201 1.60197 2.88733 1.56665 2.91845 1.53805C3.6836 0.834973 4.85972 0.834973 5.62487 1.53805C5.65599 1.56665 5.69131 1.60197 5.76196 1.67261L7.22015 3.13081C8.02221 3.93286 8.25159 5.1441 7.79836 6.18388C7.34512 7.22367 7.5745 8.43491 8.37656 9.23696L10.7734 11.6338C11.5754 12.4358 12.7867 12.6652 13.8264 12.212C14.8662 11.7587 16.0775 11.9881 16.8795 12.7902L18.3377 14.2484C18.4084 14.319 18.4437 14.3543 18.4723 14.3855C19.1754 15.1506 19.1754 16.3267 18.4723 17.0919C18.4437 17.123 18.4084 17.1583 18.3377 17.229L17.4514 18.1153C16.7296 18.8371 15.689 19.1401 14.6926 18.9187C7.90299 17.4099 2.60046 12.1073 1.09166 5.31774C0.870222 4.32128 1.17322 3.28075 1.89502 2.55896L2.78136 1.67261Z" stroke="#0F3446" stroke-width="1.5"/>
</svg>
