<svg width="82" height="101" viewBox="0 0 82 101" fill="none" xmlns="http://www.w3.org/2000/svg">
<path d="M0.816734 80.1251C12.5142 89.4721 26.2273 96.467 40.9886 100.597C41.4714 100.731 41.9318 100.285 41.7987 99.8419C36.899 83.566 30.0633 67.824 21.4413 52.9509C21.1936 53.2513 20.9449 53.5518 20.6972 53.8523C40.2863 58.2851 60.6427 59.4634 80.6679 57.3013C81.1555 57.2488 81.6364 56.6226 81.1332 56.2533C64.1854 43.8056 47.2385 31.358 30.2907 18.9103C30.1352 19.2597 29.9798 19.609 29.8254 19.9583C44.3913 19.0044 58.6106 15.1119 71.4076 8.55866C71.8827 8.31612 71.8117 7.54053 71.2503 7.43736C57.7858 4.96303 44.3224 2.48779 30.8579 0.0134619C30.0293 -0.138582 29.6758 1.04427 30.5073 1.19722C43.9717 3.67154 57.4352 6.14678 70.8996 8.62111C70.8471 8.24734 70.7947 7.87357 70.7422 7.49889C58.155 13.9445 44.1534 17.7926 29.8254 18.7311C29.3231 18.7637 28.8705 19.4198 29.3591 19.7791C46.3069 32.2268 63.2538 44.6745 80.2016 57.1221C80.357 56.7728 80.5125 56.4235 80.6679 56.0741C60.7554 58.2245 40.5271 57.0769 21.0479 52.6685C20.4815 52.5409 20.0289 53.0948 20.3038 53.5699C28.8734 68.3535 35.6586 83.9904 40.5281 100.168C40.7982 99.9161 41.0682 99.6645 41.3383 99.4129C26.8024 95.3457 13.269 88.463 1.74733 79.2562C1.10816 78.7449 0.171731 79.6092 0.816734 80.1251Z" fill="#0F3446"/>
</svg>
