<svg width="98" height="96" viewBox="0 0 98 96" fill="none" xmlns="http://www.w3.org/2000/svg">
<path d="M97.354 30.5982C93.3127 20.9992 89.2723 11.4001 85.2309 1.80104C85.0131 1.28346 84.2008 1.20456 84.0137 1.80104C80.7782 12.1414 77.5427 22.4817 74.3072 32.822C74.659 32.7353 75.0107 32.6486 75.3615 32.5628C60.4132 21.7517 45.464 10.9406 30.5157 0.129514C30.0896 -0.179126 29.1953 0.084435 29.4614 0.701716C36.9542 18.1104 44.446 35.5191 51.9388 52.927C52.1416 52.679 52.3445 52.4311 52.5473 52.1831C36.9151 51.1211 21.2829 50.0582 5.65063 48.9962C5.01321 48.9528 4.80942 49.8155 5.33239 50.092C18.3945 56.9896 31.2174 64.293 44.0449 71.559C45.2779 72.2578 46.5109 72.9566 47.7429 73.6571C47.9551 73.319 48.1673 72.98 48.3804 72.6419C47.7913 72.367 47.0273 72.563 46.4216 72.6843C45.2547 72.9167 44.1092 73.2565 42.9748 73.5981C39.274 74.7096 35.6356 76.0048 32.0186 77.3322C23.5962 80.4229 15.172 83.7 7.15626 87.6317C5.02065 88.679 2.33603 89.7835 0.709436 91.5114C-0.697549 93.0061 1.10678 93.7647 2.54354 94.0733C5.8386 94.7799 9.32349 94.903 12.6874 95.0816C17.4909 95.3365 22.3018 95.4535 27.1118 95.5316C34.1914 95.646 41.3054 95.7847 48.385 95.6026C48.5116 95.5992 48.639 95.6 48.7656 95.5992C49.577 95.5905 49.5789 94.4149 48.7656 94.4236C43.2447 94.4825 37.7219 94.4712 32.201 94.4201C23.5283 94.3395 14.7504 94.336 6.12335 93.417C4.88107 93.2844 3.61739 93.1404 2.40954 92.8318C2.05873 92.7425 1.78236 92.6255 1.47062 92.5102C1.14028 92.3879 1.55809 92.5726 1.41851 92.6012C1.39432 92.6064 1.63626 92.3004 1.80469 92.1452C2.09781 91.8747 2.42723 91.6406 2.76036 91.416C3.82677 90.6991 4.97599 90.0826 6.12428 89.4879C13.4691 85.6802 21.3136 82.6233 29.092 79.6825C32.8719 78.2537 36.675 76.8718 40.5238 75.6121C42.7022 74.8986 45.1998 73.9787 47.3949 73.7091C47.6955 73.6718 47.9681 73.7655 47.7411 73.6597C48.4632 73.9969 49.0773 73.0424 48.3785 72.6445C37.8764 66.6684 27.3417 60.7401 16.7446 54.9115C13.1676 52.9435 9.58219 50.9867 5.96795 49.0785C5.86187 49.4435 5.75579 49.8085 5.6497 50.1744C21.2819 51.2364 36.9142 52.2993 52.5464 53.3614C52.9251 53.3874 53.3029 52.9599 53.155 52.6175C45.6622 35.2088 38.1704 17.8001 30.6777 0.392213C30.3259 0.582946 29.9742 0.773682 29.6234 0.964415C44.5716 11.7755 59.5209 22.5866 74.4691 33.3977C74.8348 33.6621 75.3792 33.6014 75.5235 33.1385C78.759 22.7981 81.9945 12.4578 85.23 2.11747C84.8243 2.11747 84.4185 2.11747 84.0128 2.11747C88.0542 11.7165 92.0946 21.3156 96.136 30.9147C96.43 31.6074 97.6509 31.3048 97.354 30.5982Z" fill="#0F3446"/>
</svg>
