<svg width="301" height="248" viewBox="0 0 301 248" fill="none" xmlns="http://www.w3.org/2000/svg">
<path d="M277.06 87.6399C277.06 87.6399 281.906 79.4866 271.64 78.2018C261.373 76.9169 -0.251859 80.2339 0.951403 94.6765C2.15467 109.12 277.06 87.6399 277.06 87.6399Z" fill="#8380FF"/>
<path d="M69.8831 0.658057C67.0261 0.164242 11.9966 101.021 18.2347 106.059C26.834 113.004 201.219 175.301 206.928 173.043C212.638 170.786 257.61 76.9886 258.287 72.1784C259.106 66.3675 100.304 5.91595 69.8831 0.658057Z" fill="#8380FF"/>
<path d="M131.833 125.071C131.833 125.071 126.537 133.552 127.958 134.949C129.379 136.347 199.411 160.297 200.38 159.273C201.35 158.249 204.845 149.581 204.422 148.893C203.996 148.204 133.151 122.78 131.833 125.071Z" fill="#A0D2F4"/>
<path d="M111.973 119.212C111.973 119.212 107.352 127.364 108.098 129.09C108.591 130.229 119.639 133.366 120.609 132.343C121.58 131.319 124.952 123.74 124.528 123.052C124.102 122.364 112.901 118.639 111.973 119.212Z" fill="#A0D2F4"/>
<path d="M258.289 72.1808C258.717 69.1445 215.561 51.1895 169.915 33.9854C163.958 35.5438 158.05 37.416 153.442 40.8857C147.989 44.9914 144.923 52.0161 148.346 57.4505C150.691 61.1712 155.435 63.3419 160.077 64.9382C180.207 71.8623 202.78 71.9238 223.505 77.4766C225.345 77.9692 227.301 78.5886 228.363 79.941C230.374 82.5012 228.102 85.8217 227.804 88.877C227.426 92.7541 230.49 96.4086 234.397 98.507C237.608 100.232 241.324 101.106 245.065 101.812C252.479 86.2469 258.054 73.8506 258.289 72.1808Z" fill="#A0D2F4"/>
<path d="M73.847 22.7409C73.847 22.7409 63.5656 40.3584 64.6516 43.1887C65.3691 45.0561 101.982 57.411 103.623 55.8028C105.263 54.1947 113.391 36.9064 112.752 35.7719C112.114 34.6363 75.3892 21.8587 73.847 22.7409Z" fill="#A0D2F4"/>
<path d="M69.4232 26.2431C73.3549 27.2686 77.1554 28.6044 80.7638 30.2706C83.6942 31.6241 87.2405 33.2003 88.7714 35.8364C90.1992 38.2948 88.9705 41.4638 86.0471 42.7202C82.8313 44.101 78.6355 42.9334 75.3901 42.2039C70.899 41.1949 66.5337 39.8343 62.3364 38.1574C61.5031 37.8247 60.7475 38.8609 61.5893 39.1972C65.8317 40.893 70.2352 42.2891 74.7715 43.3206C78.3474 44.1341 82.6802 45.2627 86.2844 43.966C89.2657 42.8931 91.1553 40.0759 90.7994 37.3853C90.3969 34.3407 87.3761 32.2352 84.4837 30.6981C79.9305 28.2788 74.9565 26.416 69.8144 25.0743C68.9261 24.8422 68.532 26.011 69.4232 26.2431Z" fill="#8380FF"/>
<path d="M90.1179 40.4961C96.2571 42.6561 102.395 44.8149 108.534 46.9749C109.39 47.2757 109.775 46.1045 108.925 45.8061C102.786 43.6461 96.6483 41.4873 90.5091 39.3273C89.6519 39.0265 89.2663 40.1965 90.1179 40.4961Z" fill="#8380FF"/>
<path d="M57.9718 57.4159C57.8475 57.5023 57.6978 57.5533 57.5241 57.5687C57.349 57.5853 57.1894 57.5651 57.044 57.5107C56.8053 57.423 56.6344 57.2809 56.5313 57.0843C56.4282 56.8877 56.4296 56.6888 56.5355 56.4887C56.5708 56.4224 56.6146 56.3596 56.6697 56.3004C56.7248 56.2412 56.7855 56.1915 56.8561 56.15C57.8151 55.5875 58.7373 55.2441 59.6256 55.1197C60.5125 54.9954 61.4404 55.1102 62.4092 55.4667C63.3653 55.8184 64.0842 56.3158 64.5714 56.9588C65.0572 57.6018 65.3213 58.3135 65.3651 59.0916C65.4075 59.8708 65.2352 60.6334 64.8454 61.3783C64.5319 61.9787 64.0503 62.5352 63.402 63.0468C62.7552 63.5584 62.0039 64.025 61.1508 64.4466C60.2964 64.8681 59.3982 65.2412 58.4534 65.5633C57.51 65.8866 56.5807 66.1649 55.6684 66.3982C56.1966 66.5675 56.7022 66.7569 57.1852 66.9665C57.6682 67.1773 58.1314 67.3953 58.5777 67.6179C59.0211 67.8417 59.4533 68.0596 59.8713 68.2728C60.2894 68.4859 60.7088 68.6908 61.1297 68.885C61.4022 68.9987 61.5717 69.1502 61.6395 69.3397C61.7059 69.5315 61.6904 69.721 61.5915 69.9093C61.4926 70.0988 61.3344 70.2468 61.1212 70.3534C60.9065 70.4588 60.6566 70.4541 60.3699 70.3368C59.8035 70.0881 59.2316 69.8146 58.6525 69.515C58.0735 69.2166 57.4902 68.9217 56.907 68.6327C56.3223 68.345 55.7249 68.0892 55.1148 67.8642C54.2123 67.5326 53.5076 67.3526 53.0006 67.3242C52.8297 67.3159 52.6574 67.3005 52.478 67.2816C52.2973 67.2614 52.1349 67.2247 51.9908 67.1714C51.7239 67.0731 51.5488 66.9334 51.464 66.7499C51.3779 66.5651 51.3934 66.3626 51.5092 66.14C51.5685 66.0287 51.6448 65.928 51.7394 65.8356C51.8355 65.7445 51.9682 65.6852 52.1419 65.6556C53.276 65.4235 54.4143 65.1523 55.5568 64.8433C56.6993 64.5354 57.7727 64.1766 58.7754 63.7692C59.7795 63.363 60.6565 62.8964 61.4065 62.3695C62.1564 61.8437 62.7058 61.2468 63.0546 60.5789C63.1944 60.3113 63.2961 60.0046 63.3597 59.6565C63.4232 59.3083 63.4147 58.9613 63.3357 58.6132C63.2566 58.2662 63.0786 57.9393 62.8046 57.6314C62.5292 57.3247 62.1211 57.0725 61.576 56.8724C60.9927 56.658 60.3967 56.5846 59.7922 56.6533C59.1878 56.722 58.5805 56.9766 57.9718 57.4159Z" fill="#421B36"/>
<path d="M69.7955 61.9446C69.5695 61.8617 69.4141 61.722 69.328 61.523C69.2404 61.3264 69.2531 61.1216 69.3633 60.9108C69.4381 60.7663 69.5709 60.6349 69.7587 60.5188C69.9466 60.4016 70.1768 60.2938 70.4508 60.1955C71.1046 59.9729 71.719 59.8272 72.2924 59.7586C72.8658 59.6911 73.4024 59.6863 73.9024 59.7443C74.4023 59.8024 74.85 59.9054 75.2483 60.051C76.0971 60.3637 76.7651 60.7557 77.2551 61.227C77.7438 61.6983 78.0813 62.211 78.2663 62.7629C78.4527 63.3159 78.5106 63.8784 78.4414 64.4492C78.3708 65.0212 78.2056 65.5565 77.9429 66.0574C77.7268 66.4683 77.4331 66.8283 77.0588 67.135C76.6846 67.4429 76.2143 67.6833 75.6479 67.8586C76.1069 68.2801 76.4261 68.7289 76.6041 69.205C76.782 69.6822 76.854 70.1571 76.8201 70.6296C76.7876 71.1009 76.6606 71.5474 76.4388 71.9713C76.1069 72.6049 75.6282 73.1354 75.0011 73.5617C74.3741 73.988 73.6284 74.2426 72.7598 74.3291C71.8927 74.4155 70.9281 74.2616 69.8675 73.872C69.0187 73.5593 68.2024 73.1081 67.4214 72.5148C66.639 71.9227 66.0374 71.1696 65.6123 70.2578C65.5078 70.0339 65.5106 69.816 65.6222 69.6041C65.6914 69.4703 65.7902 69.3637 65.9188 69.2855C66.0459 69.2073 66.1927 69.1612 66.358 69.1493C66.5218 69.1363 66.6771 69.1576 66.8226 69.2109C66.9695 69.2642 67.1022 69.3423 67.2209 69.4477C67.3409 69.5519 67.4511 69.7154 67.557 69.9392C67.7321 70.2696 67.9623 70.5929 68.2476 70.9091C68.5329 71.2264 68.8747 71.5178 69.2729 71.783C69.6726 72.0483 70.1104 72.2709 70.5878 72.4462C71.2769 72.7008 71.887 72.7943 72.4195 72.7316C72.9505 72.6688 73.3982 72.4983 73.7654 72.2224C74.1326 71.9453 74.4108 71.6243 74.6029 71.2572C74.9291 70.6331 74.9842 70.0576 74.7709 69.5294C74.5577 68.9989 74.1919 68.5667 73.6708 68.2292C73.2033 68.2162 72.7429 68.1652 72.2895 68.08C71.8376 67.9923 71.4266 67.8846 71.058 67.7567C70.6908 67.6276 70.383 67.4974 70.1358 67.3671C69.9677 67.2653 69.8322 67.1599 69.7333 67.0497C69.6331 66.9396 69.5751 66.8224 69.561 66.698C69.5455 66.5737 69.5681 66.4552 69.6274 66.3451C69.7206 66.1675 69.8873 66.036 70.1288 65.952C70.3703 65.8691 70.6767 65.8489 71.0496 65.8928C71.3292 65.9307 71.6117 65.9745 71.8941 66.0254C72.1752 66.0763 72.4505 66.1403 72.7175 66.2184C72.9844 66.2966 73.2442 66.3818 73.497 66.4754C73.7484 66.5678 73.9885 66.6696 74.2159 66.7797C74.5238 66.7063 74.8627 66.5618 75.2398 66.3404C75.6155 66.1201 75.9106 65.8051 76.1267 65.3942C76.3414 64.9833 76.4459 64.5202 76.4374 64.0063C76.4289 63.4923 76.2679 63.0021 75.9502 62.5332C75.6324 62.0654 75.1169 61.6995 74.4009 61.4354C73.9631 61.2743 73.4321 61.2222 72.8107 61.2779C72.1879 61.3335 71.5509 61.5147 70.9013 61.8191C70.6499 61.9375 70.4437 62.0062 70.2855 62.0192C70.1316 62.0311 69.9678 62.0074 69.7955 61.9446Z" fill="#421B36"/>
<path d="M84.525 65.3537C84.2792 65.2495 84.1281 65.092 84.0745 64.8788C84.0194 64.6669 84.0448 64.4597 84.1493 64.2595C84.2425 64.0819 84.4007 63.9433 84.6252 63.8474C84.8512 63.7503 85.0927 63.7574 85.3511 63.8664C85.9499 64.1139 86.5897 64.372 87.2718 64.642C87.9526 64.9132 88.6248 65.1701 89.2886 65.4141C89.9509 65.658 90.537 65.87 91.044 66.05C91.5511 66.23 91.9197 66.3567 92.1513 66.4278C92.4676 66.5178 92.654 66.6694 92.7091 66.8813C92.7628 67.0945 92.7388 67.3006 92.6343 67.4995C92.5298 67.6996 92.3702 67.8441 92.1597 67.9317C91.9479 68.0194 91.6895 68.0205 91.3858 67.9365C91.1542 67.8654 90.7842 67.7423 90.2744 67.567C89.7645 67.3929 89.1827 67.1821 88.5288 66.9346C87.8749 66.6871 87.2012 66.4266 86.5064 66.1495C85.8101 65.8748 85.1506 65.6095 84.525 65.3537ZM84.1225 64.3104C84.2143 64.1056 84.3908 63.9646 84.6521 63.8876C84.9133 63.8119 85.1704 63.819 85.4218 63.9125C85.7268 64.025 85.9048 64.1897 85.9584 64.4075C86.0093 64.6266 85.9429 64.9132 85.7565 65.2696C85.5997 65.5704 85.3992 65.9209 85.1577 66.3236C84.9148 66.725 84.6634 67.1395 84.3993 67.567C84.1366 67.9945 83.8852 68.3912 83.6451 68.7607C83.405 69.1302 83.2031 69.4238 83.0407 69.6429L82.3938 69.2462C83.0011 69.084 83.679 69.0259 84.4317 69.0698C85.1845 69.1148 85.9048 69.2628 86.5954 69.5174C87.5642 69.8738 88.3296 70.3759 88.8946 71.0202C89.4581 71.6667 89.7942 72.3832 89.9029 73.173C90.0131 73.9617 89.8577 74.7575 89.4383 75.558C89.1233 76.1596 88.694 76.6842 88.1517 77.1342C87.6066 77.5854 87.0007 77.9347 86.3313 78.1858C85.6618 78.4369 84.9698 78.5742 84.2538 78.5955C83.5378 78.618 82.8486 78.5067 82.1862 78.2628C81.5225 78.0188 80.9392 77.7074 80.4322 77.3296C79.9266 76.9507 79.5184 76.5196 79.2106 76.0341C78.9027 75.5498 78.7007 75.037 78.6033 74.497C78.5962 74.3892 78.5976 74.2909 78.6047 74.1986C78.6118 74.1097 78.6343 74.0304 78.6682 73.9653C78.7389 73.8315 78.8363 73.7273 78.962 73.6538C79.0863 73.5804 79.2318 73.5378 79.397 73.5259C79.5608 73.5129 79.7246 73.5366 79.8842 73.5946C80.0297 73.6479 80.1568 73.745 80.2655 73.8848C80.3743 74.0245 80.4463 74.2128 80.4802 74.4508C80.5593 74.9044 80.822 75.3555 81.2683 75.8032C81.7117 76.2532 82.2342 76.5859 82.8316 76.8062C83.4417 77.0312 84.0589 77.0916 84.6817 76.9898C85.3045 76.8879 85.8751 76.6499 86.3948 76.2769C86.9131 75.9038 87.3312 75.4171 87.6447 74.8167C87.913 74.3051 88.0048 73.7948 87.9229 73.2867C87.8396 72.7787 87.6136 72.3145 87.2408 71.8917C86.8679 71.4713 86.3638 71.1421 85.7268 70.9077C85.4345 70.7999 85.0927 70.7135 84.6987 70.6495C84.3047 70.5844 83.9219 70.5453 83.5491 70.5334C83.1748 70.5228 82.8627 70.5441 82.6142 70.5974C82.3825 70.646 82.1777 70.7063 81.997 70.7786C81.8162 70.852 81.6143 70.8461 81.3883 70.7632C81.1355 70.6708 80.9731 70.5074 80.8968 70.2741C80.8206 70.0396 80.8587 69.8111 81.007 69.5873C81.3855 68.9845 81.7202 68.4563 82.0111 68.0063C82.302 67.5563 82.5675 67.1407 82.8076 66.757C83.0477 66.3745 83.2723 65.9896 83.4827 65.6024C83.6903 65.2187 83.905 64.7853 84.1225 64.3104Z" fill="#421B36"/>
<path d="M102.005 85.7735C100.824 85.3389 99.9059 84.7728 99.252 84.0729C98.5967 83.3754 98.231 82.5832 98.1561 81.6998C98.0798 80.8164 98.3044 79.8749 98.8283 78.8731C99.2591 78.0489 99.8381 77.291 100.565 76.597C101.291 75.9031 102.113 75.3003 103.03 74.7887C103.946 74.276 104.912 73.8745 105.925 73.5856C106.939 73.2955 107.954 73.1308 108.97 73.0941C109.987 73.0562 110.956 73.1676 111.881 73.4269C112.116 73.4885 112.293 73.6294 112.406 73.8509C112.52 74.0711 112.525 74.2819 112.419 74.4832C112.326 74.6608 112.163 74.7745 111.933 74.8219C111.703 74.8692 111.323 74.8693 110.795 74.8207C109.86 74.7023 108.973 74.6916 108.131 74.7864C107.289 74.8811 106.465 75.0919 105.652 75.4164C104.842 75.742 103.997 76.2003 103.117 76.7924C103.723 76.7225 104.355 76.7237 105.016 76.7936C105.675 76.8646 106.25 76.989 106.74 77.1702C107.628 77.497 108.34 77.9814 108.875 78.622C109.409 79.2639 109.727 79.9803 109.827 80.7737C109.926 81.566 109.775 82.3464 109.372 83.1137C109.048 83.7366 108.613 84.2731 108.069 84.7231C107.525 85.1743 106.914 85.5177 106.234 85.7581C105.555 85.9985 104.852 86.124 104.126 86.1358C103.401 86.1477 102.694 86.0269 102.005 85.7735ZM102.735 84.3311C103.345 84.5561 103.961 84.626 104.582 84.5431C105.203 84.4602 105.773 84.2411 106.289 83.8882C106.806 83.5353 107.213 83.0758 107.511 82.5086C107.803 81.952 107.928 81.418 107.887 80.9052C107.847 80.3924 107.655 79.9377 107.309 79.5374C106.964 79.1384 106.474 78.821 105.837 78.5877C105.359 78.4124 104.869 78.2916 104.364 78.2253C103.86 78.1602 103.353 78.1554 102.841 78.2123C102.329 78.2691 101.803 78.3899 101.263 78.5758C101.226 78.6161 101.161 78.7014 101.07 78.8328C100.976 78.9643 100.886 79.1016 100.797 79.2402C100.708 79.3811 100.64 79.4948 100.592 79.5836C100.249 80.2396 100.109 80.8779 100.171 81.4985C100.235 82.119 100.486 82.6744 100.924 83.167C101.362 83.6596 101.966 84.0481 102.735 84.3311Z" fill="#421B36"/>
<path d="M114.774 76.7024C114.592 76.5958 114.481 76.4549 114.438 76.2796C114.396 76.1055 114.42 75.9279 114.513 75.7503C114.588 75.6058 114.695 75.485 114.832 75.3891C114.969 75.2943 115.127 75.2399 115.31 75.2268C115.49 75.2138 115.681 75.2576 115.882 75.3583C116.716 75.7585 117.425 76.0972 118.006 76.3779C118.586 76.6585 119.121 76.9049 119.611 77.118C120.1 77.3312 120.618 77.5372 121.162 77.7374C121.706 77.9375 122.351 78.1684 123.1 78.4313C123.344 78.5095 123.508 78.6516 123.588 78.86C123.669 79.0696 123.66 79.2685 123.56 79.4568C123.467 79.6345 123.266 79.7967 122.961 79.9424C122.655 80.0892 122.204 80.3391 121.61 80.6884C121.134 80.9643 120.524 81.3599 119.779 81.875C119.035 82.3901 118.225 82.9941 117.348 83.6869C116.47 84.3784 115.591 85.1399 114.707 85.9688C113.822 86.7966 113.005 87.6705 112.256 88.5883C112.104 88.7588 111.92 88.8524 111.704 88.8725C111.487 88.8926 111.286 88.8678 111.101 88.8003C110.915 88.7328 110.768 88.6286 110.659 88.4888C110.55 88.3491 110.495 88.1963 110.495 88.0317C110.495 87.8659 110.559 87.7061 110.686 87.5545C112.186 85.8386 113.883 84.2032 115.778 82.653C117.674 81.1017 119.719 79.7423 121.912 78.5723L122.067 79.863C121.22 79.5516 120.495 79.2851 119.899 79.0649C119.302 78.8446 118.757 78.6315 118.265 78.4242C117.771 78.217 117.257 77.9766 116.719 77.7066C116.178 77.4342 115.531 77.1003 114.774 76.7024Z" fill="#421B36"/>
<path d="M124.501 94.0309C123.426 93.6354 122.557 93.1558 121.893 92.5945C121.231 92.0308 120.802 91.4316 120.605 90.7957C120.408 90.1609 120.478 89.5191 120.816 88.8737C121.217 88.1063 121.888 87.5142 122.826 87.0962C123.763 86.6794 125 86.394 126.534 86.2436C125.786 85.4371 125.33 84.7053 125.167 84.0492C125.006 83.3908 125.104 82.7182 125.464 82.029C125.738 81.5067 126.187 81.1041 126.808 80.8223C127.43 80.5404 128.146 80.3971 128.956 80.3888C129.767 80.3829 130.583 80.5298 131.405 80.8329C132.2 81.1254 132.85 81.5233 133.354 82.0278C133.858 82.5311 134.184 83.0794 134.333 83.6715C134.482 84.2636 134.41 84.8379 134.121 85.3933C133.817 85.9724 133.261 86.4153 132.453 86.7208C131.644 87.0263 130.652 87.1969 129.482 87.2288C130.448 88.194 131.104 89.1449 131.452 90.0828C131.801 91.0207 131.788 91.8449 131.415 92.5566C131.148 93.0682 130.761 93.4803 130.258 93.7917C129.756 94.1043 129.184 94.3175 128.545 94.4359C127.907 94.552 127.239 94.5745 126.54 94.5034C125.844 94.4324 125.163 94.2761 124.501 94.0309ZM128.559 86.092C129.643 85.9866 130.479 85.841 131.068 85.6527C131.657 85.4644 132.068 85.1482 132.299 84.7029C132.456 84.4021 132.488 84.0942 132.394 83.7733C132.301 83.4536 132.107 83.1563 131.815 82.884C131.522 82.6104 131.145 82.389 130.681 82.2173C130.176 82.0313 129.688 81.9283 129.218 81.907C128.746 81.8857 128.336 81.9437 127.987 82.0811C127.639 82.2184 127.393 82.4245 127.247 82.704C126.99 83.193 126.979 83.7141 127.213 84.2636C127.448 84.8154 127.896 85.4253 128.559 86.092ZM125.183 92.5909C125.818 92.8254 126.433 92.9616 127.021 92.9995C127.61 93.0362 128.134 92.958 128.593 92.7615C129.052 92.5649 129.398 92.2451 129.631 91.8011C129.881 91.3215 129.805 90.7116 129.404 89.9667C129.001 89.2219 128.336 88.3929 127.406 87.4811C126.072 87.6397 125.022 87.8707 124.256 88.1715C123.489 88.4734 122.955 88.914 122.652 89.4919C122.465 89.8471 122.451 90.2154 122.605 90.5979C122.762 90.9804 123.06 91.3451 123.503 91.6945C123.945 92.0426 124.506 92.3422 125.183 92.5909Z" fill="#421B36"/>
<path d="M149.379 87.7041C149.552 87.5549 149.732 87.466 149.923 87.4364C150.112 87.4056 150.287 87.421 150.447 87.4791C150.605 87.5371 150.746 87.6224 150.871 87.7349C150.994 87.8462 151.078 87.9705 151.126 88.1079C151.173 88.2453 151.159 88.385 151.083 88.5295C151.064 88.5638 151.03 88.6064 150.978 88.6597C150.926 88.7142 150.825 88.8066 150.679 88.938C150.078 89.4472 149.499 89.9434 148.937 90.4265C148.377 90.9097 147.809 91.3881 147.238 91.8595C146.666 92.3331 146.075 92.8139 145.462 93.3054C144.849 93.7956 144.192 94.3179 143.493 94.8685C144.383 95.2226 145.258 95.5755 146.12 95.9248C146.981 96.2754 147.841 96.6283 148.699 96.9823C149.158 96.2233 149.605 95.4997 150.037 94.8093C150.47 94.1189 150.93 93.4131 151.419 92.6908C151.561 92.4776 151.759 92.3414 152.012 92.2822C152.265 92.223 152.505 92.2349 152.729 92.3177C153.061 92.4397 153.236 92.6173 153.257 92.8506C153.279 93.0827 153.207 93.3231 153.047 93.5695C152.878 93.8655 152.68 94.1876 152.458 94.5358C152.235 94.8851 152.008 95.2451 151.773 95.6169C151.539 95.9888 151.311 96.3559 151.09 96.7194C150.868 97.0818 150.666 97.4087 150.482 97.6988C150.662 97.7781 150.845 97.8515 151.03 97.9202C151.215 97.9877 151.392 98.0611 151.558 98.1346C151.777 98.2293 151.94 98.3655 152.046 98.5431C152.15 98.7208 152.15 98.909 152.046 99.1104C151.882 99.4218 151.66 99.5888 151.379 99.6113C151.098 99.635 150.806 99.59 150.501 99.4775C150.366 99.4277 150.228 99.3697 150.081 99.3034C149.934 99.2359 149.792 99.1696 149.65 99.1044C149.474 99.4111 149.3 99.719 149.131 100.028C148.961 100.337 148.793 100.643 148.627 100.947C148.46 101.25 148.299 101.552 148.141 101.852C148.053 102.019 147.94 102.136 147.802 102.205C147.662 102.273 147.511 102.307 147.346 102.307C147.18 102.304 147.018 102.275 146.858 102.217C146.645 102.138 146.473 102.008 146.337 101.827C146.205 101.645 146.195 101.442 146.312 101.221C146.474 100.909 146.642 100.595 146.815 100.282C146.987 99.9666 147.161 99.6492 147.337 99.3306C147.512 99.0097 147.689 98.6959 147.865 98.3904L141.383 95.7661C141.109 95.6252 140.942 95.4748 140.884 95.3138C140.827 95.1527 140.839 94.9941 140.92 94.8389C140.985 94.717 141.068 94.6009 141.173 94.4931C141.276 94.3854 141.389 94.2752 141.513 94.1604C141.586 94.1095 141.817 93.9247 142.205 93.6085C142.592 93.2935 143.082 92.8933 143.677 92.4089C144.27 91.9246 144.907 91.4035 145.587 90.8434C146.267 90.2845 146.94 89.7326 147.604 89.1879C148.271 88.6455 148.861 88.1505 149.379 87.7041Z" fill="#421B36"/>
<path d="M158.382 92.7675C158.09 92.6598 157.916 92.5082 157.86 92.3163C157.803 92.1233 157.827 91.9255 157.932 91.7254C158.031 91.5359 158.188 91.3879 158.401 91.2825C158.616 91.1748 158.868 91.1759 159.161 91.2825C159.584 91.4388 160.127 91.6413 160.788 91.8912C161.449 92.1411 162.165 92.4277 162.937 92.7521C163.708 93.0754 164.486 93.4188 165.27 93.78C166.054 94.1412 166.786 94.519 167.465 94.9157C167.647 95.0223 167.76 95.1596 167.805 95.329C167.85 95.4995 167.828 95.6724 167.733 95.8512C167.705 95.9068 167.653 95.9696 167.575 96.0406C167.499 96.1117 167.363 96.2124 167.17 96.3391C166.188 96.9726 165.139 97.6417 164.02 98.3439C162.9 99.0462 161.768 99.7531 160.621 100.466C159.473 101.178 158.371 101.869 157.315 102.542C156.258 103.216 155.309 103.841 154.469 104.42C154.332 104.529 154.177 104.585 154.003 104.586C153.828 104.588 153.667 104.562 153.521 104.509C153.428 104.475 153.339 104.433 153.256 104.382C153.171 104.33 153.106 104.277 153.058 104.219C152.965 104.092 152.911 103.967 152.899 103.842C152.884 103.718 152.907 103.601 152.965 103.488C153.081 103.266 153.297 103.052 153.609 102.849C153.713 102.768 154.009 102.575 154.494 102.268C154.979 101.963 155.59 101.578 156.332 101.115C157.072 100.652 157.884 100.144 158.765 99.5933C159.648 99.0414 160.542 98.4813 161.447 97.9141C162.354 97.3456 163.215 96.8033 164.03 96.287C164.845 95.7718 165.551 95.3242 166.144 94.9453L166.116 96.0892C165.25 95.625 164.406 95.2082 163.58 94.8363C162.753 94.4668 161.916 94.1163 161.07 93.7836C160.218 93.4532 159.323 93.1145 158.382 92.7675Z" fill="#421B36"/>
<path d="M168.7 99.8063C168.615 99.8158 168.533 99.8146 168.451 99.8051C168.369 99.7945 168.296 99.7767 168.23 99.753C168.07 99.6938 167.946 99.5979 167.857 99.4664C167.768 99.3338 167.718 99.1917 167.714 99.0365C167.708 98.8826 167.737 98.7429 167.8 98.6221C167.86 98.5108 167.947 98.4172 168.067 98.3414C168.184 98.2656 168.328 98.2183 168.495 98.2005C169.179 98.133 169.804 98.056 170.375 97.966C170.944 97.8772 171.526 97.7529 172.123 97.5954C172.721 97.4379 173.394 97.2164 174.143 96.9358C174.281 96.8813 174.414 96.8553 174.537 96.8612C174.661 96.8671 174.788 96.8943 174.921 96.9429C175.319 97.0897 175.533 97.2946 175.561 97.5563C175.589 97.8192 175.523 98.0276 175.364 98.1804C174.911 98.6233 174.358 99.29 173.702 100.176C173.05 101.063 172.401 102.118 171.762 103.341C171.46 103.92 171.163 104.501 170.873 105.084C170.584 105.667 170.285 106.253 169.977 106.843C169.779 107.221 169.567 107.617 169.343 108.033C169.117 108.447 168.899 108.828 168.684 109.175C168.547 109.376 168.36 109.516 168.122 109.594C167.884 109.671 167.625 109.659 167.347 109.557C167.121 109.474 166.953 109.326 166.843 109.113C166.733 108.9 166.744 108.699 166.874 108.508C167.11 108.117 167.35 107.698 167.591 107.249C167.834 106.801 168.066 106.366 168.288 105.943C168.567 105.41 168.84 104.87 169.109 104.325C169.379 103.78 169.656 103.237 169.941 102.691C170.197 102.201 170.464 101.722 170.741 101.253C171.017 100.786 171.318 100.323 171.645 99.8667C171.969 99.4096 172.318 98.9631 172.688 98.5285L173.269 98.9608C172.53 99.1929 171.777 99.38 171.006 99.5209C170.238 99.6618 169.468 99.7578 168.7 99.8063Z" fill="#421B36"/>
<path d="M183.969 104.906C183.886 104.914 183.805 104.912 183.726 104.896C183.647 104.88 183.567 104.858 183.488 104.828C183.328 104.77 183.202 104.676 183.11 104.55C183.019 104.424 182.969 104.283 182.964 104.128C182.958 103.973 182.986 103.836 183.051 103.713C183.115 103.591 183.205 103.491 183.325 103.415C183.444 103.341 183.586 103.293 183.754 103.274C183.966 103.26 184.267 103.232 184.654 103.188C185.041 103.143 185.477 103.08 185.966 102.994C186.453 102.908 186.945 102.801 187.439 102.67C187.935 102.54 188.387 102.385 188.798 102.206C188.936 102.152 189.076 102.126 189.217 102.13C189.357 102.136 189.493 102.164 189.625 102.212C189.785 102.27 189.926 102.363 190.052 102.488C190.175 102.612 190.245 102.758 190.262 102.924C190.278 103.09 190.2 103.259 190.029 103.434C189.593 103.938 189.132 104.514 188.649 105.167C188.166 105.817 187.685 106.503 187.206 107.221C186.726 107.94 186.266 108.655 185.822 109.368C185.379 110.08 184.972 110.76 184.6 111.405C184.23 112.053 183.917 112.62 183.661 113.109C183.533 113.354 183.407 113.594 183.286 113.827C183.164 114.06 183.048 114.296 182.94 114.535C182.829 114.746 182.653 114.887 182.41 114.957C182.167 115.026 181.914 115.012 181.649 114.915C181.265 114.773 181.074 114.578 181.078 114.328C181.082 114.078 181.139 113.833 181.249 113.595C181.813 112.396 182.459 111.185 183.187 109.96C183.915 108.736 184.658 107.58 185.417 106.493C186.175 105.406 186.87 104.455 187.503 103.639L188.099 104.178C187.429 104.369 186.75 104.527 186.059 104.65C185.37 104.775 184.674 104.86 183.969 104.906Z" fill="#421B36"/>
<path d="M192.134 118.776C191.166 118.42 190.389 117.941 189.801 117.341C189.214 116.741 188.804 116.066 188.571 115.316C188.337 114.568 188.277 113.784 188.39 112.962C188.503 112.141 188.769 111.331 189.188 110.529C189.642 109.663 190.245 108.866 190.995 108.141C191.746 107.416 192.592 106.819 193.534 106.349C194.476 105.88 195.47 105.596 196.52 105.498C197.567 105.399 198.615 105.543 199.663 105.929C200.008 106.056 200.344 106.206 200.673 106.38C201.001 106.554 201.318 106.757 201.623 106.989C201.989 107.255 202.085 107.556 201.91 107.89C201.845 108.013 201.753 108.114 201.632 108.195C201.511 108.277 201.378 108.334 201.235 108.367C201.09 108.4 200.948 108.407 200.807 108.39C200.667 108.371 200.549 108.317 200.453 108.229C200.296 108.104 200.06 107.953 199.745 107.769C199.429 107.587 199.159 107.454 198.933 107.371C198.151 107.083 197.367 106.985 196.586 107.075C195.803 107.165 195.055 107.397 194.346 107.773C193.636 108.147 192.994 108.625 192.422 109.204C191.849 109.783 191.382 110.423 191.014 111.124C190.649 111.825 190.423 112.498 190.338 113.143C190.253 113.787 190.297 114.385 190.469 114.932C190.64 115.481 190.927 115.96 191.328 116.374C191.729 116.787 192.242 117.108 192.865 117.337C193.701 117.644 194.489 117.748 195.229 117.649C195.969 117.551 196.647 117.313 197.264 116.936C197.88 116.559 198.42 116.101 198.885 115.562C199.348 115.022 199.73 114.47 200.026 113.902C200.369 113.246 200.624 112.617 200.789 112.014C200.954 111.412 201.043 110.865 201.056 110.371C201.068 109.878 201.015 109.459 200.898 109.11C200.859 108.911 200.859 108.721 200.898 108.542C200.934 108.365 201.012 108.211 201.128 108.079C201.238 107.96 201.385 107.876 201.57 107.825C201.755 107.773 201.941 107.78 202.13 107.841C202.318 107.904 202.471 108.036 202.587 108.238C202.831 108.647 202.969 109.125 202.999 109.673C203.029 110.222 202.991 110.792 202.886 111.383C202.783 111.975 202.633 112.549 202.44 113.099C202.246 113.652 202.044 114.127 201.835 114.529C201.388 115.385 200.824 116.157 200.15 116.844C199.474 117.531 198.713 118.086 197.867 118.51C197.019 118.934 196.111 119.18 195.141 119.249C194.171 119.313 193.168 119.156 192.134 118.776Z" fill="#421B36"/>
<path d="M206.627 124.187C205.738 123.86 205.017 123.387 204.464 122.765C203.911 122.145 203.524 121.434 203.301 120.636C203.076 119.838 203.02 119.001 203.13 118.127C203.24 117.251 203.513 116.398 203.949 115.563C204.387 114.728 204.928 113.996 205.573 113.365C206.22 112.735 206.957 112.216 207.786 111.812C208.615 111.407 209.508 111.136 210.467 110.998C210.582 110.988 210.681 110.987 210.763 110.998C210.844 111.007 210.913 111.022 210.965 111.041C211.125 111.099 211.246 111.192 211.331 111.316C211.416 111.439 211.464 111.577 211.472 111.726C211.481 111.876 211.454 112.011 211.39 112.133C211.325 112.256 211.239 112.354 211.129 112.426C211.02 112.498 210.869 112.551 210.677 112.587C210.171 112.706 209.616 112.899 209.009 113.167C208.402 113.435 207.82 113.807 207.261 114.285C206.703 114.762 206.224 115.38 205.83 116.136C205.521 116.726 205.3 117.351 205.169 118.012C205.035 118.674 205.015 119.319 205.104 119.949C205.195 120.578 205.426 121.14 205.799 121.637C206.172 122.132 206.703 122.507 207.393 122.762C208.109 123.026 208.823 123.113 209.53 123.029C210.239 122.945 210.918 122.728 211.57 122.377C212.219 122.025 212.805 121.584 213.329 121.054C213.852 120.523 214.278 119.941 214.61 119.307C214.989 118.584 215.234 117.859 215.346 117.131C215.458 116.402 215.431 115.706 215.264 115.04C215.097 114.377 214.785 113.788 214.326 113.272C213.867 112.759 213.26 112.362 212.504 112.084C212.332 112.021 212.102 111.956 211.811 111.889C211.522 111.823 211.311 111.778 211.18 111.756C210.904 111.708 210.677 111.585 210.496 111.385C210.315 111.186 210.299 110.948 210.444 110.668C210.526 110.512 210.647 110.394 210.807 110.316C210.968 110.235 211.18 110.215 211.441 110.26C212.074 110.32 212.675 110.455 213.246 110.665C214.333 111.065 215.196 111.602 215.833 112.274C216.47 112.946 216.899 113.707 217.118 114.557C217.337 115.406 217.382 116.296 217.254 117.223C217.124 118.15 216.844 119.073 216.412 119.988C216.014 120.81 215.459 121.551 214.75 122.212C214.04 122.873 213.233 123.412 212.327 123.827C211.421 124.244 210.475 124.493 209.491 124.576C208.512 124.659 207.556 124.528 206.627 124.187Z" fill="#421B36"/>
<path d="M48.9195 75.7275C48.9195 75.7275 45.6684 80.5106 46.4423 81.4757C47.2163 82.4408 167.557 124.368 168.249 123.47C168.941 122.573 170.888 118.356 170.627 117.851C170.364 117.344 54.7028 77.2232 48.9195 75.7275Z" fill="#421B36"/>
<path d="M43.9263 91.3271C43.9263 91.3271 40.6753 96.1102 41.4492 97.0753C42.2231 98.0404 83.5775 112.392 84.2695 111.494C84.9615 110.597 86.909 106.38 86.6478 105.874C86.3851 105.368 49.7096 92.824 43.9263 91.3271Z" fill="#421B36"/>
<path d="M206.652 173.705C198.366 173.705 127.826 148.743 113.365 143.595C70.5013 128.332 22.2818 110.222 17.7032 106.523C11.396 101.43 54.9648 21.9341 64.9044 6.11784C68.8574 -0.172677 69.3743 -0.0862375 70.0381 0.029815C85.7793 2.75113 134.658 19.8689 176.116 35.6271C195.731 43.0817 259.682 67.7583 259.048 72.2559C258.669 74.9547 246.146 101.704 235.203 123.816C224.324 145.8 210.645 172.287 207.255 173.625C207.121 173.678 206.918 173.705 206.652 173.705ZM70.0197 1.33955C65.7066 5.2806 19.6959 88.5329 18.528 103.95C18.4263 105.282 18.7314 105.569 18.7653 105.596C27.4776 112.633 195.499 172.478 206.31 172.478C206.443 172.478 206.55 172.47 206.635 172.452C208.263 171.778 216.387 158.486 233.809 123.278C246.807 97.0106 257.231 74.2016 257.527 72.1044C256.811 69.788 227.996 56.7215 174.305 36.3483C133.639 20.9181 85.7765 4.16745 70.0197 1.33955Z" fill="#421B36"/>
<path d="M16.7543 111.61C16.7543 111.61 9.44147 69.8005 15.6188 61.4518C21.7961 53.102 206.737 24.1469 210.407 30.9928C214.077 37.8387 214.927 54.9458 214.927 54.9458L254.099 53.5271L262.895 94.7329L16.7543 111.61Z" fill="#A0D2F4"/>
<path d="M13.2119 89.407C13.2119 89.407 51.174 81.7866 82.2964 108.058L14.668 104.378L13.2119 89.407Z" fill="#8380FF"/>
<g opacity="0.2">
<path d="M147.755 99.7853C147.755 98.9635 147.755 98.1405 147.755 97.3186C149.043 97.3186 149.33 98.266 150.016 98.9315C149.735 99.3519 149.478 99.7356 149.181 100.176C148.647 100.03 148.201 99.9073 147.755 99.7853ZM149.899 91.3171C149.167 90.7771 148.695 90.1032 147.755 89.9161C147.755 90.0192 147.755 90.1222 147.755 90.2252C147.755 90.9452 147.755 91.664 147.755 92.3828C148.779 92.6907 149.594 92.101 149.899 91.3171ZM211.388 85.2503C213.588 83.0975 209.553 80.3927 207.976 83.2419C208.285 84.9993 209.301 86.0615 211.388 85.2503ZM217.773 82.5361C216.571 84.2331 216.136 83.506 217.947 85.3238C218.889 85.3711 219.846 85.4197 220.802 85.4659C221.174 83.3189 221.014 83.0051 219.058 82.066C218.653 82.2152 218.212 82.3751 217.773 82.5361ZM212.18 90.8801C210.846 88.9818 208.441 89.0825 207.809 91.3265C209.014 93.7234 211.395 93.361 212.18 90.8801ZM229.818 87.5548C230.214 88.9356 232.127 90.2998 233.284 88.7248C234.939 85.7525 231.387 84.515 229.818 87.5548ZM222.169 81.5296C222.654 81.6752 223.108 81.8102 223.796 82.0163C225.049 81.211 225.307 80.2447 225.031 79.507C223.827 79.6656 222.6 79.8267 221.35 79.9901C221.635 80.5289 221.904 81.0322 222.169 81.5296ZM236.642 85.6127C237.275 85.1485 237.913 84.6819 238.562 84.2071C238.562 83.75 238.562 83.2964 238.562 82.8192C235.169 80.8262 232.588 84.7684 236.642 85.6127ZM258.266 85.8744C257.745 85.8673 257.314 86.0402 257.026 86.3316C257.848 86.206 258.29 86.1373 258.29 86.1373L258.266 85.8744ZM179.493 85.7761C178.293 86.4215 177.075 86.5708 176.835 87.8319C178.828 89.7421 180.36 89.9576 181.192 87.2718C180.976 86.4559 180.229 86.1728 179.493 85.7761ZM203.263 83.9371C203.072 83.3616 202.933 82.7718 202.358 82.4094C201.501 82.516 200.638 82.6226 199.769 82.7292C197.209 84.3847 201.957 86.9284 203.263 83.9371ZM207.322 86.7105C206.561 86.4168 205.997 86.1018 205.342 85.6755C200.43 87.7952 207.743 91.9814 207.322 86.7105ZM257.86 81.494L257.618 78.8781C257.071 79.1505 256.585 79.5827 256.294 80.1488C256.572 80.8783 257.183 81.3164 257.86 81.494ZM181.62 91.0435C181.801 94.2989 186.258 92.9619 185.375 90.5544C184.156 89.5099 182.046 89.3252 181.62 91.0435ZM216.029 80.6805C214.988 80.8143 213.934 80.9493 212.868 81.0855C213.977 82.2567 215.145 82.053 216.029 80.6805ZM241.869 86.6749C241.584 85.4481 239.211 86.0296 239.028 87.0278C238.778 87.9278 239.142 88.578 239.748 88.9249C240.734 88.7793 241.686 88.6384 242.602 88.5022C242.743 88.3636 242.875 88.2109 242.983 88.0273C242.868 87.2742 242.039 87.2611 241.869 86.6749ZM225.007 86.3931C224.491 86.1456 224.079 85.9467 223.6 85.7157C217.149 87.4257 226.149 91.8203 225.007 86.3931ZM212.425 87.7336C213.04 88.2914 213.577 88.7758 214.159 89.3004C214.998 88.7959 217.425 87.8402 216.193 86.8455C214.172 85.3783 213.006 85.473 212.425 87.7336ZM227.16 85.6352C229.678 84.7873 229.814 84.5256 228.838 82.4106C228.416 82.3005 227.962 82.1821 227.424 82.0423C226.054 82.7884 225.334 84.7873 227.16 85.6352ZM205.835 93.0827C205.04 93.2947 204.356 93.4924 203.944 94.0549C203.942 94.062 203.944 94.0668 203.944 94.0739C204.856 93.946 205.771 93.8181 206.668 93.6926C206.452 93.483 206.195 93.2769 205.835 93.0827ZM248.73 78.6614C248.353 79.3814 248 80.054 247.664 80.6982C249.445 82.625 250.686 81.8126 251.731 79.9534C251.221 78.8189 250.214 78.5335 248.73 78.6614ZM168.102 87.9539C168.873 88.4738 169.565 88.9403 170.295 89.4318C172.95 87.9752 171.984 86.4902 170.596 86.1575C170.086 86.2143 169.576 86.2711 169.065 86.3268C168.561 86.5968 168.167 87.1048 168.102 87.9539ZM246.603 77.5625C246.681 77.2297 246.757 76.8981 246.836 76.5559C245.907 76.685 244.92 76.8223 243.885 76.9645C244.274 77.3718 244.636 77.7685 245.036 78.2398C245.613 77.9912 246.098 77.7815 246.603 77.5625ZM252.53 77.3114C254.886 78.755 256.577 77.527 255.373 75.3516C254.551 75.4688 253.471 75.6227 252.158 75.8098C251.706 76.1864 251.665 76.7039 252.53 77.3114ZM227.114 89.4661C226.403 89.9801 226.012 90.4952 225.868 90.9535C226.982 90.7925 228.071 90.6338 229.139 90.4786C228.876 90.0997 228.324 89.8806 227.114 89.4661ZM170.286 93.3942C166.867 94.3877 168.77 96.9823 171.659 96.0018C173.023 94.7584 172.262 93.5422 170.286 93.3942ZM231.923 81.6504C234.374 81.4254 234.038 79.5081 232.486 78.5158C232.062 78.5726 231.63 78.6306 231.198 78.6887C229.825 79.5496 229.887 81.2371 231.923 81.6504ZM186.536 86.3908C184.573 88.6727 188.443 89.4152 190.274 87.8899C189.153 86.8396 188.251 85.2279 186.536 86.3908ZM199.391 90.2323C198.649 91.8499 201.205 93.6547 202.509 91.9932C204.007 90.4313 201.047 88.8918 199.391 90.2323ZM253.213 85.2361C254.229 84.9555 254.804 85.5441 255.873 85.2894C255.887 84.245 256.013 83.3414 255.8 82.4876C254.608 81.6764 253.872 82.4734 253.042 82.831C252.857 83.5131 253.453 84.2047 252.711 84.7565C252.547 84.8797 252.967 85.3273 253.213 85.2361ZM174.191 90.0784C172.7 91.8038 172.755 92.2751 174.57 93.0188C177.353 92.3627 177.524 89.7278 174.191 90.0784ZM238.725 80.1417C239.392 81.0144 240.237 81.6137 241.783 81.6338C244.304 78.7443 240.511 77.4796 238.725 80.1417ZM217.26 92.191C218.369 92.0323 219.458 91.8772 220.532 91.722C220.637 91.6107 220.767 91.5113 220.86 91.3929C219.243 89.0789 215.354 90.494 217.26 92.191ZM196.75 93.4024C195.145 93.8418 194.733 94.6695 195.008 95.3161C196.188 95.1539 197.363 94.9905 198.521 94.8306C198.608 94.036 198.25 93.8915 196.75 93.4024ZM165.701 92.705C166.216 92.4717 166.689 92.2561 167.147 92.0489C167.775 90.8031 167.757 90.1009 166.041 89.7231C163.842 90.0144 163.232 92.2407 165.701 92.705ZM190.519 90.5047C190.144 92.834 193.294 93.5907 194.116 91.3301C193.613 89.4614 192.085 89.5538 190.519 90.5047ZM190.022 94.2255C187.686 91.4876 184.648 95.7803 187.6 96.3322C187.946 96.2848 188.296 96.2374 188.64 96.1901C189.19 95.6228 189.044 94.7323 190.022 94.2255ZM185.159 84.9306C185.254 84.7708 185.314 84.618 185.365 84.4664C184.398 84.5801 183.425 84.6938 182.45 84.8075C183.052 85.634 183.762 85.3842 185.159 84.9306ZM151.393 101.109C151.524 101.093 151.654 101.076 151.786 101.06C151.681 101.025 151.579 100.988 151.465 100.961C151.434 101.013 151.42 101.06 151.393 101.109ZM152.708 88.9984C153.613 88.7367 154.081 88.3435 154.212 87.9137C153.184 88.0191 152.157 88.1232 151.13 88.2275C151.4 88.694 151.938 89.041 152.708 88.9984ZM151.067 94.4043C151.229 95.0082 151.399 95.6394 151.593 96.3547C152.701 96.6235 153.521 96.3997 154.281 95.8147C154.281 95.373 154.281 94.9265 154.281 94.306C154.041 94.1094 153.701 93.8264 153.427 93.6014C152.461 93.6511 151.711 93.7921 151.067 94.4043ZM248.045 87.6898C249.319 87.4992 250.474 87.3251 251.526 87.1664C251.663 86.0414 249.833 85.3534 248.045 87.6898ZM163.111 86.9781C162.053 87.0918 160.994 87.2055 159.933 87.3168C160.09 90.5106 163.609 88.3376 163.111 86.9781ZM190.52 83.9039C191.506 85.6411 194.381 85.2409 194.14 83.4184C192.948 83.5628 191.75 83.7073 190.543 83.8518C190.537 83.8707 190.526 83.8838 190.52 83.9039ZM178.526 93.5102C177.796 93.8892 177.472 94.4185 177.274 95.0106C177.503 96.376 180.164 96.6768 180.761 95.3742C180.588 94.8318 180.439 94.3676 180.256 93.7956C179.64 93.6938 179.057 93.5978 178.526 93.5102ZM158.718 97.9463C158.245 97.0794 156.938 97.5306 156.089 97.4809C155.898 97.9155 155.753 98.2494 155.556 98.6982C156.603 101.457 158.649 100.238 158.718 97.9463ZM173.095 98.285C174.148 98.1452 175.197 98.0055 176.239 97.8657C176.147 97.7296 176.033 97.5886 175.882 97.443C174.852 97.2772 173.645 97.5721 173.095 98.285ZM157.904 90.1435C156.73 89.7847 156.053 90.2501 155.388 90.9547C155.145 94.2018 159.903 92.506 157.904 90.1435ZM164.022 98.6461C164.143 98.9351 164.296 99.1873 164.469 99.423C165.329 99.3105 166.184 99.198 167.038 99.0867C167.223 98.7847 167.384 98.4697 167.513 98.1405C166.302 96.5607 165.174 97.6751 164.022 98.6461ZM163.058 95.1314C162.81 94.7252 162.537 94.2835 162.234 93.7873C157.066 93.393 160.943 98.4034 163.058 95.1314ZM195.811 86.7223C193.516 87.8757 196.255 89.1677 197.933 88.7023C199.559 87.3417 197.587 85.9289 195.811 86.7223ZM245.459 82.1513C244.839 82.4272 244.32 82.6593 243.76 82.9068C244.061 84.0756 244.705 84.9188 245.992 85.325C247.511 84.888 245.927 83.8601 246.6 82.9258C246.148 82.6191 245.783 82.3692 245.459 82.1513ZM147.755 99.7853C147.755 98.9635 147.755 98.1405 147.755 97.3186C146.714 96.8071 146.172 97.9143 145.943 98.562C146.307 99.3152 146.578 100.046 147.755 99.7853ZM147.755 92.384C147.755 91.6652 147.755 90.944 147.755 90.2252C146.033 90.2146 145.069 92.7215 147.755 92.6931C147.755 92.5889 147.755 92.4871 147.755 92.384ZM67.4132 107.459C68.4088 107.746 69.0359 107.277 69.838 107.093C69.766 106.394 69.7039 105.788 69.6403 105.181C68.6433 104.32 68.6433 104.32 67.279 104.387C66.0546 103.255 66.0786 101.389 64.1 100.773C63.5619 101.182 62.6538 100.954 62.1199 101.749C63.0619 102.721 62.9122 104.217 64.9021 103.662C65.8498 103.41 66.7451 104.567 66.2664 105.278C65.8484 106.039 67.1138 106.853 67.4132 107.459ZM58.2108 107.259C59.0313 108.36 61.531 107.834 61.3517 106.506C61.6737 104.726 59.0383 103.157 58.0695 105.28C57.0922 106.342 57.088 106.344 58.2108 107.259ZM46.1315 93.0744C45.1782 93.4735 44.2913 93.8726 44.0781 94.9005C45.7078 98.6473 51.2496 94.9289 46.1315 93.0744ZM27.577 93.4628C24.7849 95.3706 29.6516 98.9896 30.6812 94.7276C29.9398 93.239 29.1814 93.3255 27.577 93.4628ZM39.8384 99.005C40.6957 100.092 40.7041 100.096 42.9242 100.033C46.1343 98.1428 40.8496 94.814 39.8384 99.005ZM78.7029 106.488C79.2057 105.687 79.0984 105.126 78.2002 104.665C76.6438 103.533 75.7724 104.926 75.0366 105.934C75.4858 107.73 78.21 108.689 78.7029 106.488ZM45.448 111.182C48.9335 111.855 49.1594 108.957 46.2389 107.863C44.8223 108.816 42.9016 110.359 45.448 111.182ZM79.7635 109.283C80.9838 109.164 82.2153 109.043 83.4482 108.92C82.0994 107.502 80.4542 108.248 79.7635 109.283ZM75.0705 91.426C75.7739 92.0394 76.2583 92.9169 77.6847 93.0235C78.717 92.5261 79.032 91.8689 78.9515 91.2602C77.6762 91.2211 76.4136 91.1773 75.1581 91.1299C75.1313 91.2306 75.0931 91.3147 75.0705 91.426ZM23.7596 111.702C22.8007 112.253 22.6284 112.629 22.6001 113.112C23.7511 113.095 24.9332 113.069 26.1393 113.037C26.0009 112.369 25.3061 111.77 23.7596 111.702ZM26.4585 108.811C26.652 110.418 27.7451 111.204 29.4963 111.613C31.7263 109.345 29.3169 106.801 26.4585 108.811ZM40.2353 105.745C39.6252 107.061 40.7281 107.452 42.0232 107.95C46.7727 106.217 41.1532 102.71 40.2353 105.745ZM21.089 110.727C22.5634 109.361 20.9732 107.778 19.0412 108.249C16.2053 109.922 18.4791 112.426 21.089 110.727ZM53.8285 110.877C55.7379 111.577 56.3211 111.221 57.2786 109.8C56.6657 108.753 56.6657 108.753 55.2887 108.089C53.9796 108.153 53.313 108.813 52.9599 109.814C53.2183 110.131 53.4923 110.466 53.8285 110.877ZM24.6959 97.2002C23.1198 97.5732 23.1199 97.5732 22.0705 99.005C23.7526 102.311 28.8071 98.4981 24.6959 97.2002ZM65.7241 94.5037C64.5222 92.7203 61.4505 93.4403 62.1496 95.5826C63.1438 97.8385 65.7354 96.3961 65.7241 94.5037ZM24.4389 107.579C26.2579 107.908 26.8045 105.76 25.8159 104.967C22.9249 103.228 20.7557 107.106 24.4389 107.579ZM89.6241 108.297C89.8246 108.277 90.0252 108.256 90.2271 108.236C90.0336 108.21 89.8317 108.232 89.6241 108.297ZM61.3926 90.9109C61.3545 90.7415 61.274 90.5911 61.1737 90.4526C60.1428 90.391 59.1217 90.3282 58.1119 90.2631C56.6078 92.403 60.5848 94.6956 61.3926 90.9109ZM96.1658 97.5365C95.4314 97.4797 94.9314 97.2464 94.3792 96.8627C94.0205 97.0391 93.7098 97.1919 93.4189 97.3364C93.1562 98.5183 93.0969 100.273 94.9964 100.427C95.6658 99.9926 96.3296 99.5627 97.0583 99.0914C96.7406 98.536 96.4539 98.0386 96.1658 97.5365ZM51.4403 104.534C48.2711 104.508 48.0381 106.902 50.809 107.841C51.333 107.547 51.8739 107.244 52.371 106.963C52.6294 105.342 52.6294 105.342 51.4403 104.534ZM63.8796 108.26C62.264 107.874 62.3148 109.569 62.24 110.508C62.5111 110.573 62.7611 110.684 63.0083 110.802C63.922 110.725 64.8329 110.649 65.758 110.569C66.4613 109.421 65.5532 108.621 63.8796 108.26ZM99.7431 100.895C97.9438 101.318 97.9438 101.318 97.4354 102.638C99.0751 106.338 103.399 102.118 99.7431 100.895ZM112.085 100.46C112.56 100.318 113.006 100.186 113.493 100.04C113.747 98.8096 114.907 98.5111 113.483 97.2784C110.889 96.6507 109.283 99.2406 112.085 100.46ZM121.304 100.354C123.478 99.8173 123.632 98.2826 121.886 97.1943C118.92 96.9752 118.723 99.8268 121.304 100.354ZM80.8016 93.425C78.7312 94.6115 80.488 97.3589 82.5528 96.1486C84.3139 94.7288 83.2618 92.8909 80.8016 93.425ZM36.1975 93.8217C35.8233 94.2918 35.6058 94.5701 35.2273 95.0449C35.6538 95.4393 36.1947 95.4239 36.4038 95.9177C38.8343 98.1014 42.0896 92.1436 36.1975 93.8217ZM18.7277 96.3239C20.8447 97.1789 21.918 94.9976 21.4632 93.47C19.3279 92.744 16.6728 95.0142 18.7277 96.3239ZM31.6147 112.852C32.6584 112.81 33.7218 112.763 34.7966 112.712C34.685 112.446 34.4675 112.179 34.1116 111.929C33.3758 111.112 31.9748 112.044 31.6147 112.852ZM44.8817 101.383C43.4567 103.015 45.7488 103.623 47.2755 104.314C48.9829 102.534 47.339 99.6243 44.8817 101.383ZM106.319 94.8448C105.829 96.89 108.696 96.6792 109.827 95.4831C110.861 93.0176 107.146 92.7334 106.319 94.8448ZM31.2659 99.4076C34.291 101.9 36.5916 97.3695 32.9903 96.858C31.9 97.6609 31.9 97.6609 31.2659 99.4076ZM33.51 107.856C34.3051 107.199 35.8614 104.881 33.8602 104.886C32.4649 105.123 31.1713 104.324 30.7659 105.988C31.53 106.865 32.0991 107.782 33.51 107.856ZM38.1267 111.176C38.5405 110.905 38.8724 110.688 39.1817 110.486C38.9967 109.534 38.806 108.636 37.8047 107.928C34.7132 109.019 34.5777 110.861 38.1267 111.176ZM18.8308 101.256C17.297 101.971 18.2037 103.912 19.8264 104.163C21.5621 103.462 21.596 103.111 21.6214 101.897C21.483 100.759 19.7487 101.293 18.8308 101.256ZM40.4782 112.42C41.0953 112.384 41.7295 112.345 42.3565 112.307C42.0825 112.253 41.8241 112.179 41.6546 112.024C41.1278 111.945 40.7352 112.119 40.4782 112.42ZM27.0064 87.8426C26.7183 89.3489 30.4256 89.3347 30.4595 87.9053C29.2294 87.7739 28.0572 87.646 26.9415 87.5205C26.9556 87.6247 26.9711 87.7289 27.0064 87.8426ZM24.2878 89.4199C22.3431 90.1009 22.0098 90.9772 23.3839 92.3959C24.2285 92.4728 25.0123 92.583 25.8427 92.7535C25.8921 92.1874 26.1873 91.0743 26.3427 90.8801C25.6323 90.4088 24.977 89.9339 24.2878 89.4199ZM77.9911 100.151C81.2916 97.347 74.6087 95.5009 75.4815 99.783C76.1792 100.467 77.1226 100.093 77.9911 100.151ZM85.078 97.2535C83.2081 99.6373 87.4421 101.667 88.1722 98.6497C87.2924 97.2369 86.8786 97.0546 85.078 97.2535ZM85.085 104.623C83.8097 106.02 83.8111 106.042 85.2841 107.58C85.8067 107.558 86.3984 107.536 86.9746 107.515C88.5338 105.714 87.709 104.549 85.085 104.623ZM90.6988 93.0815C89.2823 93.5623 87.8827 94.9016 89.175 96.0764C92.5122 96.6602 93.3172 94.7371 90.6988 93.0815ZM66.9457 92.7571C68.6772 93.0792 70.0315 92.2147 70.1191 90.9215C69.0076 90.8706 67.9032 90.8185 66.8101 90.7628C66.8807 91.4165 66.909 91.9281 66.9457 92.7571ZM111.527 92.3485C111.318 92.7073 111.877 93.1111 112.387 93.0614C113.871 92.7831 114.306 91.9399 114.155 91.1619C113.216 91.1998 112.276 91.2342 111.338 91.2661C111.663 91.5243 111.884 91.7836 111.527 92.3485ZM103.796 104.279C102.169 104.45 101.597 106.187 102.435 106.936C103.374 106.833 104.312 106.731 105.255 106.627C106.014 105.83 105.487 104.559 103.796 104.279ZM126.5 103.562C129.013 103.048 126.681 100.458 124.475 100.611C123.253 102.059 124.233 103.902 126.5 103.562ZM103.326 97.109C102.979 97.2926 102.583 97.5034 102.246 97.681C102.141 99.7285 102.141 99.7285 103.925 100.351C104.515 99.86 105.11 99.3649 105.697 98.8759C105.055 97.6514 105.055 97.6514 103.326 97.109ZM118.718 102.233C117.724 100.252 113.927 100.877 115.409 103.401C116.682 104.303 118.959 103.805 118.718 102.233ZM84.6402 92.3307C85.5228 92.5546 86.3081 92.4693 87.1597 92.4314C87.4534 92.0749 87.6229 91.7552 87.7246 91.4604C86.6385 91.4438 85.5567 91.4248 84.4792 91.4023C84.4848 91.6806 84.5229 91.9814 84.6402 92.3307ZM49.6072 90.7901C49.1919 90.809 48.9081 90.8209 48.5649 90.8375C48.9886 91.9577 49.9306 92.4338 51.0562 92.7168C53.2127 92.3272 53.248 90.4715 51.6535 89.8143C51.2793 89.7871 50.9079 89.7587 50.5378 89.7302C50.1805 90.0358 49.8232 90.4585 49.6072 90.7901ZM66.1294 98.3039C66.6011 99.526 68.0769 100.387 69.5259 99.6515C71.7616 97.726 67.3948 96.0326 66.1294 98.3039ZM29.9369 101.501C28.1546 100.503 27.9202 100.522 26.8327 101.819C27.1152 102.111 27.4118 102.419 27.7027 102.719C27.5233 102.942 27.3609 103.143 27.1575 103.395C27.9018 103.683 28.4385 104.128 29.252 104.125C29.6432 103.73 30.0202 103.347 30.3761 102.986C30.2236 102.466 30.0767 101.977 29.9369 101.501ZM93.0093 106.212C93.272 107.19 94.8975 108.048 95.9793 107.364C96.4524 106.754 95.7336 106.179 96.3239 105.497C95.3127 103.799 92.6817 104.411 93.0093 106.212ZM15.0345 97.1339C14.7125 97.2748 14.4767 97.424 14.279 97.5768L14.5247 100.12C17.2349 100.537 18.2206 97.649 15.0345 97.1339ZM130.316 93.0957C130.894 92.6078 131.439 92.1472 131.932 91.7292C131.717 91.1477 131.659 90.5497 131.312 90.0938C130.45 90.1684 129.589 90.2394 128.724 90.3069C128.555 91.5598 128.816 92.5273 130.316 93.0957ZM138.246 99.7889C139.03 100.727 139.994 99.6953 140.725 99.2951C140.958 98.5644 140.412 98.0528 140.178 97.456C138.987 97.4359 137.88 97.2002 136.852 97.9593C136.854 98.9635 137.729 99.1317 138.246 99.7889ZM90.5929 100.811C89.3656 101.193 88.2867 101.633 88.6538 103.027C91.4883 104.909 94.0092 102.147 90.5929 100.811ZM79.8313 102.703C79.7607 102.742 79.8525 103.098 79.9683 103.249C81.8693 105.198 82.9623 103.601 83.2293 101.79C82.6898 101.044 81.7308 101.055 80.7084 100.748C80.4061 101.531 80.6039 102.282 79.8313 102.703ZM120.237 104.92C120.857 104.848 121.478 104.773 122.099 104.701C121.511 104.465 120.807 104.553 120.237 104.92ZM32.1909 89.7918C32.3166 90.4751 31.5201 90.5675 31.2009 91.0246C31.4241 92.0098 32.1471 92.5084 33.0482 92.9252C33.976 92.6742 34.5409 92.1424 34.7514 91.3194C34.0594 90.8315 33.277 88.4714 32.1909 89.7918ZM53.7494 103.434C56.3691 104.613 58.2715 102.327 55.7223 100.805C55.3551 100.833 54.8863 100.871 54.3736 100.914C54.3115 101.639 54.0262 101.917 53.4401 102.475C53.5573 102.835 53.6491 103.125 53.7494 103.434ZM102 91.5551C102.757 92.9122 105.1 92.6967 105.454 91.4236C104.295 91.4473 103.138 91.4675 101.984 91.4817C101.994 91.5089 101.989 91.5278 102 91.5551ZM71.4127 101.28C71.2814 101.823 71.1614 102.31 71.0554 102.748C72.0285 103.482 72.9818 104.361 74.1525 103.4C74.2429 102.792 74.322 102.244 74.3969 101.735C73.0256 100.634 73.0256 100.634 71.4127 101.28ZM15.1602 92.9536C15.639 92.2999 16.9115 92.371 17.0795 91.3526C16.5542 89.6094 14.7126 89.343 13.6279 90.8375L13.6816 91.3988C13.9725 92.0489 14.4188 92.5782 15.1602 92.9536ZM56.4623 96.0326C56.6629 95.2996 57.3012 94.6412 56.6742 93.7992C55.8974 93.721 55.0783 93.6405 54.2225 93.5552C53.433 94.2918 53.618 95.1314 53.7254 96.087C54.6786 96.1605 55.5472 96.286 56.4623 96.0326ZM15.6771 112.035L15.783 113.135C16.2491 113.141 16.7434 113.14 17.2222 113.142C17.0273 112.765 16.8324 112.389 16.6135 111.967C16.2279 111.987 15.9328 112.008 15.6771 112.035ZM59.2318 100.443C59.8829 99.6823 60.9407 99.2584 61.3149 98.279C60.7726 96.4755 58.4325 97.3293 57.4538 98.5254C58.1995 99.0227 57.9071 100.113 59.2318 100.443ZM133.474 95.8692C133.868 96.0267 134.348 96.222 134.823 96.4139C135.364 96.1557 135.834 95.9307 136.306 95.7057C136.452 94.7264 136.584 93.8015 135.132 93.4214C133.343 93.6334 132.696 94.4007 133.474 95.8692ZM97.8548 94.6269C97.4665 97.3376 101.496 96.7597 101.384 94.5429C100.052 93.3717 99.7021 93.3835 97.8548 94.6269ZM120.406 92.3237C121.259 92.6517 122.142 93.0697 123.078 92.236C123.349 91.619 123.231 91.098 122.912 90.7155C121.801 90.7842 120.69 90.8481 119.577 90.9085C119.567 90.9251 119.553 90.9381 119.543 90.9547C119.841 91.4248 120.119 91.8654 120.406 92.3237ZM43.033 89.9292C41.9808 90.0369 40.8058 89.7788 40.0997 90.9002C40.3539 94.1426 45.0144 92.4148 43.033 89.9292ZM70.9679 110.108C72.1161 110.004 73.2769 109.896 74.4392 109.788C75.2231 107.838 70.934 107.656 70.9679 110.108ZM109.482 101.049C108.369 100.293 107.474 100.392 106.535 101.211C107.122 101.92 107.619 102.62 106.889 103.363C109.147 104.785 109.879 102.567 109.482 101.049ZM140.362 91.2472C140.026 90.6622 140.066 89.9315 139.307 89.4129C134.691 90.1056 139.565 95.1645 140.362 91.2472ZM141.627 102.337C142.754 102.198 143.88 102.057 145.004 101.916C144.478 100.367 142.148 100.665 141.627 102.337ZM95.2845 92.7286C95.9793 92.4409 96.2237 91.9992 96.3861 91.5207C95.2986 91.5219 94.2168 91.5196 93.1364 91.5148C93.1279 91.5728 93.1025 91.6131 93.0969 91.6735C93.5714 92.4882 94.5233 92.5143 95.2845 92.7286ZM14.9851 104.864L15.2422 107.516C15.8212 107.658 16.4031 107.542 16.6982 106.947C16.8931 106.205 16.4595 105.679 16.9397 104.928C16.3042 104.766 15.591 104.728 14.9851 104.864ZM51.5504 97.2109C49.7004 97.2748 47.7669 98.1488 49.8543 99.5224C51.0081 99.5248 52.2467 99.8978 52.8356 98.6651C52.5842 98.0528 52.306 97.4963 51.5504 97.2109ZM74.2076 94.1769C72.5765 92.763 71.4947 93.7163 70.9396 95.0284C71.7616 96.9551 75.5761 95.8929 74.2076 94.1769ZM36.1396 103.408C37.3457 104.442 39.4063 103.603 39.4924 102.128C38.4911 100.634 35.1129 101.64 36.1396 103.408ZM144.312 93.9922C142.572 93.2639 141.559 94.2042 141.924 95.6619C143.45 97.9747 145.862 95.6335 144.312 93.9922ZM128.383 98.2234C127.417 99.8221 129.706 100.01 131.1 99.8529C132.545 97.5875 130.206 96.5359 128.383 98.2234ZM118.662 95.6394C118.505 95.1515 118.339 94.6317 118.183 94.145C116.193 93.9519 116.193 93.9519 115.071 94.7252C115.134 96.2102 117.798 97.2949 118.662 95.6394ZM133.73 100.894C133.108 101.488 132.879 102.11 133.279 102.888C133.8 102.862 134.266 103.075 134.758 103.184C135.136 103.138 135.513 103.092 135.892 103.045C137.242 101.843 135.431 100.28 133.73 100.894ZM18.3605 88.1979C19.6668 88.9984 20.7797 88.5744 21.9759 87.9918C21.9039 87.5311 21.7711 87.1759 21.6045 86.8976C20.7981 86.7993 20.0411 86.7058 19.342 86.6169C18.907 86.9722 18.5398 87.5193 18.3605 88.1979ZM37.8711 88.6514C37.3076 88.5981 36.7512 88.5448 36.2032 88.4915C36.6834 88.803 37.309 88.816 37.8711 88.6514ZM127.489 95.3386C127.501 94.1035 124.478 93.3871 124.27 94.8555C123.81 96.4743 126.812 96.6898 127.489 95.3386ZM112.914 105.196C112.122 105.445 111.399 105.672 110.56 105.935C110.57 105.968 110.587 105.995 110.598 106.027C111.666 105.907 112.735 105.785 113.804 105.663C113.791 105.62 113.787 105.58 113.77 105.535C113.504 105.429 113.187 105.303 112.914 105.196ZM142.912 89.0564C142.943 89.0434 142.979 89.0375 143.011 89.0256C142.972 89.0292 142.932 89.0339 142.892 89.0374C142.899 89.0434 142.905 89.0493 142.912 89.0564Z" fill="#421B36"/>
</g>
<path d="M245.023 88.8235C244.351 87.997 243.677 87.1716 243.005 86.345C242.069 85.1963 241.617 85.2283 239.868 84.9832C236.049 84.4467 232.222 83.343 229.258 81.1878C225.536 78.483 223.781 74.4839 223.696 70.4221C223.678 69.5671 223.755 68.3628 223.877 67.8062C223.976 67.3538 223.626 66.7227 222.953 66.7902C195.984 69.4783 169.263 73.5887 142.405 76.9234C115.535 80.2605 88.3815 82.803 61.1767 82.0321C45.797 81.5963 30.4879 80.058 15.4824 77.1733C14.282 76.9424 13.7707 78.4901 14.9726 78.7222C41.385 83.8001 68.5827 84.603 95.5431 83.0351C122.683 81.4566 149.547 77.6695 176.383 74.0612C191.872 71.9782 207.374 69.9496 222.955 68.3971C222.647 68.0584 222.339 67.7197 222.031 67.3811C221.377 70.3866 221.847 73.7343 223.151 76.5634C226.159 83.0872 233.684 86.0028 241.554 86.7879C241.279 86.6553 241.004 86.5226 240.727 86.39C241.608 87.4712 242.488 88.5523 243.369 89.6347C244.06 90.4826 245.721 89.6809 245.023 88.8235Z" fill="#8380FF"/>
<path d="M207.89 55.6831C207.742 54.1946 207.594 52.7048 207.447 51.2163C207.39 50.6514 206.883 50.3601 206.235 50.4418C200.224 51.2032 194.122 50.0593 190.936 45.3876C189.673 43.5367 188.819 41.2855 188.726 39.1385C188.702 38.5843 188.135 38.2669 187.514 38.364C167.091 41.5448 146.436 43.7202 125.881 46.1893C101.81 49.08 77.7063 51.9813 53.8373 55.901C43.3427 57.624 32.8212 59.4975 22.6147 62.2034C21.9001 62.3928 21.5894 63.3674 22.3859 63.6718C28.8499 66.1373 36.3533 67.1202 43.3173 67.8935C60.3338 69.7835 77.3546 68.7864 94.3585 67.3724C124.361 64.8785 154.307 61.873 184.236 58.8272C191.804 58.0563 199.371 57.2818 206.936 56.4872C208.143 56.3605 208.157 54.7523 206.936 54.8814C187.044 56.9703 167.137 58.9728 147.224 60.9126C131.654 62.4283 116.078 63.9063 100.485 65.2491C83.8045 66.6856 67.1114 68.0877 50.3363 66.9212C43.4698 66.444 36.6047 65.5949 29.943 64.0969C28.2384 63.7132 26.5451 63.2881 24.8856 62.7848C24.4803 62.6617 24.0481 62.4627 23.6287 62.3833C23.2488 62.3123 23.6499 62.3988 23.3533 62.2851C23.277 62.7742 23.2008 63.2632 23.1245 63.7535C43.0814 58.4613 64.1089 55.7518 84.7253 52.976C108.696 49.7478 132.757 47.0277 156.778 44.0897C167.214 42.8131 177.656 41.5294 188.026 39.9142C187.623 39.656 187.219 39.3979 186.815 39.1397C186.931 41.79 188.014 44.5894 189.725 46.8039C193.524 51.7172 200.206 52.822 206.749 51.9919C206.345 51.7338 205.941 51.4756 205.537 51.2175C205.686 52.706 205.834 54.1957 205.981 55.6843C206.075 56.7063 207.992 56.7145 207.89 55.6831Z" fill="#8380FF"/>
<path d="M0.949219 94.6764C0.949219 94.6764 13.0595 240.624 30.504 245.069C47.9485 249.512 279.804 241.001 294.377 230.252C300.972 225.387 277.955 80.9443 277.955 80.9443C246.861 93.7823 13.8913 106.391 0.949219 94.6764Z" fill="#8380FF"/>
<path d="M1.09259 111.47C36.0875 113.351 71.1897 113.763 106.233 112.685C141.112 111.61 175.923 109.064 210.5 105.072C229.964 102.826 249.347 100.112 268.629 96.95C268.225 96.6918 267.821 96.4337 267.416 96.1755C268.085 101.365 268.745 106.556 269.403 111.747C270.928 123.774 272.434 135.803 273.912 147.833C275.578 161.384 277.216 174.936 278.764 188.496C279.874 198.227 281.04 207.967 281.773 217.725C281.866 218.96 281.955 220.198 281.989 221.435C281.999 221.815 282.005 222.194 281.992 222.574C281.979 222.968 281.916 223.054 282.03 222.823C282.023 222.837 282.193 222.808 282.005 222.831C282.265 222.799 281.998 222.849 281.833 222.905C281.424 223.042 281.505 223.051 280.97 223.2C279.824 223.518 278.646 223.752 277.469 223.967C267.539 225.781 257.305 226.633 247.219 227.574C230.959 229.09 214.659 230.294 198.35 231.355C178.924 232.619 159.477 233.655 140.016 234.453C120.635 235.248 101.234 235.816 81.8312 235.965C65.6408 236.09 49.4038 235.996 33.2474 235.005C30.1559 234.816 27.0686 234.586 23.9885 234.301C22.7654 234.187 22.7753 235.794 23.9885 235.906C38.9925 237.297 54.1519 237.549 69.2337 237.6C88.322 237.665 107.412 237.234 126.482 236.571C146.355 235.879 166.216 234.916 186.056 233.727C203.483 232.683 220.9 231.474 238.281 229.977C250.087 228.961 261.945 227.926 273.643 226.214C276.385 225.812 279.276 225.459 281.89 224.622C283.676 224.05 283.931 223.291 283.91 221.766C283.8 213.905 282.618 205.993 281.76 198.175C280.319 185.002 278.747 171.839 277.149 158.679C275.568 145.648 273.949 132.621 272.308 119.596C271.369 112.142 270.423 104.69 269.465 97.2389C269.42 96.8837 269.373 96.5296 269.328 96.1743C269.258 95.6308 268.775 95.2921 268.116 95.3998C233.785 101.031 199.125 105.222 164.293 107.929C129.626 110.623 94.7959 111.865 59.9804 111.64C40.3342 111.513 20.6936 110.915 1.08694 109.861C-0.137503 109.797 -0.133269 111.403 1.09259 111.47Z" fill="#421B36"/>
<path d="M7.27937 96.7984C7.71435 97.7599 8.5123 98.3343 9.74946 98.4941C11.6193 98.7357 13.5979 98.7179 15.489 98.8636C19.8091 99.1952 24.1222 99.5789 28.4466 99.882C37.3708 100.506 46.3374 100.815 55.2884 101.011C73.2667 101.403 91.2592 101.116 109.218 100.324C144.448 98.7677 179.512 95.2696 214.423 91.0834C234.485 88.6782 254.507 86.0398 274.526 83.3955C275.741 83.2356 275.225 81.6866 274.017 81.8465C239.619 86.3903 205.205 90.9187 170.608 94.2689C136.243 97.5965 101.67 99.766 67.0612 99.5659C57.3136 99.509 47.5675 99.2651 37.8354 98.8056C33.093 98.5818 28.3605 98.2893 23.6322 97.9127C21.1649 97.7161 18.6991 97.5089 16.2304 97.3158C14.9975 97.2199 13.7646 97.1264 12.5317 97.0399C11.6786 96.9807 9.48394 97.1583 9.12945 96.372C8.69306 95.414 6.84156 95.8285 7.27937 96.7984Z" fill="#421B36"/>
<path d="M259.626 78.5606C264.006 77.7388 270.324 77.2639 274.383 79.2439C275.509 79.7934 276.766 80.6638 277.148 81.7497C277.514 82.7871 277.497 84.1157 277.665 85.1792C278.048 87.6186 278.425 90.0593 278.801 92.5C280.295 102.199 281.749 111.902 283.166 121.609C286.016 141.159 288.739 160.725 291.059 180.324C292.19 189.887 293.227 199.458 293.984 209.046C294.353 213.706 294.516 218.351 294.611 223.018C294.641 224.495 294.813 225.983 294.621 227.457C294.508 228.324 294.043 229.468 293.521 229.805C292.281 230.604 290.799 230.967 289.325 231.365C286.872 232.026 284.352 232.515 281.833 232.959C264.466 236.018 246.582 237.304 228.937 238.642C204.585 240.489 180.175 241.823 155.759 242.91C132.015 243.966 108.251 244.785 84.4794 245.217C68.7749 245.502 52.9051 245.939 37.2175 245.014C34.0879 244.83 30.7224 244.949 28.7735 242.981C25.2244 239.396 23.7415 234.013 22.3194 229.623C16.7762 212.514 14.0815 194.675 11.4406 177.121C8.61742 158.359 6.36485 139.536 4.39895 120.697C3.73942 114.377 3.11519 108.055 2.53474 101.73C2.32432 99.4406 1.76364 96.9597 1.90769 94.66C1.93453 94.2419 2.45989 93.5125 3.09683 93.0352C5.71802 91.0742 9.88989 90.5733 13.213 90.2085C14.4177 90.0759 14.4332 88.4689 13.213 88.6027C9.32639 89.0291 1.19025 89.89 0.0759597 94.0844C-0.0822156 94.6825 0.0477125 95.3065 0.0985545 95.9081C0.471396 100.233 0.875308 104.556 1.29476 108.878C3.0135 126.625 5.00057 144.358 7.38309 162.052C9.98451 181.382 12.8175 200.795 17.5896 219.845C19.2053 226.292 20.9438 232.87 23.983 238.969C25.4363 241.886 27.3033 245.396 31.3693 246.065C35.9648 246.82 40.8075 246.825 45.4694 246.934C53.7454 247.127 62.0298 247.1 70.3086 247.022C93.5222 246.802 116.73 246.093 139.918 245.18C165.441 244.175 190.954 242.893 216.422 241.15C236.278 239.791 256.248 238.363 275.897 235.53C281.217 234.763 286.769 234.009 291.81 232.325C294.121 231.553 295.879 230.703 296.385 228.44C296.689 227.076 296.641 225.668 296.583 224.288C296.491 222.119 296.522 219.947 296.441 217.776C296.255 212.78 295.824 207.791 295.375 202.808C293.582 182.943 290.921 163.129 288.18 143.343C285.424 123.463 282.495 103.598 279.361 83.7581C279.068 81.8942 279.113 80.5312 277.408 79.1835C275.842 77.9437 274.057 77.2 271.957 76.8246C267.762 76.075 263.29 76.2278 259.12 77.0105C257.913 77.2379 258.423 78.7856 259.626 78.5606Z" fill="#421B36"/>
<path d="M298.495 178.964C301.733 173.258 293.657 120.187 292.044 115.649C290.431 111.111 282.81 110.59 282.81 110.59L283.322 118.956C283.322 118.956 196.619 126.554 190.789 129.316C183.766 132.641 194.106 178.871 196.658 189.591C196.663 189.607 196.666 189.623 196.67 189.639C197.009 191.063 198.566 192.046 200.292 191.923C216.759 190.749 295.144 184.868 298.495 178.964Z" fill="#8380FF"/>
<path d="M299.322 179.37C299.956 178.2 300.041 176.844 300.129 175.579C300.274 173.461 300.219 171.331 300.131 169.211C299.881 163.146 299.252 157.09 298.551 151.053C297.265 139.973 295.868 128.817 293.563 117.847C293.169 115.975 292.757 114.234 291.111 112.79C289.022 110.959 285.777 110.006 282.811 109.788C282.313 109.752 281.828 110.186 281.854 110.591C282.025 113.38 282.194 116.169 282.365 118.958C282.684 118.69 283.003 118.422 283.323 118.155C267.961 119.501 252.61 120.949 237.275 122.496C226.755 123.558 216.235 124.65 205.756 125.969C202.116 126.428 198.471 126.897 194.867 127.523C193.191 127.814 190.83 128.014 189.574 129.115C187.542 130.896 187.557 134.285 187.461 136.557C187.279 140.895 187.7 145.255 188.207 149.569C189.407 159.782 191.366 169.938 193.533 180.034C194.229 183.282 194.73 186.661 195.746 189.853C197.025 193.873 202.794 192.548 206.451 192.274C216.9 191.492 227.343 190.628 237.769 189.662C249.987 188.529 262.208 187.291 274.339 185.618C279.175 184.951 284.012 184.225 288.775 183.253C291.686 182.659 294.862 182.052 297.481 180.776C298.187 180.43 298.939 179.998 299.322 179.37C299.881 178.451 298.229 177.638 297.668 178.559C296.967 179.712 293.817 180.397 292.207 180.81C288.308 181.81 284.287 182.489 280.283 183.12C269.05 184.891 257.688 186.108 246.341 187.234C235.206 188.339 224.052 189.301 212.889 190.175C209.222 190.463 205.554 190.74 201.883 191.005C201.145 191.058 200.269 191.216 199.538 191.095C197.88 190.82 197.623 189.567 197.354 188.423C197.007 186.941 196.668 185.457 196.335 183.972C194.229 174.559 192.329 165.1 190.926 155.595C190.234 150.908 189.642 146.199 189.417 141.478C189.266 138.309 189.026 134.821 190.098 131.736C190.702 129.997 191.565 129.822 193.478 129.427C196.453 128.814 199.497 128.411 202.519 128.004C212.235 126.698 222.007 125.671 231.773 124.662C248.621 122.924 265.495 121.336 282.378 119.842C282.691 119.815 283.006 119.787 283.32 119.759C283.814 119.716 284.307 119.427 284.277 118.956C284.106 116.168 283.937 113.379 283.766 110.59C283.447 110.858 283.128 111.125 282.808 111.393C285.315 111.578 288.203 112.446 289.895 114.048C291.139 115.226 291.384 116.712 291.697 118.196C292.605 122.494 293.276 126.829 293.941 131.156C295.77 143.056 297.413 155.03 298.105 167.019C298.247 169.491 298.353 171.972 298.267 174.449C298.223 175.716 298.228 177.523 297.666 178.558C297.161 179.493 298.812 180.31 299.322 179.37Z" fill="#421B36"/>
<path d="M233.722 162.66C231.841 169.06 224.129 172.971 216.495 171.393C208.862 169.816 204.199 163.349 206.08 156.948C207.961 150.548 215.674 146.637 223.307 148.215C230.94 149.791 235.604 156.259 233.722 162.66Z" fill="#421B36"/>
<path d="M14.0254 98.1715C12.3462 84.1173 11.1457 66.2808 14.9688 61.1141C19.1223 55.4997 88.8734 43.9134 102.814 41.6468C142.639 35.1751 192.063 28.5732 206.523 29.3796C209.313 29.5347 210.684 29.9386 211.108 30.7296C214.432 36.9349 215.462 51.0495 215.656 54.2764L254.736 52.8625L261.221 83.2387L259.713 83.4648L253.463 54.1959L214.195 55.6182L214.162 54.9739C214.155 54.8046 213.277 37.913 209.711 31.2578C209.654 31.1879 208.923 30.5023 202.541 30.6088C163.967 31.2069 21.2195 55.1042 16.2723 61.7914C13.5071 65.5288 13.2444 78.7422 15.5521 98.0436L14.0254 98.1715Z" fill="#421B36"/>
<path d="M22.1878 63.5449C24.0237 65.0796 26.6096 65.8801 29.0571 66.4556C32.8039 67.3367 36.7187 67.7275 40.587 67.9999C51.9035 68.7968 63.3473 68.4416 74.6709 67.9383C105.282 66.5788 135.78 63.4928 166.209 60.4825C182.443 58.8767 198.672 57.2141 214.926 55.748C216.139 55.6391 216.152 54.0309 214.926 54.1422C185.245 56.8209 155.641 60.0692 125.954 62.6958C111.229 63.9984 96.4836 65.1814 81.7069 65.9843C69.67 66.638 57.5513 67.1306 45.4904 66.6581C40.8299 66.4758 36.1256 66.1726 31.5611 65.3223C28.8057 64.8096 25.6083 64.1358 23.5422 62.408C22.668 61.6785 21.3136 62.8142 22.1878 63.5449Z" fill="#421B36"/>
<path d="M206.15 42.2813C206.15 44.7266 203.786 47.4634 200.868 47.4634C197.952 47.4634 194.725 44.7882 194.725 42.3428C194.725 39.8974 197.952 37.8535 200.868 37.8535C203.786 37.8535 206.15 39.8359 206.15 42.2813Z" fill="#8380FF"/>
<path d="M245.874 71.153C245.874 74.4001 242.734 78.0321 238.862 78.0321C234.989 78.0321 230.706 74.4807 230.706 71.2336C230.706 67.9864 234.989 65.2734 238.862 65.2734C242.734 65.2734 245.874 67.9071 245.874 71.153Z" fill="#8380FF"/>
<g opacity="0.2">
<path d="M229.919 160.844C229.085 162.757 232.013 164.394 233.708 162.595C233.901 160.432 232.098 159.716 229.919 160.844Z" fill="#421B36"/>
<path d="M226.133 172.058C225.616 173.807 227.127 175.806 229.326 174.329C229.469 173.667 229.41 172.834 229.363 172.161C228.323 171.404 227.333 171.108 226.133 172.058Z" fill="#421B36"/>
<path d="M225.26 176.716C225.279 176.681 225.295 176.654 225.315 176.617C224.796 174.738 222.354 174.81 221.533 176.281C221.667 176.311 221.794 176.353 221.93 176.381C223.044 176.61 224.159 176.71 225.26 176.716Z" fill="#421B36"/>
<path d="M233.236 170.782C233.583 170.103 233.885 169.512 234.209 168.883C233.856 168.555 233.538 168.259 233.182 167.929C228.92 167.377 229.411 171.336 233.236 170.782Z" fill="#421B36"/>
<path d="M226.97 166.455C227.052 166.727 226.664 167.05 227.159 167.315C228.279 167.199 229.067 166.65 229.67 165.719C228.925 164.376 229.159 164.449 227.312 163.849C225.583 164.47 225.137 165.707 226.97 166.455Z" fill="#421B36"/>
<path d="M217.183 172.109C217.329 172.863 216.943 174.648 218.352 174.45C219.739 174.013 220.966 173.581 220.568 172.116C219.177 171.334 218.225 170.55 217.183 172.109Z" fill="#421B36"/>
<path d="M228.671 159.541C230.398 158.081 229.095 155.651 226.708 157.08C226.382 157.612 226.108 158.057 225.834 158.501C226.588 159.837 226.611 159.844 228.671 159.541Z" fill="#421B36"/>
<path d="M218.09 163.919C216.911 165.453 216.953 167.223 219.715 167.092C220.906 165.451 220.91 163.594 218.09 163.919Z" fill="#421B36"/>
<path d="M230.832 175.692C230.798 175.731 230.784 175.775 230.753 175.816C231.216 175.656 231.668 175.474 232.107 175.274C231.636 175.18 231.199 175.235 230.832 175.692Z" fill="#421B36"/>
<path d="M237.028 171.581C236.6 171.398 236.13 171.337 235.546 171.574C235.268 172.233 234.99 172.894 234.643 173.71C234.667 173.729 234.695 173.738 234.72 173.756C235.587 173.12 236.36 172.388 237.028 171.581Z" fill="#421B36"/>
<path d="M234.762 164.813C233.977 165.821 234.76 166.856 236.167 167.072C236.788 166.763 237.478 166.655 237.804 166.264C237.804 165.587 237.804 165.037 237.804 164.479C236.778 163.751 235.879 164.604 234.762 164.813Z" fill="#421B36"/>
<path d="M212.578 161.235C212.098 163.046 215.081 163.954 216.153 162.208C215.983 160.632 213.541 159.462 212.578 161.235Z" fill="#421B36"/>
<path d="M229.811 154.602C230.706 155.065 231.597 155.526 232.497 155.989C232.943 155.688 233.187 155.326 233.386 154.959C232.548 154.476 231.638 154.065 230.665 153.735C230.387 153.953 230.106 154.233 229.811 154.602Z" fill="#421B36"/>
<path d="M218.24 157.062C218.038 157.922 216.934 158.466 216.979 159.529C217.494 159.682 217.993 159.831 218.46 159.971C220.98 158.9 221.285 157.612 218.24 157.062Z" fill="#421B36"/>
<path d="M221.785 153.824C221.598 154.448 222.044 154.95 222.237 155.615C223.356 155.718 224.313 155.835 225.06 154.976C224.432 154.486 224.325 154.094 224.538 153.377C224.164 153.234 223.791 153.095 223.452 152.967C223.383 152.975 223.314 152.977 223.244 152.986C222.713 153.292 222.253 153.557 221.785 153.824Z" fill="#421B36"/>
<path d="M224.36 162.873C224.398 162.122 224.436 161.438 224.473 160.714C222.796 159.234 220.881 161.142 222.217 162.647C222.971 162.782 223.627 163.395 224.36 162.873Z" fill="#421B36"/>
<path d="M221.252 169.373C222.145 170.373 224.06 170.802 224.842 169.495C224.423 168.239 224.423 168.239 223.249 167.572C222.831 168.419 221.719 168.617 221.252 169.373Z" fill="#421B36"/>
<path d="M214.516 167.779C213.947 168.268 213.411 168.731 212.912 169.162C213.764 170.845 215.711 170.755 216.465 169.09C215.872 168.588 215.457 167.963 214.516 167.779Z" fill="#421B36"/>
<path d="M235.371 158.662C235.471 159.694 236.808 159.296 237.515 158.611C237.063 157.986 236.54 157.398 235.958 156.849C235.426 156.751 235.207 157.228 235.371 158.662Z" fill="#421B36"/>
<path d="M211.119 164.42C211.116 164.421 211.115 164.421 211.11 164.421C211.092 164.911 211.119 165.396 211.171 165.877C211.404 165.556 211.451 165.071 211.119 164.42Z" fill="#421B36"/>
<path d="M269.696 201.597C270.71 201.475 271.706 201.356 272.683 201.237C272.642 201.204 272.598 201.163 272.56 201.134C271.199 200.81 269.678 200.713 268.827 199.588C269.406 197.989 269.164 196.633 266.842 197.044C261.769 201.767 268.474 199.72 269.696 201.597Z" fill="#421B36"/>
<path d="M260.824 201.227C260.624 201.757 260.667 202.22 260.822 202.66C262.23 202.493 263.623 202.326 264.995 202.162C264.477 200.777 262.566 200.256 260.824 201.227Z" fill="#421B36"/>
<path d="M269.488 183.999L265.716 184.437C265.908 184.787 266.261 185.183 266.822 185.628C268.063 186.312 269.197 185.178 269.488 183.999Z" fill="#421B36"/>
<path d="M229.321 202.12C228.984 201.716 228.607 201.27 228.22 200.811C227.427 200.983 226.106 200.911 225.868 201.639C226.341 202.509 224.981 203.784 226.622 204.087C227.394 204.422 229.196 204.267 228.94 203.287C228.691 202.809 229.461 202.609 229.321 202.12Z" fill="#421B36"/>
<path d="M278.519 186.086C277.262 188.343 281.989 190.407 282.377 187.495C281.767 186.129 280.174 185.478 278.519 186.086Z" fill="#421B36"/>
<path d="M250.058 189.654C248.988 190.094 247.768 190.3 247.533 191.531C247.869 191.934 248.166 192.49 248.609 192.861C250.022 193.476 250.965 192.405 251.747 191.585C252.055 190.724 250.652 190.235 250.058 189.654Z" fill="#421B36"/>
<path d="M225.08 199.423C224.483 198.762 224.782 197.749 223.679 197.424C222.531 197.555 221.595 197.945 221.05 198.834C221.465 200.949 225.226 201.303 225.08 199.423Z" fill="#421B36"/>
<path d="M260.241 190.382C258.527 189.131 256.3 189.953 256.776 191.915C257.181 192.028 257.612 192.149 258.04 192.268C257.964 192.61 257.909 192.853 257.833 193.197C260.296 193.305 260.324 191.817 260.241 190.382Z" fill="#421B36"/>
<path d="M274.545 185.051C275.295 185.348 275.939 185.603 276.641 185.881C277.175 185.434 277.711 184.982 278.22 184.556C277.963 184.047 277.735 183.598 277.467 183.072L274.425 183.425C274.407 183.446 274.394 183.462 274.374 183.483C274.648 183.992 274.668 184.531 274.545 185.051Z" fill="#421B36"/>
<path d="M284.901 182.29C282.987 182.729 283.051 184.122 283.742 185.454C286.651 186.4 288.146 182.945 284.901 182.29Z" fill="#421B36"/>
<path d="M266.79 189.632C264.942 190.044 265.014 192.335 266.689 192.661C270.077 192.866 269.731 190.175 266.79 189.632Z" fill="#421B36"/>
<path d="M216.581 206.344C215.775 205.707 215.112 205.186 214.395 204.62C212.252 204.933 212.011 206.875 213.559 207.867C214.015 207.829 214.49 207.789 214.999 207.743C215.628 207.41 216.044 206.843 216.581 206.344Z" fill="#421B36"/>
<path d="M208.519 203.665C209.793 204.243 211.399 204.44 211.818 202.925C212.153 200.115 207.341 200.565 208.519 203.665Z" fill="#421B36"/>
<path d="M289.793 186.066C287.46 186.358 287.028 187.761 288.132 188.969C288.715 189.604 289.591 189.201 290.316 188.999C292.318 188.371 290.518 186.959 289.793 186.066Z" fill="#421B36"/>
<path d="M276.92 199.938C276.913 199.938 276.91 199.943 276.903 199.943C276.9 199.932 276.894 199.929 276.892 199.919C276.659 200.041 276.169 199.93 276.308 199.712C276.596 199.659 276.807 199.661 276.892 199.919C276.913 199.909 276.942 199.908 276.958 199.892C276.945 199.911 276.933 199.919 276.92 199.938C277.596 199.932 277.661 199.286 277.935 198.906C277.591 198.374 277.281 197.894 276.923 197.34C272.275 196.427 274.974 202.734 276.92 199.938Z" fill="#421B36"/>
<path d="M204.499 197.628C204.57 198.44 204.663 199.282 204.781 200.122C204.988 200.226 205.238 200.3 205.546 200.334C209.096 199.365 206.729 195.876 204.499 197.628Z" fill="#421B36"/>
<path d="M237.657 204.093C237.884 203.595 238.077 203.174 238.301 202.689C236.41 197.917 231.625 203.888 237.657 204.093Z" fill="#421B36"/>
<path d="M261.83 186.428C260.662 187.309 260.791 189.132 262.579 189.241C266.091 189.251 264.416 185.103 261.83 186.428Z" fill="#421B36"/>
<path d="M216.698 195.367C217.536 196.207 218.286 197.085 219.992 196.505C222.018 193.757 218.195 192.452 216.698 195.367Z" fill="#421B36"/>
<path d="M236.359 189.39C237.64 189.529 238.362 188.484 238.3 187.616L234.748 188.028C234.848 188.674 235.391 189.299 236.359 189.39Z" fill="#421B36"/>
<path d="M216.441 198.425C215.404 197.975 214.606 196.795 213.027 197.82C211.207 200.313 215.499 201.6 216.441 198.425Z" fill="#421B36"/>
<path d="M270.118 187.524C270.114 190.264 274.428 189.409 273.824 187.381C272.526 186.109 271.091 185.866 270.118 187.524Z" fill="#421B36"/>
<path d="M260.68 199.249C260.245 198.635 259.844 198.067 259.377 197.41C258.223 197.231 257.246 197.314 256.472 198.047C256.412 200.218 259.131 200.643 260.68 199.249Z" fill="#421B36"/>
<path d="M247.93 198.14C248.071 199.515 248.31 199.956 249.345 200.69C249.893 200.458 250.473 200.21 251.028 199.975C251.13 199.358 251.22 198.815 251.305 198.299C250.819 197.737 250.162 197.503 249.398 197.317C248.908 197.594 248.41 197.872 247.93 198.14Z" fill="#421B36"/>
<path d="M235.686 193.847C233.963 194.622 234.627 196.334 236.511 196.671C239.351 196.278 238.296 192.517 235.686 193.847Z" fill="#421B36"/>
<path d="M259.717 185.136L259.72 185.131L258.298 185.295C258.713 185.311 259.183 185.269 259.717 185.136Z" fill="#421B36"/>
<path d="M205.901 204.908C206.23 205.781 206.624 206.527 207.096 207.082C207.325 206.97 207.547 206.844 207.749 206.693C207.562 205.642 206.759 205.051 205.901 204.908Z" fill="#421B36"/>
<path d="M228.012 189.243C228.465 189.323 228.711 189.06 228.896 188.706L227.027 188.923C227.308 189.067 227.626 189.187 228.012 189.243Z" fill="#421B36"/>
<path d="M243.555 202.783C243.993 203.373 244.684 204.574 245.661 203.894C246.999 203.039 247.782 201.398 245.742 200.783C244.66 201.226 242.835 201.548 243.555 202.783Z" fill="#421B36"/>
<path d="M293.392 192.908L293.073 189.974C292.668 190.045 292.254 190.213 291.874 190.552C292.117 191.809 292.426 192.807 293.392 192.908Z" fill="#421B36"/>
<path d="M254.253 186.33C251.027 186.811 252.362 190.056 255.222 189.113C255.542 188.704 255.9 188.245 256.24 187.809C255.867 187.003 254.969 186.823 254.253 186.33Z" fill="#421B36"/>
<path d="M239.797 190.029C239.376 190.569 239.016 191.032 238.666 191.482C239.929 192.637 239.929 192.637 241.602 192.971C242.42 192.386 242.263 191.615 242.503 190.957C241.856 190.025 240.731 190.269 239.797 190.029Z" fill="#421B36"/>
<path d="M289.839 181.638L289.484 181.679C289.602 181.676 289.717 181.665 289.839 181.638Z" fill="#421B36"/>
<path d="M224.12 192.803C225.199 190.881 224.979 190.103 222.29 190.035C220.956 190.663 221.266 191.607 222.13 192.323C222.472 193.108 222.744 193.112 224.12 192.803Z" fill="#421B36"/>
<path d="M223.324 204.59C221.879 204.996 221.498 206.12 222.037 207.059C222.914 206.969 223.822 206.874 224.76 206.775C225.134 205.948 224.743 205.085 223.324 204.59Z" fill="#421B36"/>
<path d="M261.304 194.241C260.705 198.315 266.667 196.525 263.885 193.55C263.008 194.097 262.042 193.713 261.304 194.241Z" fill="#421B36"/>
<path d="M288.436 193.76C286.182 197.256 291.848 197.654 290.994 194.074C289.614 193.656 289.614 193.656 288.436 193.76Z" fill="#421B36"/>
<path d="M240.186 205.069C240.519 205.031 240.852 204.993 241.187 204.954C240.92 204.913 240.584 204.954 240.186 205.069Z" fill="#421B36"/>
<path d="M252.196 202.702C252.595 202.976 253.094 203.19 253.438 203.531C254.121 203.451 254.803 203.37 255.484 203.29C256.614 201.57 253.699 199.578 252.196 202.702Z" fill="#421B36"/>
<path d="M293.877 197.35C293.546 197.32 293.196 197.352 292.814 197.493C292.317 198.071 292.322 198.463 292.511 198.817C293.481 198.698 294.015 198.631 294.015 198.631L293.877 197.35Z" fill="#421B36"/>
<path d="M216.505 191.511C216.246 190.869 215.577 190.641 215.046 190.312L213.364 190.508C213.23 190.687 213.093 190.929 212.878 191.314C213.65 194.135 214.979 192.869 216.505 191.511Z" fill="#421B36"/>
<path d="M232.957 204.849C232.496 204.736 232.043 204.624 231.597 204.515C230.934 205.175 230.642 205.712 230.562 206.148C231.547 206.04 232.554 205.927 233.575 205.814C233.468 205.526 233.287 205.21 232.957 204.849Z" fill="#421B36"/>
<path d="M239.415 198.17C239.936 198.766 239.683 199.38 240.08 199.877C241.754 200.668 243.44 199.191 242.593 197.818C240.846 197.101 240.635 197.124 239.415 198.17Z" fill="#421B36"/>
<path d="M247.044 195.578C246.875 193.803 244.967 193.252 243.762 194.766C242.618 196.468 246.145 197.495 247.044 195.578Z" fill="#421B36"/>
<path d="M204.269 191.635C204.269 191.635 204.265 191.856 204.265 192.234C204.483 192.444 204.76 192.622 205.151 192.711C206.173 192.42 207.008 191.805 207.208 191.223L203.861 191.611C203.867 191.629 203.881 191.645 203.887 191.663L204.269 191.635Z" fill="#421B36"/>
<path d="M278.544 195.393C279.123 196.166 279.883 196.517 281.158 196.58C284.899 193.419 279.033 193.332 278.544 195.393Z" fill="#421B36"/>
<path d="M217.396 203.275C217.954 203.526 218.528 203.785 219.299 204.131C220.123 203.286 221.111 202.356 220.004 201.426C217.863 201.192 217.067 201.228 217.396 203.275Z" fill="#421B36"/>
<path d="M285.373 193C287.951 190.914 284.773 188.4 283.071 190.956C284.084 191.471 283.849 192.83 285.373 193Z" fill="#421B36"/>
<path d="M277.94 191.48C277.214 190.3 277.214 190.3 275.638 189.959C275.326 190.24 274.966 190.564 274.637 190.86C274.665 192.805 277.261 193.47 277.94 191.48Z" fill="#421B36"/>
<path d="M228.055 193.646C227.255 194.048 226.539 194.406 225.811 194.771C225.811 195.047 225.811 195.294 225.811 195.52C227.301 196.618 229.574 196.818 229.348 194.64C228.933 194.32 228.501 193.989 228.055 193.646Z" fill="#421B36"/>
<path d="M270.598 196.575C275.556 195.749 271.617 191.217 269.899 195.498C270.138 195.868 270.363 196.213 270.598 196.575Z" fill="#421B36"/>
<path d="M233.855 198.373C232.609 197.472 230.372 197.973 230.556 199.381C231.506 201.399 233.502 200.048 233.855 198.373Z" fill="#421B36"/>
<path d="M245.379 189.28C245.772 189.09 246.172 188.893 246.735 188.616C246.006 187.923 246.738 187.19 245.711 186.757L244.401 186.908C244.048 187.052 243.703 187.223 243.396 187.472C243.587 188.395 244.094 189.009 245.379 189.28Z" fill="#421B36"/>
<path d="M208.65 194.09C208.631 194.868 208.459 195.653 209.187 196.388C212.949 195.769 212.076 193.546 208.65 194.09Z" fill="#421B36"/>
<path d="M233.793 191.326C232.864 190.546 231.868 190.385 230.608 190.701C229.662 192.957 233.451 193.566 233.793 191.326Z" fill="#421B36"/>
<path d="M286.599 198.118C285.687 198 284.995 197.461 283.943 197.789C283.858 198.315 283.788 198.753 283.723 199.159C284.042 199.428 284.321 199.626 284.583 199.79C285.215 199.713 285.826 199.638 286.406 199.566C286.534 199.221 286.599 198.745 286.599 198.118Z" fill="#421B36"/>
<path d="M252.501 194.6C252.96 195.191 253.207 195.636 253.37 196.284C255.039 196.402 255.203 196.323 255.82 195.12C254.532 193.802 254.19 193.733 252.501 194.6Z" fill="#421B36"/>
<path d="M292.348 183.304C292.272 183.602 292.3 183.876 292.436 184.109L292.348 183.304Z" fill="#421B36"/>
</g>
</svg>
