<svg width="226" height="221" viewBox="0 0 226 221" fill="none" xmlns="http://www.w3.org/2000/svg">
<path d="M207.795 78.3894C207.795 78.3894 211.429 71.0967 203.73 69.9475C196.029 68.7982 -0.189382 71.7651 0.713064 84.6832C1.61551 97.6024 207.795 78.3894 207.795 78.3894Z" fill="#8380FF"/>
<path d="M52.4124 0.588531C50.2696 0.14684 8.99748 90.3576 13.676 94.8635C20.1255 101.076 150.915 156.797 155.196 154.778C159.478 152.759 193.208 68.862 193.715 64.5595C194.329 59.3619 75.2277 5.29142 52.4124 0.588531Z" fill="#8380FF"/>
<path d="M98.8752 111.869C98.8752 111.869 94.9031 119.455 95.9687 120.705C97.0343 121.955 149.558 143.377 150.285 142.461C151.013 141.545 153.634 133.792 153.316 133.177C152.998 132.56 99.8634 109.82 98.8752 111.869Z" fill="#A0D2F4"/>
<path d="M83.9802 106.629C83.9802 106.629 80.5145 113.92 81.0738 115.463C81.4434 116.482 89.7296 119.288 90.4573 118.373C91.185 117.458 93.7144 110.679 93.3966 110.064C93.0767 109.448 84.6761 106.116 83.9802 106.629Z" fill="#A0D2F4"/>
<path d="M193.717 64.5612C194.038 61.8454 161.67 45.7857 127.436 30.3975C122.968 31.7914 118.537 33.466 115.081 36.5695C110.992 40.2417 108.692 46.525 111.26 51.3857C113.018 54.7137 116.576 56.6553 120.057 58.0831C135.155 64.2763 152.085 64.3313 167.629 69.298C169.009 69.7386 170.476 70.2926 171.272 71.5022C172.781 73.7922 171.076 76.7622 170.853 79.495C170.569 82.9628 172.867 86.2316 175.797 88.1085C178.206 89.6517 180.993 90.4335 183.798 91.0647C189.359 77.1425 193.54 66.0547 193.717 64.5612Z" fill="#A0D2F4"/>
<path d="M55.3845 20.3398C55.3845 20.3398 47.6735 36.0977 48.488 38.6292C49.0261 40.2996 76.4861 51.3503 77.7169 49.9119C78.9466 48.4735 85.0424 33.0101 84.5636 31.9954C84.0848 30.9796 56.5412 19.5507 55.3845 20.3398Z" fill="#A0D2F4"/>
<path d="M52.0652 23.473C55.014 24.3902 57.8643 25.585 60.5706 27.0753C62.7685 28.286 65.4282 29.6958 66.5763 32.0536C67.6472 34.2525 66.7257 37.087 64.5331 38.2108C62.1213 39.4459 58.9744 38.4015 56.5403 37.749C53.1721 36.8466 49.898 35.6295 46.7501 34.1297C46.1251 33.832 45.5585 34.7588 46.1897 35.0597C49.3716 36.5765 52.6742 37.8253 56.0764 38.7478C58.7583 39.4755 62.008 40.4849 64.7111 39.3251C66.9471 38.3655 68.3643 35.8456 68.0974 33.4391C67.7955 30.7158 65.5298 28.8326 63.3606 27.4577C59.9457 25.2937 56.2152 23.6276 52.3586 22.4275C51.6923 22.2199 51.3968 23.2654 52.0652 23.473Z" fill="#8380FF"/>
<path d="M67.5874 36.2211C72.1918 38.1531 76.7952 40.084 81.3995 42.016C82.0414 42.2851 82.3306 41.2375 81.6929 40.9706C77.0886 39.0386 72.4852 37.1077 67.8809 35.1757C67.2379 34.9066 66.9487 35.9531 67.5874 36.2211Z" fill="#8380FF"/>
<path d="M43.4786 51.3549C43.3854 51.4323 43.2731 51.4778 43.1428 51.4916C43.0115 51.5064 42.8918 51.4884 42.7827 51.4397C42.6037 51.3613 42.4755 51.2342 42.3982 51.0584C42.3209 50.8825 42.322 50.7046 42.4014 50.5256C42.4279 50.4663 42.4607 50.4101 42.502 50.3572C42.5433 50.3042 42.5889 50.2597 42.6418 50.2227C43.3611 49.7195 44.0527 49.4124 44.719 49.3011C45.3841 49.1899 46.08 49.2927 46.8067 49.6115C47.5237 49.9261 48.0629 50.3709 48.4283 50.9461C48.7927 51.5212 48.9907 52.1578 49.0236 52.8537C49.0554 53.5507 48.9261 54.2328 48.6338 54.8991C48.3986 55.4361 48.0375 55.9339 47.5513 56.3915C47.0662 56.8491 46.5027 57.2664 45.8629 57.6435C45.2221 58.0206 44.5484 58.3542 43.8398 58.6423C43.1323 58.9315 42.4353 59.1804 41.751 59.3891C42.1472 59.5405 42.5264 59.71 42.8886 59.8975C43.2509 60.086 43.5983 60.2809 43.933 60.48C44.2656 60.6802 44.5897 60.8751 44.9033 61.0658C45.2168 61.2565 45.5314 61.4397 45.847 61.6134C46.0514 61.7151 46.1785 61.8506 46.2294 62.0201C46.2792 62.1917 46.2675 62.3612 46.1934 62.5296C46.1192 62.6991 46.0006 62.8315 45.8406 62.9268C45.6796 63.0211 45.4922 63.0168 45.2772 62.912C44.8524 62.6895 44.4234 62.4449 43.9892 62.1769C43.5549 61.91 43.1174 61.6462 42.68 61.3878C42.2415 61.1304 41.7934 60.9016 41.3358 60.7004C40.659 60.4038 40.1305 60.2428 39.7502 60.2173C39.622 60.2099 39.4928 60.1962 39.3583 60.1792C39.2227 60.1612 39.1009 60.1284 38.9929 60.0807C38.7927 59.9928 38.6613 59.8678 38.5978 59.7036C38.5332 59.5384 38.5448 59.3573 38.6317 59.1581C38.6762 59.0586 38.7334 58.9685 38.8043 58.8859C38.8764 58.8044 38.9759 58.7514 39.1062 58.7249C39.9567 58.5173 40.8105 58.2748 41.6674 57.9983C42.5243 57.7229 43.3293 57.402 44.0813 57.0376C44.8344 56.6743 45.4922 56.257 46.0546 55.7856C46.617 55.3153 47.0291 54.7815 47.2907 54.1841C47.3956 53.9447 47.4718 53.6704 47.5195 53.359C47.5672 53.0476 47.5608 52.7372 47.5015 52.4258C47.4422 52.1155 47.3087 51.8231 47.1032 51.5477C46.8967 51.2734 46.5906 51.0478 46.1817 50.8688C45.7443 50.6771 45.2973 50.6114 44.8439 50.6728C44.3906 50.7343 43.9351 50.962 43.4786 51.3549Z" fill="#421B36"/>
<path d="M52.3459 55.4054C52.1764 55.3312 52.0599 55.2062 51.9953 55.0283C51.9296 54.8525 51.9391 54.6692 52.0217 54.4807C52.0779 54.3515 52.1774 54.2339 52.3183 54.1301C52.4592 54.0252 52.6319 53.9288 52.8373 53.8409C53.3278 53.6418 53.7885 53.5115 54.2185 53.4501C54.6486 53.3897 55.0511 53.3854 55.426 53.4373C55.801 53.4892 56.1368 53.5814 56.4355 53.7117C57.0721 53.9913 57.5731 54.3419 57.9406 54.7635C58.3071 55.1851 58.5602 55.6437 58.699 56.1373C58.8388 56.6319 58.8823 57.1351 58.8303 57.6456C58.7774 58.1572 58.6534 58.636 58.4564 59.084C58.2944 59.4516 58.0741 59.7735 57.7934 60.0479C57.5127 60.3233 57.16 60.5383 56.7352 60.6951C57.0795 61.0721 57.3188 61.4736 57.4523 61.8994C57.5858 62.3262 57.6398 62.751 57.6144 63.1736C57.59 63.5952 57.4947 63.9945 57.3284 64.3737C57.0795 64.9404 56.7204 65.4149 56.2501 65.7962C55.7798 66.1775 55.2206 66.4053 54.5691 66.4826C53.9188 66.5599 53.1954 66.4222 52.3999 66.0737C51.7633 65.7941 51.1511 65.3905 50.5653 64.8599C49.9785 64.3303 49.5273 63.6566 49.2085 62.841C49.1301 62.6408 49.1322 62.4459 49.2159 62.2563C49.2678 62.1367 49.3419 62.0413 49.4383 61.9714C49.5337 61.9015 49.6438 61.8602 49.7678 61.8496C49.8906 61.838 50.0071 61.857 50.1162 61.9047C50.2264 61.9523 50.3259 62.0222 50.4149 62.1165C50.505 62.2097 50.5876 62.3559 50.667 62.5561C50.7984 62.8516 50.971 63.1408 51.185 63.4236C51.3989 63.7074 51.6553 63.968 51.954 64.2053C52.2537 64.4425 52.5821 64.6417 52.9401 64.7984C53.457 65.0262 53.9145 65.1098 54.3139 65.0537C54.7121 64.9976 55.0479 64.845 55.3233 64.5983C55.5987 64.3504 55.8074 64.0633 55.9514 63.735C56.1961 63.1768 56.2374 62.662 56.0775 62.1896C55.9175 61.7151 55.6432 61.3285 55.2523 61.0266C54.9017 61.0149 54.5564 60.9694 54.2164 60.8931C53.8775 60.8147 53.5692 60.7184 53.2928 60.604C53.0174 60.4885 52.7865 60.372 52.6011 60.2555C52.4751 60.1644 52.3734 60.0701 52.2993 59.9716C52.2241 59.8731 52.1806 59.7682 52.17 59.657C52.1584 59.5458 52.1753 59.4399 52.2198 59.3414C52.2897 59.1825 52.4147 59.0649 52.5958 58.9897C52.777 58.9156 53.0068 58.8976 53.2864 58.9368C53.4962 58.9707 53.708 59.0099 53.9199 59.0554C54.1306 59.101 54.3372 59.1581 54.5374 59.2281C54.7376 59.298 54.9325 59.3742 55.122 59.4579C55.3106 59.5405 55.4907 59.6316 55.6612 59.7301C55.8921 59.6644 56.1463 59.5352 56.4291 59.3371C56.7109 59.1401 56.9322 58.8584 57.0943 58.4909C57.2553 58.1233 57.3337 57.7091 57.3273 57.2494C57.321 56.7897 57.2002 56.3512 56.9619 55.9318C56.7236 55.5134 56.337 55.1861 55.7999 54.9499C55.4716 54.8059 55.0733 54.7593 54.6073 54.809C54.1402 54.8588 53.6625 55.0209 53.1752 55.2931C52.9867 55.399 52.832 55.4605 52.7134 55.4721C52.598 55.4827 52.4751 55.4615 52.3459 55.4054Z" fill="#421B36"/>
<path d="M63.394 58.4551C63.2097 58.3619 63.0963 58.221 63.0561 58.0304C63.0148 57.8408 63.0338 57.6554 63.1122 57.4764C63.1821 57.3175 63.3008 57.1936 63.4692 57.1078C63.6386 57.0209 63.8198 57.0273 64.0136 57.1248C64.4627 57.3461 64.9425 57.577 65.4541 57.8185C65.9647 58.0611 66.4689 58.2909 66.9667 58.5091C67.4635 58.7273 67.903 58.9169 68.2833 59.0779C68.6635 59.2389 68.94 59.3523 69.1137 59.4158C69.351 59.4963 69.4908 59.6319 69.5321 59.8215C69.5723 60.0121 69.5543 60.1965 69.4759 60.3744C69.3976 60.5534 69.2779 60.6826 69.12 60.761C68.9612 60.8394 68.7673 60.8404 68.5396 60.7652C68.3659 60.7017 68.0884 60.5915 67.706 60.4348C67.3236 60.2791 66.8872 60.0905 66.3968 59.8691C65.9064 59.6478 65.4012 59.4147 64.88 59.1669C64.3579 58.9211 63.8632 58.6839 63.394 58.4551ZM63.0921 57.522C63.1609 57.3387 63.2933 57.2126 63.4893 57.1438C63.6853 57.076 63.878 57.0824 64.0666 57.1661C64.2954 57.2667 64.4288 57.4139 64.4691 57.6088C64.5072 57.8048 64.4574 58.0611 64.3176 58.3799C64.2 58.649 64.0496 58.9625 63.8685 59.3226C63.6863 59.6817 63.4978 60.0524 63.2997 60.4348C63.1027 60.8172 62.9141 61.172 62.7341 61.5025C62.554 61.8329 62.4025 62.0956 62.2807 62.2916L61.7956 61.9367C62.2511 61.7916 62.7595 61.7397 63.3241 61.7789C63.8886 61.8191 64.4288 61.9515 64.9468 62.1793C65.6734 62.4981 66.2475 62.9472 66.6712 63.5234C67.0938 64.1017 67.3459 64.7426 67.4274 65.4491C67.5101 66.1545 67.3935 66.8663 67.0789 67.5823C66.8427 68.1204 66.5208 68.5896 66.114 68.9921C65.7052 69.3957 65.2508 69.7081 64.7487 69.9327C64.2466 70.1572 63.7276 70.2801 63.1906 70.2992C62.6536 70.3193 62.1367 70.2197 61.6399 70.0015C61.1421 69.7833 60.7046 69.5048 60.3244 69.1669C59.9452 68.8279 59.6391 68.4424 59.4082 68.0081C59.1773 67.5749 59.0258 67.1163 58.9527 66.6333C58.9474 66.5369 58.9485 66.4489 58.9538 66.3663C58.9591 66.2869 58.976 66.2159 59.0014 66.1577C59.0544 66.038 59.1275 65.9448 59.2217 65.8791C59.3149 65.8134 59.4241 65.7753 59.548 65.7647C59.6709 65.7531 59.7937 65.7743 59.9134 65.8262C60.0225 65.8738 60.1178 65.9607 60.1994 66.0857C60.2809 66.2106 60.335 66.3791 60.3604 66.592C60.4197 66.9976 60.6167 67.4012 60.9514 67.8016C61.284 68.2041 61.6759 68.5017 62.124 68.6987C62.5816 68.9 63.0444 68.954 63.5115 68.8629C63.9786 68.7718 64.4066 68.5589 64.7964 68.2252C65.1851 67.8916 65.4986 67.4563 65.7338 66.9192C65.935 66.4617 66.0039 66.0051 65.9424 65.5507C65.8799 65.0963 65.7105 64.6811 65.4308 64.303C65.1512 63.927 64.7731 63.6325 64.2954 63.4228C64.0761 63.3264 63.8198 63.2491 63.5243 63.1919C63.2287 63.1336 62.9417 63.0987 62.662 63.0881C62.3814 63.0785 62.1473 63.0976 61.9609 63.1453C61.7872 63.1887 61.6336 63.2427 61.498 63.3073C61.3624 63.373 61.2109 63.3677 61.0415 63.2936C60.8519 63.2109 60.7301 63.0648 60.6729 62.8561C60.6157 62.6464 60.6443 62.442 60.7555 62.2418C61.0394 61.7026 61.2904 61.2302 61.5086 60.8277C61.7268 60.4252 61.9259 60.0534 62.106 59.7103C62.286 59.3681 62.4544 59.0239 62.6123 58.6775C62.768 58.3343 62.929 57.9467 63.0921 57.522Z" fill="#421B36"/>
<path d="M76.5037 76.7195C75.6182 76.3308 74.9297 75.8244 74.4393 75.1985C73.9478 74.5746 73.6735 73.866 73.6173 73.0758C73.5601 72.2856 73.7285 71.4436 74.1215 70.5475C74.4446 69.8103 74.8788 69.1324 75.4243 68.5117C75.9688 67.891 76.5852 67.3518 77.2726 66.8943C77.9601 66.4356 78.6846 66.0766 79.444 65.8181C80.2045 65.5586 80.9661 65.4114 81.7277 65.3785C82.4903 65.3446 83.2169 65.4442 83.9107 65.6762C84.0876 65.7313 84.22 65.8573 84.3047 66.0554C84.3905 66.2524 84.3937 66.4409 84.3143 66.621C84.2444 66.7799 84.1226 66.8815 83.9499 66.9239C83.7772 66.9663 83.4923 66.9663 83.0962 66.9229C82.395 66.8169 81.7298 66.8074 81.0985 66.8921C80.4672 66.9769 79.8487 67.1654 79.2396 67.4556C78.6316 67.7469 77.9982 68.1568 77.3383 68.6864C77.7927 68.6239 78.2662 68.625 78.7619 68.6875C79.2565 68.751 79.6877 68.8623 80.0552 69.0243C80.7214 69.3167 81.2553 69.7499 81.6567 70.3229C82.0571 70.897 82.2954 71.5378 82.3706 72.2475C82.4448 72.9561 82.3314 73.6541 82.0296 74.3405C81.7859 74.8976 81.4597 75.3775 81.0519 75.78C80.6441 76.1835 80.1855 76.4907 79.676 76.7057C79.1665 76.9207 78.639 77.033 78.0946 77.0436C77.5512 77.0542 77.0206 76.9462 76.5037 76.7195ZM77.0513 75.4293C77.5088 75.6306 77.9707 75.6931 78.4367 75.619C78.9028 75.5448 79.3296 75.3489 79.7173 75.0332C80.105 74.7176 80.41 74.3066 80.6335 73.7992C80.8528 73.3014 80.946 72.8237 80.9153 72.3651C80.8856 71.9064 80.7416 71.4997 80.4821 71.1417C80.2236 70.7847 79.8561 70.5009 79.3784 70.2922C79.0193 70.1354 78.6517 70.0274 78.2736 69.9681C77.8955 69.9098 77.5152 69.9056 77.1307 69.9564C76.7473 70.0073 76.3522 70.1153 75.9476 70.2816C75.92 70.3176 75.8713 70.3939 75.8025 70.5115C75.7326 70.629 75.6648 70.7519 75.598 70.8758C75.5313 71.0019 75.4805 71.1035 75.4444 71.183C75.1871 71.7698 75.0822 72.3407 75.1288 72.8957C75.1765 73.4507 75.365 73.9475 75.6934 74.3881C76.0217 74.8288 76.4751 75.1762 77.0513 75.4293Z" fill="#421B36"/>
<path d="M86.0805 68.606C85.9439 68.5106 85.8602 68.3846 85.8284 68.2278C85.7966 68.0721 85.8146 67.9132 85.8845 67.7543C85.9407 67.6251 86.0212 67.5171 86.1239 67.4313C86.2267 67.3466 86.3453 67.2978 86.4819 67.2862C86.6175 67.2745 86.7605 67.3137 86.9109 67.4037C87.5369 67.7618 88.0686 68.0647 88.504 68.3157C88.9393 68.5668 89.3407 68.7871 89.7083 68.9777C90.0748 69.1684 90.4635 69.3527 90.8713 69.5317C91.2791 69.7107 91.7632 69.9173 92.3245 70.1524C92.5078 70.2223 92.6307 70.3494 92.691 70.5358C92.7514 70.7233 92.7451 70.9013 92.6698 71.0697C92.5999 71.2286 92.4495 71.3737 92.2207 71.5039C91.9909 71.6353 91.653 71.8588 91.2071 72.1713C90.8501 72.4181 90.3925 72.7718 89.8343 73.2326C89.2761 73.6934 88.6682 74.2336 88.0104 74.8532C87.3526 75.4718 86.6927 76.1528 86.0297 76.8943C85.3666 77.6347 84.7533 78.4163 84.1919 79.2372C84.0775 79.3898 83.9398 79.4735 83.7778 79.4915C83.6147 79.5095 83.4643 79.4872 83.3255 79.4268C83.1857 79.3665 83.0755 79.2733 82.994 79.1483C82.9124 79.0233 82.8711 78.8866 82.8711 78.7394C82.8711 78.5911 82.9188 78.4481 83.0141 78.3126C84.139 76.7778 85.4121 75.315 86.8336 73.9285C88.2551 72.5409 89.7888 71.325 91.4337 70.2785L91.5503 71.433C90.9147 71.1544 90.3714 70.9161 89.9244 70.7191C89.4763 70.5221 89.0675 70.3314 88.6989 70.1461C88.3281 69.9607 87.9426 69.7457 87.539 69.5042C87.1334 69.2605 86.6482 68.9619 86.0805 68.606Z" fill="#421B36"/>
<path d="M93.3754 84.1046C92.5693 83.7508 91.9179 83.3218 91.4201 82.8198C90.9233 82.3156 90.6013 81.7796 90.4541 81.2108C90.3058 80.6431 90.3587 80.069 90.6119 79.4917C90.9127 78.8054 91.4158 78.2758 92.1192 77.9019C92.8225 77.529 93.7503 77.2737 94.9006 77.1392C94.3393 76.4179 93.9971 75.7633 93.8753 75.1765C93.7546 74.5876 93.8277 73.986 94.0978 73.3695C94.3032 72.9024 94.6401 72.5423 95.1061 72.2902C95.5722 72.0381 96.1092 71.9099 96.7172 71.9025C97.3252 71.8972 97.9374 72.0285 98.5539 72.2997C99.1502 72.5613 99.6374 72.9172 100.016 73.3684C100.394 73.8186 100.638 74.309 100.75 74.8386C100.862 75.3682 100.808 75.8819 100.591 76.3787C100.363 76.8967 99.9457 77.2928 99.3398 77.5661C98.7329 77.8394 97.9893 77.9919 97.1112 78.0205C97.8357 78.8837 98.3282 79.7343 98.5888 80.5732C98.8504 81.4121 98.8409 82.1493 98.5613 82.7859C98.3611 83.2434 98.0709 83.6121 97.6938 83.8906C97.3167 84.1703 96.8877 84.3609 96.409 84.4668C95.9302 84.5706 95.4292 84.5908 94.9049 84.5272C94.3827 84.4637 93.8722 84.3238 93.3754 84.1046ZM96.4195 77.0037C97.232 76.9094 97.859 76.7791 98.3007 76.6107C98.7424 76.4423 99.0506 76.1595 99.2243 75.7612C99.3419 75.4922 99.3663 75.2168 99.2953 74.9297C99.2254 74.6437 99.0803 74.3779 98.861 74.1342C98.6418 73.8896 98.359 73.6915 98.0105 73.5379C97.6323 73.3716 97.2659 73.2795 96.9131 73.2604C96.5594 73.2414 96.2522 73.2932 95.9906 73.4161C95.7289 73.539 95.5446 73.7233 95.4355 73.9732C95.2428 74.4107 95.2343 74.8768 95.4101 75.3682C95.5859 75.8618 95.9217 76.4073 96.4195 77.0037ZM93.887 82.8166C94.3636 83.0263 94.8244 83.1481 95.2661 83.182C95.7078 83.2148 96.1007 83.1449 96.445 82.9691C96.7892 82.7933 97.0487 82.5073 97.2235 82.1101C97.411 81.6811 97.3538 81.1356 97.053 80.4694C96.7511 79.8032 96.2522 79.0617 95.5542 78.2461C94.5543 78.388 93.7662 78.5946 93.1921 78.8636C92.617 79.1337 92.2166 79.5278 91.9889 80.0447C91.8491 80.3624 91.8385 80.6918 91.9539 81.0339C92.0715 81.3761 92.295 81.7023 92.6276 82.0148C92.9591 82.3262 93.3796 82.5941 93.887 82.8166Z" fill="#421B36"/>
<path d="M112.035 78.4457C112.164 78.3122 112.3 78.2327 112.443 78.2063C112.584 78.1787 112.716 78.1925 112.835 78.2444C112.954 78.2963 113.06 78.3726 113.153 78.4732C113.245 78.5728 113.309 78.684 113.345 78.8069C113.38 78.9297 113.369 79.0547 113.312 79.1839C113.298 79.2146 113.273 79.2528 113.234 79.3004C113.195 79.3491 113.119 79.4318 113.009 79.5494C112.559 80.0048 112.125 80.4486 111.703 80.8808C111.283 81.3129 110.857 81.7409 110.429 82.1624C110 82.5861 109.556 83.0161 109.096 83.4557C108.637 83.8942 108.144 84.3613 107.62 84.8539C108.287 85.1706 108.944 85.4862 109.59 85.7987C110.236 86.1122 110.881 86.4279 111.524 86.7446C111.868 86.0656 112.204 85.4184 112.528 84.8009C112.852 84.1834 113.198 83.5521 113.564 82.906C113.671 82.7153 113.819 82.5935 114.009 82.5406C114.199 82.4876 114.379 82.4982 114.547 82.5723C114.796 82.6814 114.927 82.8403 114.943 83.049C114.959 83.2566 114.905 83.4716 114.785 83.6919C114.658 83.9567 114.51 84.2448 114.344 84.5562C114.176 84.8687 114.006 85.1907 113.83 85.5233C113.654 85.8559 113.484 86.1842 113.317 86.5094C113.151 86.8335 113 87.1259 112.862 87.3854C112.996 87.4564 113.134 87.522 113.273 87.5834C113.412 87.6438 113.544 87.7095 113.669 87.7752C113.833 87.8599 113.955 87.9817 114.035 88.1406C114.113 88.2995 114.113 88.4679 114.035 88.648C113.912 88.9265 113.745 89.0759 113.535 89.096C113.324 89.1172 113.105 89.0769 112.876 88.9763C112.775 88.9318 112.671 88.8799 112.561 88.8206C112.451 88.7602 112.344 88.7009 112.238 88.6427C112.106 88.917 111.975 89.1924 111.848 89.4688C111.721 89.7453 111.595 90.0186 111.47 90.2908C111.345 90.5619 111.224 90.8321 111.106 91.1C111.04 91.2494 110.955 91.3542 110.852 91.4157C110.747 91.4771 110.633 91.5068 110.509 91.5068C110.386 91.5047 110.264 91.4782 110.144 91.4262C109.984 91.3563 109.855 91.2399 109.753 91.0778C109.654 90.9147 109.646 90.7336 109.734 90.5355C109.856 90.2569 109.982 89.9762 110.111 89.6955C110.24 89.4138 110.371 89.1299 110.503 88.845C110.634 88.5579 110.767 88.2772 110.899 88.004L106.037 85.6567C105.832 85.5307 105.707 85.3962 105.664 85.2521C105.62 85.1081 105.63 84.9662 105.69 84.8274C105.739 84.7183 105.801 84.6145 105.88 84.5181C105.957 84.4217 106.042 84.3232 106.135 84.2205C106.19 84.1749 106.363 84.0097 106.654 83.7269C106.944 83.4451 107.312 83.0871 107.758 82.6539C108.203 82.2207 108.68 81.7546 109.191 81.2536C109.7 80.7537 110.205 80.2601 110.703 79.7728C111.203 79.2877 111.646 78.845 112.035 78.4457Z" fill="#421B36"/>
<path d="M118.787 82.9753C118.568 82.8789 118.437 82.7434 118.395 82.5718C118.353 82.3991 118.371 82.2222 118.449 82.0432C118.523 81.8738 118.641 81.7414 118.801 81.6471C118.962 81.5507 119.151 81.5518 119.37 81.6471C119.688 81.7869 120.095 81.968 120.591 82.1915C121.086 82.415 121.623 82.6713 122.203 82.9616C122.781 83.2507 123.365 83.5579 123.953 83.8809C124.54 84.204 125.089 84.5419 125.599 84.8967C125.735 84.9921 125.82 85.1149 125.854 85.2664C125.888 85.4189 125.871 85.5735 125.8 85.7335C125.779 85.7833 125.74 85.8394 125.681 85.903C125.624 85.9665 125.522 86.0566 125.377 86.1699C124.641 86.7366 123.854 87.335 123.015 87.9631C122.175 88.5912 121.326 89.2236 120.466 89.8612C119.605 90.4978 118.778 91.1164 117.986 91.718C117.194 92.3207 116.482 92.88 115.852 93.398C115.749 93.4954 115.633 93.5452 115.502 93.5462C115.371 93.5483 115.25 93.525 115.141 93.4774C115.071 93.4467 115.004 93.4096 114.942 93.364C114.878 93.3174 114.83 93.2698 114.794 93.2179C114.724 93.1045 114.683 92.9923 114.674 92.8811C114.663 92.7698 114.68 92.665 114.724 92.5643C114.811 92.3652 114.973 92.1746 115.207 91.9924C115.285 91.9204 115.506 91.7477 115.871 91.4734C116.234 91.2001 116.693 90.8558 117.249 90.4417C117.804 90.0275 118.413 89.5731 119.074 89.0806C119.736 88.587 120.406 88.086 121.085 87.5786C121.765 87.0702 122.411 86.5851 123.023 86.1233C123.634 85.6625 124.163 85.2622 124.608 84.9232L124.587 85.9464C123.938 85.5312 123.304 85.1583 122.685 84.8258C122.065 84.4953 121.437 84.1818 120.803 83.8841C120.164 83.5886 119.492 83.2857 118.787 82.9753Z" fill="#421B36"/>
<path d="M126.524 89.2707C126.461 89.2792 126.399 89.2781 126.338 89.2697C126.277 89.2601 126.222 89.2442 126.172 89.2231C126.052 89.1701 125.959 89.0843 125.892 88.9667C125.825 88.8481 125.788 88.721 125.785 88.5822C125.781 88.4445 125.802 88.3196 125.85 88.2115C125.894 88.112 125.96 88.0283 126.05 87.9605C126.138 87.8927 126.246 87.8503 126.371 87.8344C126.884 87.7741 127.353 87.7052 127.781 87.6247C128.208 87.5453 128.644 87.4341 129.092 87.2932C129.54 87.1523 130.045 86.9542 130.607 86.7032C130.71 86.6545 130.81 86.6312 130.902 86.6365C130.995 86.6418 131.091 86.6661 131.19 86.7096C131.489 86.8409 131.649 87.0241 131.67 87.2582C131.691 87.4934 131.641 87.6798 131.523 87.8164C131.183 88.2126 130.768 88.8089 130.276 89.6012C129.787 90.3945 129.301 91.3383 128.821 92.4325C128.594 92.9504 128.372 93.4694 128.155 93.9916C127.937 94.5128 127.713 95.0371 127.482 95.5645C127.334 95.9024 127.175 96.2573 127.006 96.6291C126.837 96.9998 126.674 97.3398 126.513 97.6501C126.41 97.8302 126.269 97.9552 126.091 98.0251C125.912 98.0939 125.718 98.0833 125.51 97.9922C125.34 97.9181 125.214 97.7857 125.132 97.595C125.049 97.4044 125.057 97.2243 125.155 97.0538C125.332 96.7043 125.512 96.3293 125.693 95.9278C125.875 95.5275 126.049 95.1377 126.215 94.7595C126.425 94.2829 126.629 93.7999 126.832 93.3127C127.034 92.8254 127.242 92.3392 127.456 91.8509C127.647 91.4124 127.847 90.9845 128.055 90.5651C128.263 90.1467 128.488 89.7325 128.733 89.3247C128.977 88.9159 129.238 88.5166 129.516 88.1278L129.951 88.5144C129.397 88.722 128.832 88.8894 128.254 89.0155C127.678 89.1415 127.101 89.2273 126.524 89.2707Z" fill="#421B36"/>
<path d="M137.976 93.8329C137.913 93.8403 137.853 93.8382 137.794 93.8233C137.734 93.8096 137.674 93.7895 137.615 93.763C137.495 93.7111 137.401 93.6274 137.332 93.5141C137.263 93.4018 137.226 93.2758 137.222 93.137C137.217 92.9982 137.239 92.8754 137.287 92.7652C137.335 92.6561 137.403 92.5671 137.493 92.4993C137.582 92.4326 137.689 92.3902 137.815 92.3733C137.974 92.3606 138.199 92.3352 138.49 92.296C138.78 92.2557 139.107 92.1996 139.474 92.1223C139.839 92.046 140.208 91.9496 140.578 91.8331C140.95 91.7166 141.289 91.5778 141.597 91.4179C141.701 91.3692 141.806 91.3459 141.912 91.3501C142.017 91.3554 142.118 91.3798 142.218 91.4232C142.338 91.4751 142.444 91.5577 142.538 91.67C142.63 91.7812 142.683 91.9115 142.696 92.0598C142.707 92.2081 142.649 92.3595 142.521 92.5163C142.194 92.9665 141.848 93.4823 141.486 94.0659C141.124 94.6474 140.763 95.2607 140.404 95.9037C140.043 96.5466 139.698 97.1863 139.366 97.824C139.033 98.4606 138.728 99.0686 138.449 99.6458C138.172 100.225 137.937 100.733 137.745 101.17C137.649 101.389 137.554 101.603 137.463 101.812C137.372 102.021 137.285 102.231 137.204 102.445C137.121 102.634 136.989 102.76 136.807 102.822C136.624 102.885 136.435 102.872 136.236 102.785C135.947 102.658 135.804 102.483 135.808 102.26C135.811 102.036 135.853 101.817 135.936 101.604C136.358 100.532 136.844 99.4488 137.389 98.3536C137.936 97.2584 138.493 96.2246 139.062 95.2522C139.63 94.2799 140.151 93.4293 140.626 92.6996L141.073 93.1815C140.571 93.352 140.061 93.4939 139.544 93.6041C139.027 93.7153 138.504 93.7916 137.976 93.8329Z" fill="#421B36"/>
<path d="M144.101 106.238C143.374 105.919 142.791 105.491 142.351 104.954C141.91 104.417 141.603 103.813 141.428 103.143C141.252 102.473 141.208 101.772 141.293 101.037C141.377 100.303 141.576 99.5785 141.891 98.8614C142.231 98.086 142.683 97.3732 143.246 96.725C143.809 96.0767 144.444 95.5429 145.15 95.1224C145.857 94.7029 146.602 94.4487 147.389 94.3608C148.175 94.2729 148.961 94.401 149.747 94.7463C150.006 94.8597 150.258 94.9942 150.505 95.1499C150.75 95.3056 150.989 95.4867 151.217 95.6944C151.492 95.9327 151.564 96.2017 151.432 96.5004C151.384 96.6106 151.315 96.7006 151.224 96.7737C151.133 96.8468 151.033 96.8976 150.926 96.9272C150.817 96.9569 150.711 96.9633 150.605 96.9474C150.5 96.9304 150.411 96.8828 150.339 96.8033C150.222 96.6921 150.045 96.5565 149.809 96.3924C149.571 96.2292 149.369 96.1106 149.2 96.0365C148.613 95.7791 148.025 95.6912 147.439 95.7717C146.852 95.8522 146.291 96.0598 145.759 96.3955C145.226 96.7302 144.746 97.1581 144.317 97.6761C143.887 98.1941 143.536 98.766 143.261 99.3931C142.986 100.02 142.817 100.622 142.753 101.199C142.69 101.775 142.723 102.31 142.852 102.8C142.98 103.29 143.195 103.719 143.496 104.089C143.797 104.458 144.181 104.745 144.648 104.951C145.275 105.225 145.866 105.318 146.421 105.229C146.976 105.141 147.485 104.929 147.948 104.592C148.409 104.255 148.815 103.845 149.164 103.363C149.511 102.88 149.797 102.386 150.019 101.878C150.277 101.291 150.467 100.729 150.591 100.19C150.715 99.6505 150.782 99.1611 150.792 98.7194C150.801 98.2788 150.761 97.9038 150.673 97.5914C150.644 97.4134 150.644 97.244 150.673 97.084C150.7 96.9251 150.759 96.7874 150.846 96.6699C150.928 96.5629 151.038 96.4877 151.177 96.4421C151.316 96.3955 151.456 96.4019 151.598 96.457C151.738 96.5131 151.853 96.6307 151.94 96.8118C152.123 97.1772 152.227 97.6052 152.249 98.0956C152.271 98.586 152.243 99.0965 152.164 99.6251C152.087 100.155 151.975 100.667 151.83 101.16C151.684 101.654 151.533 102.079 151.376 102.438C151.04 103.204 150.618 103.895 150.113 104.509C149.605 105.123 149.034 105.62 148.4 105.999C147.764 106.379 147.083 106.599 146.356 106.66C145.628 106.718 144.876 106.578 144.101 106.238Z" fill="#421B36"/>
<path d="M154.97 111.078C154.304 110.786 153.763 110.362 153.349 109.806C152.933 109.251 152.643 108.615 152.476 107.901C152.307 107.188 152.265 106.439 152.348 105.657C152.43 104.874 152.635 104.111 152.962 103.364C153.29 102.617 153.696 101.962 154.18 101.398C154.665 100.834 155.218 100.37 155.84 100.009C156.462 99.647 157.131 99.4044 157.85 99.2805C157.937 99.272 158.011 99.271 158.073 99.2805C158.133 99.289 158.185 99.3028 158.224 99.3197C158.344 99.3716 158.435 99.4542 158.498 99.5655C158.562 99.6756 158.598 99.7985 158.604 99.932C158.611 100.066 158.591 100.187 158.543 100.296C158.494 100.406 158.43 100.493 158.347 100.558C158.265 100.623 158.152 100.67 158.008 100.702C157.629 100.809 157.213 100.982 156.757 101.221C156.302 101.46 155.865 101.793 155.446 102.221C155.027 102.648 154.668 103.201 154.373 103.876C154.141 104.404 153.976 104.963 153.877 105.554C153.776 106.146 153.762 106.724 153.828 107.287C153.896 107.85 154.07 108.353 154.349 108.796C154.629 109.239 155.027 109.575 155.545 109.803C156.082 110.039 156.617 110.117 157.148 110.042C157.68 109.967 158.189 109.773 158.677 109.458C159.165 109.144 159.604 108.75 159.997 108.275C160.389 107.801 160.709 107.28 160.958 106.713C161.242 106.066 161.426 105.418 161.51 104.766C161.593 104.115 161.573 103.492 161.448 102.897C161.323 102.304 161.089 101.776 160.745 101.315C160.401 100.856 159.945 100.501 159.379 100.252C159.249 100.196 159.077 100.137 158.859 100.078C158.641 100.019 158.484 99.9786 158.385 99.9584C158.179 99.9161 158.008 99.8059 157.872 99.6269C157.737 99.4489 157.724 99.236 157.833 98.9861C157.895 98.8463 157.986 98.7403 158.105 98.6704C158.226 98.5984 158.385 98.5804 158.581 98.6206C159.056 98.6747 159.507 98.7954 159.935 98.9829C160.75 99.3409 161.397 99.8207 161.875 100.422C162.353 101.023 162.675 101.704 162.839 102.465C163.003 103.224 163.037 104.019 162.941 104.849C162.843 105.678 162.634 106.503 162.309 107.322C162.011 108.057 161.594 108.72 161.063 109.311C160.53 109.902 159.925 110.384 159.245 110.756C158.566 111.129 157.857 111.351 157.118 111.425C156.384 111.5 155.667 111.383 154.97 111.078Z" fill="#421B36"/>
<path d="M36.6894 67.7334C36.6894 67.7334 34.2511 72.0115 34.8315 72.8748C35.412 73.7381 125.667 111.239 126.186 110.436C126.705 109.634 128.166 105.862 127.97 105.411C127.773 104.957 41.0268 69.0712 36.6894 67.7334Z" fill="#421B36"/>
<path d="M32.9442 81.6875C32.9442 81.6875 30.506 85.9657 31.0864 86.8289C31.6668 87.6922 62.6826 100.529 63.2016 99.7258C63.7207 98.923 65.1813 95.1511 64.9853 94.6988C64.7883 94.2465 37.2817 83.0263 32.9442 81.6875Z" fill="#421B36"/>
<path d="M154.988 155.369C148.774 155.369 95.8683 133.042 85.0231 128.438C52.875 114.786 16.7104 98.5872 13.2764 95.2793C8.54601 90.7236 41.2226 19.6189 48.6774 5.47207C51.6421 -0.15445 52.0297 -0.0771347 52.5276 0.0266679C64.3335 2.46073 100.993 17.7716 132.086 31.8665C146.797 38.5342 194.76 60.606 194.285 64.6289C194.001 67.0429 184.609 90.9683 176.401 110.747C168.242 130.41 157.982 154.101 155.44 155.298C155.34 155.345 155.187 155.369 154.988 155.369ZM52.5138 1.19816C49.279 4.72321 14.771 79.1878 13.895 92.9776C13.8188 94.1692 14.0476 94.4255 14.073 94.4499C20.6072 100.744 146.624 154.272 154.732 154.272C154.831 154.272 154.912 154.265 154.975 154.249C156.197 153.646 162.289 141.757 175.356 110.265C185.105 86.7706 192.923 66.3692 193.144 64.4933C192.607 62.4215 170.996 50.7342 130.728 32.5116C100.228 18.7101 64.3314 3.72755 52.5138 1.19816Z" fill="#421B36"/>
<path d="M12.5654 99.8289C12.5654 99.8289 7.08086 62.4325 11.7138 54.9651C16.3468 47.4966 155.052 21.5978 157.805 27.7211C160.557 33.8444 161.195 49.1458 161.195 49.1458L190.574 47.8768L197.171 84.7331L12.5654 99.8289Z" fill="#A0D2F4"/>
<path d="M9.90918 79.9695C9.90918 79.9695 38.3807 73.1535 61.7225 96.6521L11.0012 93.36L9.90918 79.9695Z" fill="#8380FF"/>
<g opacity="0.2">
<path d="M110.817 89.2521C110.817 88.517 110.817 87.7809 110.817 87.0458C111.783 87.0458 111.998 87.8932 112.513 88.4884C112.302 88.8644 112.109 89.2076 111.887 89.6017C111.486 89.4714 111.152 89.3612 110.817 89.2521ZM112.425 81.6777C111.876 81.1947 111.522 80.592 110.817 80.4247C110.817 80.5168 110.817 80.609 110.817 80.7011C110.817 81.3451 110.817 81.9881 110.817 82.631C111.585 82.9064 112.196 82.3789 112.425 81.6777ZM158.542 76.2514C160.192 74.3257 157.166 71.9065 155.983 74.455C156.215 76.0268 156.976 76.9769 158.542 76.2514ZM163.33 73.8237C162.429 75.3415 162.103 74.6912 163.461 76.3171C164.167 76.3594 164.885 76.4028 165.602 76.4442C165.881 74.5238 165.761 74.2431 164.294 73.4032C163.99 73.5366 163.66 73.6796 163.33 73.8237ZM159.136 81.2868C158.135 79.5889 156.331 79.679 155.858 81.6862C156.761 83.83 158.547 83.5059 159.136 81.2868ZM172.364 78.3126C172.661 79.5476 174.096 80.7679 174.964 79.3591C176.205 76.7005 173.541 75.5936 172.364 78.3126ZM166.628 72.9233C166.991 73.0536 167.332 73.1744 167.848 73.3587C168.787 72.6384 168.981 71.7741 168.774 71.1142C167.871 71.2562 166.951 71.4002 166.013 71.5464C166.227 72.0283 166.429 72.4785 166.628 72.9233ZM177.482 76.5755C177.957 76.1603 178.436 75.743 178.922 75.3182C178.922 74.9094 178.922 74.5037 178.922 74.0768C176.378 72.2942 174.442 75.8203 177.482 76.5755ZM193.7 76.8096C193.309 76.8032 192.986 76.9579 192.77 77.2185C193.387 77.1062 193.718 77.0447 193.718 77.0447L193.7 76.8096ZM134.621 76.7217C133.72 77.2989 132.807 77.4324 132.627 78.5605C134.122 80.269 135.271 80.4617 135.895 78.0594C135.733 77.3296 135.172 77.0765 134.621 76.7217ZM152.448 75.0767C152.305 74.562 152.2 74.0345 151.769 73.7103C151.126 73.8057 150.479 73.901 149.828 73.9963C147.907 75.4771 151.468 77.7523 152.448 75.0767ZM155.492 77.5574C154.921 77.2947 154.499 77.013 154.007 76.6316C150.323 78.5276 155.808 82.2719 155.492 77.5574ZM193.396 72.8916L193.214 70.5518C192.804 70.7954 192.44 71.182 192.221 71.6883C192.43 72.3408 192.888 72.7327 193.396 72.8916ZM136.216 81.433C136.351 84.3448 139.694 83.1489 139.032 80.9956C138.118 80.0614 136.536 79.8961 136.216 81.433ZM162.022 72.1639C161.242 72.2836 160.451 72.4043 159.652 72.5261C160.483 73.5737 161.359 73.3915 162.022 72.1639ZM181.403 77.5256C181.189 76.4283 179.409 76.9483 179.271 77.8413C179.084 78.6462 179.357 79.2277 179.812 79.5381C180.551 79.4078 181.265 79.2818 181.952 79.16C182.058 79.036 182.157 78.8994 182.238 78.7352C182.151 78.0616 181.53 78.0499 181.403 77.5256ZM168.756 77.2735C168.369 77.0521 168.06 76.8742 167.701 76.6676C162.862 78.1971 169.613 82.1279 168.756 77.2735ZM159.319 78.4725C159.781 78.9714 160.183 79.4047 160.62 79.8739C161.249 79.4227 163.07 78.5679 162.145 77.6781C160.629 76.3658 159.756 76.4505 159.319 78.4725ZM170.371 76.5956C172.26 75.8372 172.361 75.6032 171.629 73.7114C171.313 73.6129 170.973 73.507 170.569 73.382C169.542 74.0493 169.001 75.8372 170.371 76.5956ZM154.377 83.257C153.781 83.4466 153.268 83.6235 152.959 84.1266C152.958 84.1329 152.959 84.1372 152.959 84.1436C153.643 84.0292 154.329 83.9147 155.002 83.8025C154.84 83.615 154.647 83.4307 154.377 83.257ZM186.548 70.3579C186.265 71.0019 186.001 71.6036 185.749 72.1798C187.084 73.9031 188.015 73.1765 188.799 71.5135C188.417 70.4988 187.661 70.2435 186.548 70.3579ZM126.077 78.6696C126.655 79.1346 127.174 79.5519 127.722 79.9914C129.713 78.6886 128.989 77.3604 127.948 77.0627C127.565 77.1136 127.183 77.1644 126.799 77.2142C126.421 77.4557 126.126 77.9101 126.077 78.6696ZM184.953 69.375C185.011 69.0773 185.069 68.7808 185.128 68.4747C184.431 68.5901 183.691 68.713 182.914 68.8401C183.206 69.2045 183.478 69.5593 183.777 69.9809C184.211 69.7584 184.574 69.5709 184.953 69.375ZM189.399 69.1505C191.165 70.4416 192.433 69.3432 191.531 67.3975C190.914 67.5023 190.104 67.64 189.119 67.8074C188.78 68.1442 188.749 68.6071 189.399 69.1505ZM170.336 80.0222C169.803 80.4818 169.51 80.9426 169.402 81.3525C170.238 81.2085 171.054 81.0665 171.855 80.9278C171.658 80.5888 171.244 80.3929 170.336 80.0222ZM127.716 83.5356C125.151 84.4242 126.578 86.745 128.745 85.8679C129.768 84.7558 129.197 83.668 127.716 83.5356ZM173.943 73.0314C175.781 72.8301 175.529 71.1153 174.365 70.2277C174.047 70.2785 173.723 70.3304 173.399 70.3823C172.37 71.1524 172.416 72.6617 173.943 73.0314ZM139.903 77.2714C138.43 79.3125 141.333 79.9766 142.707 78.6124C141.866 77.6728 141.189 76.2313 139.903 77.2714ZM149.544 80.7075C148.988 82.1543 150.905 83.7686 151.882 82.2825C153.006 80.8854 150.786 79.5084 149.544 80.7075ZM189.91 76.2387C190.673 75.9876 191.104 76.5141 191.906 76.2863C191.916 75.3521 192.011 74.5439 191.851 73.7803C190.957 73.0547 190.405 73.7675 189.782 74.0874C189.643 74.6975 190.09 75.3161 189.534 75.8097C189.411 75.9198 189.726 76.3202 189.91 76.2387ZM130.644 80.5698C129.526 82.113 129.567 82.5346 130.928 83.1998C133.016 82.613 133.144 80.2562 130.644 80.5698ZM179.045 71.6819C179.545 72.4626 180.178 72.9986 181.338 73.0166C183.229 70.4321 180.384 69.3008 179.045 71.6819ZM162.946 82.4594C163.777 82.3175 164.594 82.1787 165.4 82.0399C165.478 81.9404 165.576 81.8514 165.646 81.7455C164.433 79.6758 161.516 80.9416 162.946 82.4594ZM147.563 83.543C146.36 83.9359 146.05 84.6763 146.257 85.2547C147.141 85.1095 148.023 84.9634 148.891 84.8204C148.957 84.1096 148.688 83.9804 147.563 83.543ZM124.276 82.9191C124.663 82.7104 125.018 82.5177 125.361 82.3323C125.832 81.218 125.819 80.5899 124.532 80.252C122.882 80.5126 122.425 82.5039 124.276 82.9191ZM142.89 80.9511C142.609 83.0346 144.971 83.7114 145.588 81.6894C145.211 80.0179 144.064 80.1005 142.89 80.9511ZM142.517 84.2791C140.765 81.8302 138.487 85.6699 140.7 86.1635C140.96 86.1211 141.223 86.0787 141.481 86.0364C141.893 85.529 141.784 84.7325 142.517 84.2791ZM138.87 75.9654C138.941 75.8224 138.987 75.6858 139.025 75.5502C138.299 75.6519 137.569 75.7535 136.839 75.8552C137.29 76.5946 137.823 76.3711 138.87 75.9654ZM113.545 90.4363C113.644 90.4215 113.741 90.4067 113.84 90.3918C113.762 90.3611 113.685 90.3283 113.599 90.3039C113.576 90.3505 113.566 90.3918 113.545 90.4363ZM114.532 79.6038C115.211 79.3697 115.561 79.0181 115.66 78.6336C114.889 78.7278 114.118 78.821 113.348 78.9142C113.551 79.3316 113.954 79.6419 114.532 79.6038ZM113.301 84.4391C113.423 84.9793 113.55 85.5438 113.696 86.1836C114.526 86.424 115.142 86.2238 115.712 85.7006C115.712 85.3055 115.712 84.9062 115.712 84.3511C115.531 84.1753 115.276 83.9222 115.071 83.7209C114.346 83.7654 113.784 83.8915 113.301 84.4391ZM186.035 78.4333C186.99 78.2628 187.856 78.1071 188.646 77.9652C188.748 76.9589 187.376 76.3435 186.035 78.4333ZM122.334 77.7968C121.54 77.8985 120.746 78.0001 119.95 78.0997C120.068 80.9564 122.708 79.0127 122.334 77.7968ZM142.891 75.0471C143.63 76.6009 145.787 76.2429 145.606 74.6128C144.712 74.742 143.813 74.8712 142.908 75.0004C142.904 75.0174 142.895 75.029 142.891 75.0471ZM133.895 83.6394C133.347 83.9783 133.105 84.4518 132.957 84.9814C133.128 86.2026 135.124 86.4717 135.572 85.3066C135.441 84.8214 135.33 84.4062 135.193 83.8946C134.731 83.8035 134.293 83.7177 133.895 83.6394ZM119.04 87.6072C118.685 86.8318 117.704 87.2354 117.067 87.1909C116.924 87.5796 116.815 87.8783 116.668 88.2798C117.453 90.7477 118.988 89.6567 119.04 87.6072ZM129.822 87.9101C130.611 87.7851 131.398 87.6601 132.18 87.5351C132.111 87.4133 132.025 87.2873 131.912 87.157C131.14 87.0087 130.234 87.2725 129.822 87.9101ZM118.428 80.628C117.548 80.3071 117.041 80.7234 116.542 81.3536C116.36 84.258 119.928 82.7412 118.428 80.628ZM123.017 88.2332C123.108 88.4916 123.222 88.7172 123.353 88.928C123.998 88.8274 124.639 88.7268 125.279 88.6272C125.418 88.3571 125.539 88.0753 125.635 87.7809C124.728 86.3679 123.881 87.3646 123.017 88.2332ZM122.295 85.0894C122.108 84.7261 121.904 84.331 121.676 83.8872C117.8 83.5345 120.708 88.016 122.295 85.0894ZM146.859 77.568C145.137 78.5996 147.192 79.7552 148.451 79.339C149.67 78.1219 148.191 76.8583 146.859 77.568ZM184.095 73.4794C183.63 73.7262 183.24 73.9338 182.821 74.1552C183.047 75.2006 183.53 75.9548 184.494 76.3181C185.634 75.9273 184.446 75.0079 184.951 74.1722C184.612 73.8978 184.338 73.6743 184.095 73.4794ZM110.817 89.2521C110.817 88.517 110.817 87.7809 110.817 87.0458C110.036 86.5882 109.63 87.5786 109.458 88.1579C109.731 88.8316 109.935 89.4852 110.817 89.2521ZM110.817 82.6321C110.817 81.9891 110.817 81.3441 110.817 80.7011C109.526 80.6916 108.802 82.9339 110.817 82.9085C110.817 82.8153 110.817 82.7242 110.817 82.6321ZM50.5606 96.1158C51.3074 96.3721 51.7776 95.9527 52.3793 95.7885C52.3252 95.1636 52.2786 94.6213 52.231 94.0779C51.4832 93.3078 51.4832 93.3078 50.46 93.3682C49.5417 92.3556 49.5597 90.6863 48.0757 90.1355C47.6721 90.5009 46.9911 90.2976 46.5907 91.0083C47.2972 91.8779 47.1849 93.2157 48.6773 92.72C49.3881 92.4944 50.0596 93.5292 49.7005 94.1647C49.387 94.8458 50.3361 95.5735 50.5606 96.1158ZM43.6588 95.9368C44.2742 96.9219 46.149 96.4516 46.0145 95.2631C46.256 93.6711 44.2795 92.2677 43.5529 94.1668C42.8199 95.117 42.8167 95.118 43.6588 95.9368ZM34.5994 83.2496C33.8844 83.6065 33.2192 83.9635 33.0593 84.8829C34.2816 88.2342 38.438 84.9083 34.5994 83.2496ZM20.6835 83.597C18.5894 85.3034 22.2395 88.5403 23.0116 84.7282C22.4555 83.3968 21.8868 83.4741 20.6835 83.597ZM29.8795 88.5541C30.5225 89.5265 30.5288 89.5296 32.1939 89.4735C34.6015 87.783 30.6379 84.8056 29.8795 88.5541ZM59.0279 95.2473C59.405 94.5312 59.3245 94.0292 58.6509 93.6171C57.4836 92.6045 56.8301 93.8501 56.2782 94.7515C56.615 96.3583 58.6583 97.2163 59.0279 95.2473ZM34.0867 99.4459C36.7008 100.048 36.8703 97.4557 34.6799 96.477C33.6175 97.3296 32.177 98.7098 34.0867 99.4459ZM59.8234 97.747C60.7386 97.6411 61.6622 97.533 62.5869 97.4229C61.5753 96.1539 60.3413 96.8212 59.8234 97.747ZM56.3036 81.7751C56.8311 82.3238 57.1944 83.1087 58.2642 83.204C59.0385 82.7591 59.2747 82.1713 59.2144 81.6269C58.2579 81.5919 57.3109 81.5527 56.3693 81.5103C56.3492 81.6004 56.3206 81.6756 56.3036 81.7751ZM17.8204 99.9109C17.1012 100.403 16.972 100.74 16.9508 101.172C17.8141 101.157 18.7006 101.133 19.6052 101.105C19.5014 100.507 18.9803 99.9713 17.8204 99.9109ZM19.8446 97.3254C19.9897 98.7627 20.8095 99.465 22.1229 99.8315C23.7954 97.8031 21.9884 95.5269 19.8446 97.3254ZM30.1772 94.5831C29.7196 95.7599 30.5468 96.1094 31.5181 96.5554C35.0803 95.0047 30.8657 91.8684 30.1772 94.5831ZM15.8175 99.0392C16.9233 97.8169 15.7306 96.4007 14.2816 96.8223C12.1547 98.319 13.8601 100.558 15.8175 99.0392ZM40.3721 99.1727C41.8041 99.7987 42.2416 99.4809 42.9597 98.2099C42.5 97.2735 42.5 97.2735 41.4673 96.6793C40.4854 96.7365 39.9855 97.3265 39.7207 98.2226C39.9145 98.5054 40.12 98.8051 40.3721 99.1727ZM18.5227 86.9399C17.3406 87.2735 17.3406 87.2735 16.5536 88.5541C17.8151 91.5114 21.6061 88.1007 18.5227 86.9399ZM49.2938 84.528C48.3924 82.9329 46.0886 83.5769 46.6129 85.493C47.3586 87.5108 49.3023 86.2206 49.2938 84.528ZM18.3299 96.2228C19.6942 96.5172 20.1041 94.5958 19.3626 93.8872C17.1944 92.3313 15.5675 95.8002 18.3299 96.2228ZM67.2188 96.8657C67.3692 96.8477 67.5196 96.8286 67.6711 96.8106C67.526 96.7873 67.3745 96.8075 67.2188 96.8657ZM46.0452 81.3144C46.0166 81.1629 45.9562 81.0284 45.881 80.9045C45.1078 80.8494 44.342 80.7933 43.5846 80.735C42.4566 82.649 45.4393 84.6996 46.0452 81.3144ZM72.125 87.2407C71.5743 87.1898 71.1993 86.9812 70.7852 86.638C70.5161 86.7958 70.2831 86.9325 70.0649 87.0617C69.8679 88.1188 69.8234 89.6885 71.248 89.8262C71.7501 89.4375 72.2479 89.053 72.7945 88.6314C72.5562 88.1347 72.3411 87.6898 72.125 87.2407ZM38.5809 93.4995C36.2041 93.4762 36.0293 95.618 38.1075 96.4579C38.5005 96.1942 38.9061 95.923 39.279 95.672C39.4728 94.2219 39.4728 94.2219 38.5809 93.4995ZM47.9105 96.8318C46.6987 96.4865 46.7369 98.0033 46.6807 98.8433C46.8841 98.9015 47.0716 99 47.2569 99.1059C47.9422 99.0371 48.6254 98.9693 49.3192 98.8973C49.8467 97.8709 49.1656 97.1549 47.9105 96.8318ZM74.808 90.2446C73.4586 90.6227 73.4586 90.6227 73.0773 91.8038C74.307 95.1127 77.5503 91.3387 74.808 90.2446ZM84.0645 89.8559C84.4204 89.7288 84.7551 89.6101 85.1205 89.4799C85.3111 88.3793 86.1808 88.1124 85.1131 87.0098C83.1673 86.4484 81.963 88.7649 84.0645 89.8559ZM90.979 89.7605C92.6091 89.2807 92.7246 87.908 91.4154 86.9346C89.191 86.7386 89.0427 89.2892 90.979 89.7605ZM60.6019 83.5631C59.0491 84.6244 60.3668 87.0818 61.9153 85.9993C63.2362 84.7293 62.4471 83.0854 60.6019 83.5631ZM27.1489 83.9179C26.8682 84.3384 26.7051 84.5873 26.4212 85.0121C26.7411 85.3648 27.1468 85.351 27.3035 85.7927C29.1264 87.7459 31.5679 82.417 27.1489 83.9179ZM14.0465 86.1561C15.6342 86.9208 16.4392 84.9697 16.0982 83.6034C14.4966 82.9541 12.5053 84.9846 14.0465 86.1561ZM23.7118 100.939C24.4945 100.902 25.2921 100.86 26.0982 100.814C26.0145 100.576 25.8514 100.338 25.5845 100.114C25.0326 99.3835 23.9819 100.217 23.7118 100.939ZM33.662 90.681C32.5932 92.1406 34.3123 92.685 35.4573 93.3025C36.7379 91.7106 35.505 89.1081 33.662 90.681ZM79.7397 84.8331C79.3722 86.6624 81.5224 86.4738 82.3708 85.404C83.1461 83.1987 80.3604 82.9445 79.7397 84.8331ZM23.4501 88.9142C25.719 91.1439 27.4444 87.0913 24.7434 86.6337C23.9257 87.3519 23.9257 87.3519 23.4501 88.9142ZM25.1332 96.4706C25.7296 95.8828 26.8968 93.8099 25.3959 93.8141C24.3494 94.026 23.3792 93.3121 23.0752 94.8003C23.6482 95.5841 24.0751 96.405 25.1332 96.4706ZM28.5958 99.4406C28.9061 99.1981 29.155 99.0042 29.387 98.8231C29.2483 97.9715 29.1053 97.1687 28.3543 96.5353C26.0357 97.5108 25.934 99.1589 28.5958 99.4406ZM14.1238 90.5677C12.9735 91.2074 13.6535 92.9435 14.8705 93.168C16.1723 92.541 16.1977 92.2264 16.2168 91.1407C16.113 90.1228 14.8123 90.6005 14.1238 90.5677ZM30.3594 100.553C30.8222 100.521 31.2978 100.486 31.7681 100.452C31.5626 100.403 31.3688 100.338 31.2417 100.199C30.8466 100.128 30.5521 100.284 30.3594 100.553ZM20.2556 78.57C20.0395 79.9173 22.8199 79.9046 22.8453 78.6261C21.9228 78.5085 21.0436 78.3942 20.2068 78.2819C20.2174 78.3751 20.2291 78.4683 20.2556 78.57ZM18.2166 79.9808C16.758 80.5899 16.5081 81.3737 17.5387 82.6426C18.1721 82.7115 18.76 82.81 19.3828 82.9625C19.4198 82.4562 19.6412 81.4606 19.7577 81.2868C19.2249 80.8653 18.7335 80.4405 18.2166 79.9808ZM58.4941 89.5794C60.9695 87.0712 55.9573 85.4199 56.6119 89.25C57.1351 89.8622 57.8427 89.5275 58.4941 89.5794ZM63.8092 86.9875C62.4068 89.1197 65.5823 90.9352 66.1299 88.2363C65.47 86.9727 65.1597 86.8096 63.8092 86.9875ZM63.8145 93.579C62.858 94.8289 62.8591 94.8479 63.9638 96.2238C64.3557 96.2048 64.7996 96.1847 65.2317 96.1656C66.4011 94.5545 65.7825 93.5133 63.8145 93.579ZM68.0248 83.2559C66.9625 83.686 65.9128 84.8839 66.882 85.9347C69.3849 86.4569 69.9886 84.7367 68.0248 83.2559ZM50.21 82.9657C51.5086 83.2538 52.5244 82.4806 52.5901 81.3239C51.7565 81.2784 50.9282 81.2318 50.1083 81.182C50.1613 81.7667 50.1825 82.2243 50.21 82.9657ZM83.6461 82.6003C83.4893 82.9212 83.9087 83.2824 84.2911 83.2379C85.4044 82.989 85.7306 82.2348 85.6173 81.5389C84.9129 81.5728 84.2075 81.6036 83.5041 81.6322C83.7477 81.8631 83.9141 82.095 83.6461 82.6003ZM77.848 93.2718C76.6278 93.4243 76.1988 94.9782 76.8269 95.6476C77.5312 95.5555 78.2346 95.4644 78.9421 95.3712C79.5109 94.6583 79.1158 93.5218 77.848 93.2718ZM94.8758 92.6299C96.7601 92.1702 95.0114 89.8537 93.3569 89.9904C92.4407 91.2858 93.1758 92.9339 94.8758 92.6299ZM77.4953 86.8583C77.2347 87.0225 76.9381 87.211 76.6849 87.3699C76.6066 89.2013 76.6066 89.2013 77.9444 89.7584C78.3871 89.3189 78.833 88.8761 79.2737 88.4386C78.7917 87.3434 78.7917 87.3434 77.4953 86.8583ZM89.0396 91.4415C88.2939 89.6694 85.4457 90.2287 86.5578 92.4859C87.5122 93.293 89.2196 92.8471 89.0396 91.4415ZM63.4808 82.5844C64.1429 82.7846 64.7318 82.7083 65.3705 82.6744C65.5908 82.3556 65.7179 82.0696 65.7942 81.8059C64.9796 81.7911 64.1683 81.7741 63.3601 81.754C63.3643 82.0029 63.3929 82.2719 63.4808 82.5844ZM37.2061 81.2064C36.8947 81.2233 36.6818 81.2339 36.4244 81.2487C36.7422 82.2508 37.4487 82.6766 38.2928 82.9297C39.9103 82.5812 39.9367 80.9214 38.7409 80.3336C38.4602 80.3092 38.1816 80.2838 37.9041 80.2584C37.6361 80.5317 37.3682 80.9098 37.2061 81.2064ZM49.5978 87.927C49.9516 89.0202 51.0584 89.7902 52.1452 89.1324C53.8219 87.4102 50.5468 85.8955 49.5978 87.927ZM22.4534 90.7869C21.1167 89.894 20.9409 89.9109 20.1253 91.0708C20.3371 91.3324 20.5596 91.6078 20.7777 91.8758C20.6432 92.076 20.5214 92.255 20.3689 92.4806C20.9271 92.738 21.3296 93.1362 21.9397 93.1341C22.2331 92.7803 22.5159 92.4382 22.7828 92.1152C22.6684 91.6502 22.5583 91.2127 22.4534 90.7869ZM69.7577 95.0005C69.9547 95.8754 71.1739 96.6422 71.9852 96.0311C72.3401 95.4856 71.8009 94.9708 72.2437 94.3607C71.4853 92.8418 69.512 93.3894 69.7577 95.0005ZM11.2766 86.8805C11.0351 87.0066 10.8583 87.14 10.71 87.2767L10.8943 89.5519C12.9269 89.9247 13.6662 87.3413 11.2766 86.8805ZM97.7378 83.2686C98.171 82.8322 98.5799 82.4202 98.9495 82.0463C98.7885 81.5262 98.7451 80.9913 98.4845 80.5835C97.8384 80.6503 97.1923 80.7138 96.5441 80.7742C96.417 81.8949 96.6129 82.7602 97.7378 83.2686ZM103.685 89.2553C104.273 90.0942 104.997 89.1716 105.544 88.8136C105.719 88.1601 105.31 87.7025 105.134 87.1686C104.241 87.1506 103.411 86.9399 102.64 87.6188C102.641 88.517 103.298 88.6674 103.685 89.2553ZM67.9454 90.1694C67.025 90.5115 66.2157 90.9045 66.4911 92.1512C68.617 93.8353 70.5076 91.3642 67.9454 90.1694ZM59.8742 91.862C59.8213 91.897 59.8901 92.2147 59.977 92.3503C61.4027 94.0938 62.2225 92.6649 62.4227 91.0454C62.0181 90.3781 61.2989 90.3876 60.532 90.1133C60.3053 90.8134 60.4536 91.4849 59.8742 91.862ZM90.1782 93.8449C90.6432 93.7802 91.1093 93.7135 91.5753 93.6489C91.1336 93.4381 90.6061 93.5165 90.1782 93.8449ZM24.1439 80.3135C24.2382 80.9246 23.6408 81.0072 23.4014 81.4161C23.5688 82.2973 24.1111 82.7433 24.7869 83.1161C25.4828 82.8916 25.9064 82.416 26.0643 81.6798C25.5452 81.2434 24.9585 79.1324 24.1439 80.3135ZM40.3128 92.5155C42.2776 93.5705 43.7043 91.5252 41.7925 90.1641C41.5171 90.1895 41.1654 90.2234 40.7809 90.2616C40.7343 90.9098 40.5204 91.1587 40.0808 91.6576C40.1687 91.9796 40.2376 92.2391 40.3128 92.5155ZM76.5006 81.8906C77.0684 83.1045 78.8256 82.9117 79.0915 81.773C78.2219 81.7942 77.3544 81.8122 76.489 81.825C76.4964 81.8493 76.4922 81.8662 76.5006 81.8906ZM53.5603 90.5888C53.4618 91.075 53.3717 91.5103 53.2923 91.9023C54.0221 92.559 54.7371 93.3449 55.6151 92.4848C55.6829 91.9415 55.7423 91.451 55.7984 90.9956C54.7699 90.0116 54.7699 90.0116 53.5603 90.5888ZM11.3709 83.1415C11.73 82.5568 12.6843 82.6204 12.8104 81.7095C12.4164 80.1503 11.0352 79.912 10.2217 81.2487L10.2619 81.7508C10.4801 82.3323 10.8148 82.8058 11.3709 83.1415ZM42.3475 85.8955C42.4979 85.2398 42.9767 84.6509 42.5064 83.8978C41.9238 83.8279 41.3095 83.7559 40.6676 83.6796C40.0755 84.3384 40.2143 85.0894 40.2948 85.9442C41.0097 86.0099 41.6611 86.1222 42.3475 85.8955ZM11.7586 100.209L11.838 101.193C12.1876 101.198 12.5583 101.197 12.9174 101.199C12.7712 100.862 12.625 100.525 12.4608 100.148C12.1717 100.166 11.9503 100.184 11.7586 100.209ZM44.4246 89.84C44.9129 89.16 45.7062 88.7808 45.9869 87.9048C45.5802 86.2916 43.8251 87.0553 43.0911 88.1251C43.6503 88.57 43.4311 89.5455 44.4246 89.84ZM100.106 85.7493C100.402 85.8902 100.762 86.0649 101.118 86.2365C101.523 86.0056 101.876 85.8044 102.23 85.6031C102.34 84.7272 102.439 83.8999 101.35 83.5599C100.008 83.7495 99.5226 84.4359 100.106 85.7493ZM73.3919 84.6382C73.1006 87.0627 76.1225 86.5458 76.0388 84.563C75.04 83.5154 74.7773 83.526 73.3919 84.6382ZM90.3053 82.5781C90.9451 82.8715 91.6071 83.2453 92.3093 82.4997C92.5127 81.9478 92.4237 81.4818 92.1844 81.1396C91.3518 81.2011 90.5182 81.2583 89.6836 81.3123C89.6761 81.3271 89.6656 81.3388 89.6581 81.3536C89.8816 81.7741 90.0903 82.1681 90.3053 82.5781ZM32.2755 80.4363C31.4864 80.5327 30.6051 80.3018 30.0755 81.3049C30.2661 84.205 33.7616 82.6596 32.2755 80.4363ZM53.2266 98.4852C54.0878 98.392 54.9584 98.2956 55.8302 98.1993C56.418 96.4547 53.2012 96.2916 53.2266 98.4852ZM82.1123 90.3823C81.2777 89.7065 80.6061 89.7944 79.9018 90.5274C80.3424 91.1619 80.7152 91.7879 80.1676 92.452C81.8613 93.7241 82.41 91.7402 82.1123 90.3823ZM105.272 81.6152C105.02 81.092 105.051 80.4384 104.481 79.9745C101.019 80.5941 104.675 85.1191 105.272 81.6152ZM106.221 91.5347C107.066 91.4097 107.91 91.2837 108.754 91.1576C108.36 89.7722 106.612 90.0391 106.221 91.5347ZM71.4641 82.9403C71.9852 82.6829 72.1685 82.2878 72.2903 81.8599C71.4747 81.861 70.6633 81.8588 69.853 81.8546C69.8467 81.9065 69.8276 81.9425 69.8234 81.9965C70.1793 82.7253 70.8932 82.7486 71.4641 82.9403ZM11.2396 93.7951L11.4323 96.1666C11.8666 96.2937 12.303 96.19 12.5244 95.6582C12.6706 94.9941 12.3454 94.5238 12.7055 93.8523C12.2289 93.7071 11.694 93.6733 11.2396 93.7951ZM38.6636 86.9494C37.276 87.0066 35.8259 87.7883 37.3914 89.017C38.2568 89.0191 39.1858 89.3527 39.6274 88.2501C39.4389 87.7025 39.2302 87.2047 38.6636 86.9494ZM55.6565 84.2357C54.4331 82.971 53.6217 83.8237 53.2055 84.9973C53.8219 86.7206 56.6828 85.7705 55.6565 84.2357ZM27.1055 92.4922C28.01 93.4169 29.5554 92.667 29.62 91.3472C28.8691 90.0116 26.3354 90.9108 27.1055 92.4922ZM108.235 84.0705C106.93 83.4191 106.17 84.2601 106.443 85.564C107.588 87.6326 109.398 85.5385 108.235 84.0705ZM96.2877 87.855C95.5632 89.285 97.2802 89.4534 98.3256 89.3125C99.4092 87.2862 97.6552 86.3457 96.2877 87.855ZM88.9972 85.5438C88.8796 85.1074 88.7546 84.6424 88.6381 84.2071C87.1457 84.0345 87.1457 84.0344 86.3036 84.7261C86.3513 86.0544 88.349 87.0246 88.9972 85.5438ZM100.298 90.2435C99.8319 90.7753 99.6603 91.3313 99.96 92.0272C100.351 92.0039 100.7 92.1946 101.069 92.2921C101.353 92.2507 101.636 92.2094 101.92 92.1681C102.932 91.093 101.574 89.6949 100.298 90.2435ZM13.7711 78.8878C14.7509 79.6038 15.5855 79.2246 16.4827 78.7034C16.4286 78.2914 16.3291 77.9737 16.2041 77.7248C15.5993 77.6368 15.0315 77.5532 14.5072 77.4737C14.181 77.7915 13.9056 78.2808 13.7711 78.8878ZM28.4041 79.2934C27.9814 79.2458 27.5641 79.1981 27.1531 79.1504C27.5133 79.429 27.9825 79.4407 28.4041 79.2934ZM95.6173 85.2748C95.6268 84.17 93.359 83.5292 93.2033 84.8426C92.858 86.2906 95.1099 86.4833 95.6173 85.2748ZM84.6862 94.0917C84.092 94.3141 83.5497 94.5174 82.9205 94.7526C82.9279 94.7823 82.9406 94.8066 82.9491 94.8352C83.7499 94.7272 84.5517 94.6181 85.3535 94.509C85.344 94.4708 85.3408 94.4348 85.3281 94.3946C85.129 94.3003 84.8906 94.187 84.6862 94.0917ZM107.185 79.6557C107.208 79.644 107.235 79.6387 107.259 79.6281C107.229 79.6313 107.2 79.6355 107.17 79.6387C107.175 79.644 107.18 79.6493 107.185 79.6557Z" fill="#421B36"/>
</g>
<path d="M183.767 79.4484C183.263 78.7091 182.757 77.9708 182.253 77.2315C181.551 76.2041 181.212 76.2327 179.901 76.0134C177.037 75.5336 174.166 74.5464 171.943 72.6187C169.152 70.1994 167.835 66.6225 167.772 62.9894C167.758 62.2246 167.816 61.1474 167.907 60.6496C167.981 60.245 167.719 59.6804 167.215 59.7408C146.988 62.1452 126.947 65.8217 106.804 68.8045C86.651 71.7893 66.2856 74.0634 45.8821 73.3739C34.3473 72.9841 22.8654 71.6082 11.6113 69.028C10.711 68.8214 10.3276 70.2058 11.229 70.4134C31.0383 74.9553 51.4366 75.6734 71.6569 74.271C92.0117 72.8591 112.16 69.4717 132.287 66.2443C143.903 64.3812 155.53 62.5668 167.216 61.1781C166.985 60.8752 166.754 60.5723 166.523 60.2693C166.032 62.9576 166.385 65.952 167.363 68.4824C169.619 74.3176 175.262 76.9254 181.165 77.6277C180.959 77.509 180.752 77.3904 180.545 77.2718C181.206 78.2388 181.865 79.2059 182.526 80.174C183.044 80.9324 184.29 80.2153 183.767 79.4484Z" fill="#8380FF"/>
<path d="M155.918 49.8053C155.807 48.4739 155.696 47.1414 155.586 45.81C155.543 45.3047 155.163 45.0442 154.677 45.1172C150.169 45.7983 145.592 44.7751 143.202 40.5965C142.255 38.941 141.615 36.9274 141.545 35.0071C141.527 34.5114 141.102 34.2275 140.636 34.3144C125.319 37.1594 109.828 39.1052 94.4109 41.3136C76.3577 43.8991 58.2802 46.4942 40.3785 50.0002C32.5075 51.5413 24.6164 53.217 16.9615 55.6373C16.4255 55.8068 16.1925 56.6785 16.7899 56.9507C21.6379 59.156 27.2655 60.0351 32.4884 60.7268C45.2509 62.4173 58.0165 61.5254 70.7693 60.2608C93.2712 58.0301 115.731 55.3418 138.177 52.6175C143.854 51.9279 149.529 51.2352 155.202 50.5245C156.108 50.4111 156.118 48.9728 155.202 49.0882C140.283 50.9567 125.354 52.7478 110.419 54.4827C98.7409 55.8385 87.0589 57.1604 75.3642 58.3616C62.8539 59.6464 50.334 60.9005 37.7527 59.8572C32.6028 59.4303 27.454 58.6709 22.4577 57.331C21.1793 56.9878 19.9093 56.6075 18.6647 56.1574C18.3607 56.0472 18.0366 55.8693 17.722 55.7983C17.4371 55.7347 17.7379 55.8121 17.5155 55.7104C17.4583 56.1479 17.4011 56.5853 17.3439 57.0238C32.3116 52.2902 48.0821 49.8667 63.5445 47.3839C81.5224 44.4965 99.5682 42.0635 117.584 39.4356C125.411 38.2938 133.243 37.1456 141.02 35.7009C140.717 35.4699 140.414 35.239 140.112 35.0081C140.198 37.3786 141.011 39.8826 142.295 41.8633C145.144 46.258 150.155 47.2462 155.062 46.5037C154.759 46.2728 154.456 46.0419 154.153 45.811C154.265 47.1424 154.376 48.4749 154.486 49.8064C154.557 50.7205 155.994 50.7279 155.918 49.8053Z" fill="#8380FF"/>
<path d="M0.711914 84.683C0.711914 84.683 9.79464 215.225 22.878 219.2C35.9613 223.175 209.853 215.562 220.783 205.948C225.729 201.596 208.466 72.4004 208.466 72.4004C185.146 83.8833 10.4185 95.1607 0.711914 84.683Z" fill="#8380FF"/>
<path d="M0.818221 99.7029C27.0644 101.386 53.391 101.755 79.6732 100.79C105.832 99.8289 131.941 97.5516 157.874 93.981C172.472 91.9717 187.009 89.544 201.471 86.7159C201.168 86.485 200.865 86.2541 200.561 86.0232C201.063 90.6646 201.557 95.3082 202.051 99.9507C203.195 110.708 204.324 121.467 205.433 132.228C206.682 144.349 207.911 156.47 209.072 168.599C209.904 177.303 210.779 186.015 211.329 194.743C211.399 195.847 211.465 196.954 211.491 198.061C211.498 198.401 211.502 198.74 211.493 199.08C211.483 199.432 211.436 199.509 211.521 199.302C211.516 199.315 211.643 199.289 211.502 199.31C211.697 199.281 211.497 199.326 211.373 199.376C211.067 199.498 211.127 199.506 210.726 199.639C209.867 199.924 208.984 200.133 208.1 200.326C200.653 201.948 192.978 202.71 185.413 203.552C173.218 204.908 160.993 205.985 148.761 206.934C134.192 208.064 119.606 208.991 105.011 209.705C90.475 210.416 75.9246 210.924 61.3722 211.058C49.2294 211.169 37.0517 211.085 24.9343 210.199C22.6157 210.029 20.3003 209.824 17.9901 209.568C17.0728 209.467 17.0803 210.904 17.9901 211.005C29.2432 212.248 40.6127 212.474 51.924 212.519C66.2403 212.578 80.5576 212.192 94.8601 211.599C109.765 210.98 124.661 210.119 139.541 209.056C152.611 208.121 165.674 207.04 178.709 205.701C187.564 204.792 196.457 203.867 205.231 202.335C207.288 201.976 209.456 201.66 211.417 200.911C212.755 200.4 212.947 199.721 212.931 198.357C212.849 191.326 211.962 184.249 211.319 177.256C210.238 165.473 209.059 153.7 207.861 141.929C206.675 130.274 205.461 118.621 204.23 106.971C203.525 100.304 202.816 93.6389 202.098 86.9743C202.064 86.6566 202.029 86.3399 201.995 86.0221C201.942 85.5359 201.58 85.233 201.086 85.3294C175.338 90.3659 149.343 94.1145 123.218 96.5358C97.2179 98.9455 71.0957 100.057 44.9841 99.8554C30.2494 99.742 15.519 99.2071 0.813987 98.2644C-0.104348 98.2072 -0.101172 99.6435 0.818221 99.7029Z" fill="#421B36"/>
<path d="M5.46002 86.5812C5.78625 87.4413 6.38472 87.955 7.31258 88.098C8.71498 88.3141 10.1989 88.2982 11.6172 88.4284C14.8573 88.725 18.0922 89.0682 21.3355 89.3394C28.0286 89.8976 34.7535 90.174 41.4668 90.3488C54.9505 90.6994 68.4449 90.4431 81.9138 89.7344C108.337 88.3426 134.635 85.2138 160.817 81.4695C175.865 79.3182 190.881 76.9583 205.895 74.5931C206.806 74.4501 206.42 73.0646 205.513 73.2076C179.715 77.2718 153.904 81.3222 127.957 84.3187C102.183 87.2951 76.2533 89.2356 50.2964 89.0566C42.9857 89.0057 35.6761 88.7875 28.3771 88.3766C24.8202 88.1764 21.2708 87.9147 17.7246 87.5779C15.8742 87.4021 14.0248 87.2167 12.1733 87.044C11.2486 86.9582 10.3239 86.8746 9.39923 86.7973C8.75946 86.7443 7.11344 86.9032 6.84758 86.1999C6.52028 85.343 5.13166 85.7137 5.46002 86.5812Z" fill="#421B36"/>
<path d="M194.72 70.2682C198.004 69.5331 202.743 69.1084 205.787 70.8793C206.631 71.3708 207.574 72.1493 207.861 73.1206C208.135 74.0485 208.123 75.2369 208.249 76.1881C208.536 78.3701 208.819 80.5531 209.1 82.7361C210.221 91.4111 211.312 100.09 212.374 108.773C214.512 126.259 216.554 143.759 218.294 161.29C219.143 169.843 219.92 178.404 220.488 186.98C220.764 191.148 220.887 195.303 220.958 199.477C220.981 200.799 221.11 202.129 220.966 203.448C220.881 204.223 220.532 205.246 220.141 205.548C219.211 206.262 218.099 206.587 216.994 206.943C215.154 207.534 213.264 207.972 211.375 208.369C198.349 211.105 184.937 212.255 171.703 213.452C153.439 215.104 135.132 216.297 116.819 217.27C99.0115 218.214 81.1882 218.946 63.3596 219.333C51.5812 219.588 39.6788 219.979 27.9131 219.152C25.5659 218.986 23.0418 219.093 21.5801 217.333C18.9183 214.127 17.8061 209.312 16.7395 205.385C12.5821 190.082 10.5611 174.126 8.58043 158.425C6.46307 141.643 4.77363 124.807 3.29921 107.957C2.80456 102.304 2.33639 96.6489 1.90106 90.9916C1.74324 88.9442 1.32273 86.7251 1.43077 84.6681C1.45089 84.2942 1.84492 83.6418 2.32262 83.2149C4.28851 81.4608 7.41742 81.0128 9.90974 80.6866C10.8132 80.5679 10.8249 79.1306 9.90974 79.2503C6.99479 79.6316 0.892686 80.4017 0.0569698 84.1534C-0.0616617 84.6883 0.0357844 85.2465 0.0739159 85.7845C0.353547 89.6528 0.656481 93.5199 0.971066 97.385C2.26012 113.259 3.75043 129.12 5.53732 144.947C7.48838 162.236 9.61316 179.6 13.1922 196.639C14.404 202.406 15.7078 208.29 17.9873 213.744C19.0772 216.353 20.4775 219.493 23.5269 220.091C26.9736 220.767 30.6056 220.771 34.1021 220.869C40.309 221.041 46.5224 221.017 52.7314 220.947C70.1417 220.751 87.5477 220.117 104.939 219.3C124.081 218.401 143.215 217.255 162.316 215.696C177.209 214.48 192.186 213.202 206.923 210.669C210.913 209.982 215.076 209.309 218.858 207.802C220.591 207.112 221.909 206.351 222.289 204.327C222.516 203.107 222.48 201.847 222.437 200.613C222.368 198.673 222.391 196.73 222.331 194.789C222.191 190.32 221.868 185.858 221.531 181.4C220.186 163.632 218.191 145.91 216.135 128.212C214.068 110.431 211.871 92.6631 209.521 74.9171C209.301 73.2499 209.335 72.0307 208.056 70.8253C206.881 69.7163 205.543 69.0512 203.968 68.7154C200.822 68.0449 197.467 68.1816 194.34 68.8817C193.435 69.0851 193.817 70.4694 194.72 70.2682Z" fill="#421B36"/>
<path d="M223.872 160.073C226.3 154.969 220.243 107.5 219.033 103.441C217.823 99.3821 212.108 98.916 212.108 98.916L212.491 106.399C212.491 106.399 147.464 113.195 143.092 115.665C137.825 118.64 145.58 159.99 147.494 169.578C147.497 169.593 147.499 169.607 147.503 169.621C147.757 170.895 148.925 171.774 150.219 171.664C162.57 170.614 221.358 165.354 223.872 160.073Z" fill="#8380FF"/>
<path d="M224.492 160.436C224.967 159.39 225.031 158.177 225.096 157.046C225.206 155.151 225.164 153.245 225.099 151.349C224.911 145.925 224.439 140.508 223.913 135.108C222.948 125.197 221.901 115.22 220.172 105.407C219.877 103.733 219.567 102.175 218.333 100.884C216.767 99.2468 214.333 98.3941 212.108 98.1992C211.735 98.1664 211.371 98.5551 211.39 98.9174C211.518 101.412 211.646 103.906 211.774 106.401C212.013 106.161 212.253 105.922 212.492 105.683C200.971 106.887 189.457 108.182 177.956 109.566C170.066 110.516 162.176 111.492 154.317 112.672C151.587 113.082 148.854 113.502 146.15 114.062C144.893 114.323 143.122 114.502 142.181 115.486C140.656 117.079 140.668 120.11 140.596 122.143C140.459 126.023 140.775 129.923 141.155 133.781C142.056 142.916 143.525 152 145.149 161.03C145.672 163.935 146.048 166.958 146.809 169.812C147.769 173.408 152.096 172.223 154.838 171.978C162.675 171.278 170.507 170.506 178.327 169.642C187.49 168.628 196.656 167.521 205.754 166.025C209.381 165.428 213.009 164.779 216.582 163.909C218.765 163.378 221.147 162.835 223.11 161.694C223.64 161.384 224.205 160.998 224.492 160.436C224.911 159.614 223.672 158.887 223.251 159.711C222.725 160.742 220.363 161.355 219.155 161.724C216.231 162.618 213.215 163.226 210.212 163.791C201.788 165.374 193.266 166.463 184.755 167.47C176.405 168.459 168.039 169.319 159.667 170.1C156.916 170.358 154.165 170.606 151.413 170.843C150.859 170.891 150.202 171.032 149.653 170.923C148.41 170.678 148.217 169.557 148.016 168.534C147.755 167.208 147.501 165.881 147.251 164.552C145.672 156.133 144.247 147.673 143.194 139.17C142.675 134.978 142.231 130.767 142.063 126.544C141.95 123.709 141.77 120.59 142.573 117.831C143.027 116.275 143.674 116.118 145.108 115.765C147.34 115.216 149.623 114.856 151.889 114.492C159.177 113.324 166.505 112.405 173.83 111.503C186.466 109.948 199.121 108.528 211.783 107.192C212.018 107.168 212.255 107.142 212.49 107.118C212.86 107.079 213.23 106.82 213.208 106.4C213.08 103.905 212.953 101.411 212.824 98.9163C212.585 99.1557 212.346 99.3951 212.106 99.6345C213.986 99.7997 216.153 100.576 217.421 102.009C218.355 103.063 218.538 104.392 218.773 105.72C219.454 109.563 219.957 113.441 220.456 117.312C221.828 127.956 223.06 138.665 223.579 149.389C223.686 151.6 223.765 153.819 223.7 156.034C223.668 157.168 223.671 158.784 223.249 159.71C222.871 160.546 224.109 161.277 224.492 160.436Z" fill="#421B36"/>
<path d="M175.292 145.491C173.881 151.216 168.096 154.713 162.371 153.302C156.646 151.891 153.149 146.107 154.56 140.382C155.971 134.657 161.755 131.16 167.48 132.57C173.205 133.98 176.702 139.766 175.292 145.491Z" fill="#421B36"/>
<path d="M10.5188 87.8083C9.25939 75.2376 8.35906 59.2838 11.2263 54.6625C14.3415 49.6408 66.6548 39.2775 77.1102 37.2502C106.979 31.4616 144.047 25.5565 154.892 26.2778C156.984 26.4166 158.013 26.7777 158.33 27.4853C160.824 33.0356 161.596 45.6603 161.742 48.5466L191.052 47.2819L195.915 74.4517L194.784 74.654L190.097 48.4746L160.646 49.7467L160.621 49.1705C160.616 49.019 159.957 33.9105 157.283 27.9577C157.24 27.8952 156.692 27.2819 151.905 27.3773C122.975 27.9122 15.9144 49.287 12.204 55.2684C10.1301 58.6112 9.93305 70.4299 11.6638 87.6939L10.5188 87.8083Z" fill="#421B36"/>
<path d="M16.6406 56.8369C18.0176 58.2097 19.957 58.9257 21.7926 59.4404C24.6027 60.2285 27.5388 60.5781 30.44 60.8217C38.9274 61.5345 47.5102 61.2168 56.0029 60.7666C78.9613 59.5506 101.835 56.7903 124.657 54.0978C136.832 52.6615 149.004 51.1744 161.194 49.8631C162.104 49.7656 162.113 48.3272 161.194 48.4268C138.934 50.8227 116.731 53.7281 94.4649 56.0775C83.4216 57.2426 72.3624 58.3008 61.2799 59.0189C52.2523 59.6036 43.1632 60.0442 34.1175 59.6216C30.6222 59.4585 27.0939 59.1873 23.6706 58.4268C21.6041 57.9681 19.206 57.3655 17.6564 55.8201C17.0007 55.1676 15.9849 56.1834 16.6406 56.8369Z" fill="#421B36"/>
<path d="M154.612 37.8188C154.612 40.006 152.839 42.4539 150.651 42.4539C148.463 42.4539 146.043 40.0611 146.043 37.8738C146.043 35.6866 148.463 33.8584 150.651 33.8584C152.839 33.8584 154.612 35.6315 154.612 37.8188Z" fill="#8380FF"/>
<path d="M184.406 63.6428C184.406 66.5471 182.052 69.7957 179.147 69.7957C176.243 69.7957 173.03 66.6191 173.03 63.7148C173.03 60.8104 176.243 58.3838 179.147 58.3838C182.052 58.3838 184.406 60.7395 184.406 63.6428Z" fill="#8380FF"/>
<g opacity="0.2">
<path d="M172.44 143.866C171.815 145.578 174.01 147.041 175.282 145.432C175.427 143.497 174.074 142.858 172.44 143.866Z" fill="#421B36"/>
<path d="M169.601 153.896C169.213 155.461 170.346 157.249 171.996 155.928C172.103 155.336 172.058 154.59 172.023 153.988C171.244 153.312 170.501 153.047 169.601 153.896Z" fill="#421B36"/>
<path d="M168.946 158.063C168.959 158.031 168.972 158.007 168.987 157.974C168.597 156.293 166.766 156.358 166.15 157.673C166.251 157.701 166.346 157.738 166.448 157.763C167.284 157.968 168.119 158.058 168.946 158.063Z" fill="#421B36"/>
<path d="M174.927 152.754C175.188 152.147 175.414 151.619 175.657 151.056C175.392 150.763 175.154 150.498 174.887 150.203C171.69 149.709 172.059 153.25 174.927 152.754Z" fill="#421B36"/>
<path d="M170.228 148.885C170.29 149.129 169.999 149.417 170.37 149.654C171.21 149.55 171.801 149.06 172.254 148.226C171.694 147.025 171.87 147.091 170.485 146.554C169.188 147.11 168.854 148.216 170.228 148.885Z" fill="#421B36"/>
<path d="M162.888 153.942C162.998 154.616 162.708 156.213 163.765 156.036C164.805 155.645 165.725 155.258 165.427 153.948C164.383 153.249 163.669 152.548 162.888 153.942Z" fill="#421B36"/>
<path d="M171.504 142.7C172.799 141.394 171.822 139.221 170.032 140.499C169.787 140.975 169.581 141.373 169.376 141.77C169.942 142.965 169.959 142.971 171.504 142.7Z" fill="#421B36"/>
<path d="M163.569 146.617C162.684 147.988 162.716 149.572 164.788 149.454C165.681 147.986 165.684 146.325 163.569 146.617Z" fill="#421B36"/>
<path d="M173.124 157.147C173.098 157.182 173.088 157.221 173.064 157.257C173.412 157.114 173.751 156.952 174.08 156.773C173.726 156.688 173.399 156.738 173.124 157.147Z" fill="#421B36"/>
<path d="M177.771 153.47C177.45 153.307 177.098 153.252 176.66 153.464C176.452 154.054 176.243 154.645 175.982 155.374C176 155.391 176.022 155.4 176.041 155.416C176.691 154.847 177.27 154.192 177.771 153.47Z" fill="#421B36"/>
<path d="M176.072 147.417C175.483 148.318 176.07 149.244 177.125 149.436C177.592 149.16 178.108 149.064 178.353 148.714C178.353 148.108 178.353 147.617 178.353 147.118C177.584 146.466 176.909 147.229 176.072 147.417Z" fill="#421B36"/>
<path d="M159.434 144.215C159.074 145.836 161.311 146.647 162.115 145.086C161.988 143.676 160.157 142.629 159.434 144.215Z" fill="#421B36"/>
<path d="M172.358 138.283C173.03 138.697 173.698 139.109 174.373 139.524C174.708 139.254 174.891 138.93 175.04 138.602C174.411 138.17 173.729 137.802 172.999 137.508C172.791 137.703 172.58 137.953 172.358 138.283Z" fill="#421B36"/>
<path d="M163.68 140.484C163.529 141.253 162.701 141.74 162.734 142.691C163.121 142.827 163.495 142.961 163.846 143.086C165.735 142.128 165.964 140.976 163.68 140.484Z" fill="#421B36"/>
<path d="M166.34 137.587C166.199 138.145 166.533 138.594 166.679 139.189C167.517 139.281 168.236 139.386 168.796 138.618C168.325 138.179 168.244 137.829 168.404 137.187C168.123 137.06 167.844 136.935 167.589 136.82C167.538 136.828 167.486 136.83 167.434 136.837C167.035 137.112 166.69 137.348 166.34 137.587Z" fill="#421B36"/>
<path d="M168.27 145.68C168.299 145.009 168.328 144.397 168.355 143.749C167.098 142.425 165.662 144.132 166.664 145.478C167.229 145.599 167.721 146.147 168.27 145.68Z" fill="#421B36"/>
<path d="M165.939 151.495C166.609 152.389 168.045 152.772 168.632 151.604C168.317 150.48 168.317 150.48 167.437 149.884C167.124 150.641 166.29 150.818 165.939 151.495Z" fill="#421B36"/>
<path d="M160.888 150.069C160.461 150.507 160.058 150.921 159.685 151.306C160.323 152.812 161.784 152.731 162.35 151.242C161.905 150.793 161.593 150.234 160.888 150.069Z" fill="#421B36"/>
<path d="M176.529 141.914C176.604 142.837 177.608 142.481 178.137 141.868C177.798 141.309 177.406 140.783 176.97 140.292C176.571 140.204 176.406 140.631 176.529 141.914Z" fill="#421B36"/>
<path d="M158.34 147.064C158.338 147.066 158.337 147.066 158.333 147.066C158.32 147.504 158.34 147.937 158.379 148.367C158.554 148.08 158.589 147.647 158.34 147.064Z" fill="#421B36"/>
<path d="M202.272 180.317C203.032 180.208 203.779 180.101 204.512 179.995C204.481 179.965 204.449 179.928 204.42 179.903C203.399 179.612 202.258 179.526 201.621 178.519C202.055 177.089 201.873 175.877 200.131 176.244C196.327 180.468 201.356 178.638 202.272 180.317Z" fill="#421B36"/>
<path d="M195.618 179.986C195.469 180.46 195.501 180.874 195.617 181.267C196.673 181.118 197.717 180.969 198.747 180.822C198.358 179.583 196.925 179.117 195.618 179.986Z" fill="#421B36"/>
<path d="M202.116 164.576L199.287 164.968C199.431 165.281 199.696 165.635 200.116 166.034C201.048 166.645 201.898 165.631 202.116 164.576Z" fill="#421B36"/>
<path d="M171.992 180.786C171.739 180.425 171.456 180.025 171.166 179.614C170.571 179.769 169.58 179.704 169.402 180.356C169.757 181.133 168.737 182.274 169.968 182.545C170.546 182.845 171.897 182.706 171.706 181.829C171.519 181.402 172.097 181.223 171.992 180.786Z" fill="#421B36"/>
<path d="M208.889 166.443C207.947 168.462 211.492 170.308 211.783 167.703C211.326 166.481 210.131 165.899 208.889 166.443Z" fill="#421B36"/>
<path d="M187.544 169.636C186.741 170.029 185.826 170.213 185.65 171.315C185.902 171.675 186.125 172.173 186.458 172.504C187.517 173.054 188.224 172.096 188.811 171.362C189.042 170.592 187.989 170.155 187.544 169.636Z" fill="#421B36"/>
<path d="M168.811 178.373C168.363 177.782 168.588 176.876 167.76 176.585C166.899 176.703 166.197 177.051 165.788 177.846C166.099 179.738 168.92 180.055 168.811 178.373Z" fill="#421B36"/>
<path d="M195.18 170.286C193.896 169.167 192.225 169.902 192.582 171.657C192.886 171.758 193.209 171.866 193.53 171.973C193.473 172.279 193.432 172.496 193.374 172.803C195.222 172.901 195.243 171.569 195.18 170.286Z" fill="#421B36"/>
<path d="M205.909 165.518C206.472 165.784 206.955 166.012 207.481 166.261C207.882 165.86 208.284 165.457 208.666 165.075C208.473 164.62 208.302 164.218 208.101 163.748L205.819 164.064C205.806 164.083 205.796 164.097 205.781 164.116C205.987 164.571 206.002 165.053 205.909 165.518Z" fill="#421B36"/>
<path d="M213.677 163.049C212.241 163.442 212.289 164.687 212.807 165.879C214.989 166.725 216.111 163.635 213.677 163.049Z" fill="#421B36"/>
<path d="M200.093 169.615C198.706 169.984 198.76 172.033 200.016 172.325C202.557 172.508 202.298 170.101 200.093 169.615Z" fill="#421B36"/>
<path d="M162.436 184.564C161.831 183.994 161.334 183.528 160.796 183.021C159.19 183.301 159.008 185.038 160.169 185.926C160.512 185.892 160.867 185.856 161.25 185.815C161.721 185.517 162.034 185.01 162.436 184.564Z" fill="#421B36"/>
<path d="M156.39 182.167C157.345 182.684 158.549 182.86 158.864 181.505C159.115 178.992 155.506 179.394 156.39 182.167Z" fill="#421B36"/>
<path d="M217.345 166.427C215.595 166.687 215.271 167.943 216.1 169.023C216.537 169.591 217.194 169.23 217.737 169.049C219.239 168.488 217.889 167.225 217.345 166.427Z" fill="#421B36"/>
<path d="M207.69 178.834C207.685 178.834 207.683 178.838 207.677 178.838C207.675 178.829 207.671 178.826 207.669 178.817C207.494 178.926 207.127 178.827 207.232 178.632C207.448 178.584 207.605 178.586 207.669 178.817C207.685 178.808 207.707 178.807 207.719 178.793C207.709 178.81 207.7 178.817 207.69 178.834C208.197 178.829 208.246 178.251 208.452 177.911C208.193 177.435 207.961 177.006 207.692 176.51C204.206 175.694 206.231 181.335 207.69 178.834Z" fill="#421B36"/>
<path d="M153.374 176.767C153.427 177.494 153.497 178.247 153.586 178.998C153.741 179.091 153.928 179.157 154.159 179.188C156.822 178.321 155.047 175.201 153.374 176.767Z" fill="#421B36"/>
<path d="M178.243 182.55C178.413 182.105 178.558 181.728 178.726 181.295C177.307 177.026 173.719 182.366 178.243 182.55Z" fill="#421B36"/>
<path d="M196.373 166.75C195.497 167.538 195.593 169.168 196.934 169.266C199.568 169.275 198.312 165.565 196.373 166.75Z" fill="#421B36"/>
<path d="M162.524 174.744C163.153 175.496 163.715 176.281 164.994 175.762C166.514 173.305 163.647 172.137 162.524 174.744Z" fill="#421B36"/>
<path d="M177.27 169.398C178.231 169.522 178.772 168.588 178.725 167.812L176.062 168.18C176.137 168.757 176.543 169.317 177.27 169.398Z" fill="#421B36"/>
<path d="M162.331 177.481C161.554 177.078 160.955 176.022 159.771 176.939C158.406 179.169 161.625 180.32 162.331 177.481Z" fill="#421B36"/>
<path d="M202.589 167.73C202.586 170.181 205.822 169.416 205.368 167.601C204.395 166.464 203.319 166.247 202.589 167.73Z" fill="#421B36"/>
<path d="M195.511 178.218C195.184 177.668 194.884 177.161 194.533 176.573C193.668 176.413 192.935 176.487 192.354 177.142C192.31 179.084 194.349 179.464 195.511 178.218Z" fill="#421B36"/>
<path d="M185.947 177.225C186.053 178.455 186.232 178.849 187.009 179.506C187.42 179.298 187.855 179.077 188.271 178.866C188.347 178.314 188.415 177.829 188.479 177.367C188.114 176.864 187.622 176.656 187.049 176.489C186.681 176.737 186.307 176.985 185.947 177.225Z" fill="#421B36"/>
<path d="M176.765 173.385C175.473 174.079 175.971 175.61 177.384 175.912C179.514 175.56 178.722 172.196 176.765 173.385Z" fill="#421B36"/>
<path d="M194.788 165.594L194.79 165.59L193.724 165.737C194.035 165.751 194.388 165.714 194.788 165.594Z" fill="#421B36"/>
<path d="M154.427 183.279C154.674 184.06 154.969 184.727 155.323 185.224C155.494 185.123 155.661 185.011 155.812 184.876C155.672 183.936 155.07 183.407 154.427 183.279Z" fill="#421B36"/>
<path d="M171.009 169.267C171.349 169.339 171.533 169.104 171.672 168.787L170.271 168.981C170.481 169.11 170.72 169.217 171.009 169.267Z" fill="#421B36"/>
<path d="M182.667 181.378C182.995 181.905 183.513 182.979 184.246 182.371C185.249 181.607 185.837 180.139 184.306 179.589C183.495 179.985 182.127 180.273 182.667 181.378Z" fill="#421B36"/>
<path d="M220.045 172.546L219.806 169.921C219.502 169.984 219.191 170.135 218.906 170.438C219.088 171.563 219.32 172.456 220.045 172.546Z" fill="#421B36"/>
<path d="M190.69 166.662C188.271 167.092 189.272 169.994 191.417 169.151C191.657 168.786 191.925 168.375 192.18 167.985C191.901 167.264 191.227 167.103 190.69 166.662Z" fill="#421B36"/>
<path d="M179.848 169.971C179.533 170.454 179.263 170.868 179 171.27C179.947 172.303 179.947 172.303 181.202 172.602C181.815 172.079 181.698 171.389 181.878 170.8C181.393 169.966 180.549 170.185 179.848 169.971Z" fill="#421B36"/>
<path d="M217.379 162.465L217.113 162.502C217.201 162.499 217.288 162.489 217.379 162.465Z" fill="#421B36"/>
<path d="M168.09 172.451C168.9 170.732 168.734 170.036 166.718 169.976C165.718 170.537 165.95 171.381 166.598 172.022C166.854 172.724 167.059 172.727 168.09 172.451Z" fill="#421B36"/>
<path d="M167.494 182.995C166.41 183.358 166.124 184.364 166.529 185.204C167.186 185.123 167.868 185.038 168.571 184.949C168.852 184.21 168.558 183.438 167.494 182.995Z" fill="#421B36"/>
<path d="M195.979 173.739C195.53 177.382 200.001 175.781 197.914 173.12C197.257 173.609 196.532 173.266 195.979 173.739Z" fill="#421B36"/>
<path d="M216.327 173.308C214.637 176.434 218.886 176.79 218.245 173.588C217.211 173.214 217.211 173.214 216.327 173.308Z" fill="#421B36"/>
<path d="M180.14 183.422C180.39 183.388 180.64 183.354 180.891 183.319C180.69 183.283 180.438 183.319 180.14 183.422Z" fill="#421B36"/>
<path d="M189.148 181.307C189.447 181.551 189.822 181.743 190.079 182.048C190.592 181.976 191.104 181.904 191.614 181.832C192.462 180.294 190.275 178.512 189.148 181.307Z" fill="#421B36"/>
<path d="M220.408 176.519C220.16 176.492 219.897 176.521 219.611 176.647C219.239 177.164 219.242 177.514 219.384 177.831C220.111 177.724 220.512 177.665 220.512 177.665L220.408 176.519Z" fill="#421B36"/>
<path d="M162.379 171.296C162.185 170.721 161.683 170.517 161.285 170.224L160.024 170.398C159.923 170.558 159.82 170.775 159.659 171.12C160.239 173.643 161.235 172.51 162.379 171.296Z" fill="#421B36"/>
<path d="M174.718 183.225C174.373 183.125 174.033 183.024 173.698 182.927C173.202 183.518 172.982 183.998 172.922 184.387C173.661 184.291 174.416 184.19 175.182 184.089C175.102 183.831 174.966 183.549 174.718 183.225Z" fill="#421B36"/>
<path d="M179.562 177.253C179.952 177.786 179.763 178.335 180.06 178.779C181.316 179.487 182.58 178.166 181.945 176.937C180.635 176.297 180.477 176.317 179.562 177.253Z" fill="#421B36"/>
<path d="M185.283 174.934C185.156 173.346 183.725 172.854 182.822 174.207C181.964 175.729 184.609 176.649 185.283 174.934Z" fill="#421B36"/>
<path d="M153.203 171.407C153.203 171.407 153.199 171.605 153.199 171.943C153.363 172.13 153.57 172.29 153.864 172.37C154.63 172.109 155.256 171.559 155.407 171.038L152.896 171.386C152.901 171.401 152.911 171.416 152.916 171.432L153.203 171.407Z" fill="#421B36"/>
<path d="M208.908 174.768C209.342 175.46 209.912 175.774 210.869 175.83C213.675 173.003 209.275 172.925 208.908 174.768Z" fill="#421B36"/>
<path d="M163.048 181.819C163.466 182.043 163.897 182.274 164.476 182.585C165.093 181.828 165.835 180.997 165.004 180.164C163.398 179.956 162.801 179.987 163.048 181.819Z" fill="#421B36"/>
<path d="M214.03 172.628C215.963 170.763 213.58 168.514 212.304 170.8C213.063 171.26 212.887 172.476 214.03 172.628Z" fill="#421B36"/>
<path d="M208.456 171.268C207.912 170.213 207.912 170.213 206.73 169.908C206.495 170.159 206.225 170.449 205.979 170.714C206 172.453 207.947 173.049 208.456 171.268Z" fill="#421B36"/>
<path d="M171.041 173.206C170.442 173.565 169.905 173.885 169.358 174.212C169.358 174.459 169.358 174.679 169.358 174.882C170.476 175.864 172.181 176.043 172.012 174.095C171.7 173.809 171.376 173.512 171.041 173.206Z" fill="#421B36"/>
<path d="M202.949 175.825C206.667 175.087 203.713 171.033 202.425 174.862C202.604 175.193 202.772 175.502 202.949 175.825Z" fill="#421B36"/>
<path d="M175.391 177.434C174.457 176.628 172.779 177.076 172.917 178.335C173.63 180.14 175.127 178.932 175.391 177.434Z" fill="#421B36"/>
<path d="M184.035 169.3C184.329 169.13 184.629 168.954 185.052 168.706C184.505 168.086 185.054 167.431 184.284 167.043L183.301 167.179C183.036 167.307 182.778 167.46 182.548 167.683C182.691 168.508 183.071 169.058 184.035 169.3Z" fill="#421B36"/>
<path d="M156.488 173.602C156.474 174.298 156.345 175 156.89 175.658C159.712 175.104 159.058 173.116 156.488 173.602Z" fill="#421B36"/>
<path d="M175.345 171.131C174.648 170.433 173.901 170.289 172.956 170.572C172.247 172.59 175.088 173.134 175.345 171.131Z" fill="#421B36"/>
<path d="M214.951 177.205C214.266 177.099 213.747 176.617 212.958 176.911C212.895 177.381 212.842 177.773 212.793 178.136C213.032 178.377 213.242 178.554 213.438 178.701C213.913 178.632 214.37 178.564 214.805 178.501C214.902 178.191 214.951 177.766 214.951 177.205Z" fill="#421B36"/>
<path d="M189.377 174.059C189.721 174.587 189.907 174.985 190.028 175.565C191.28 175.671 191.403 175.6 191.866 174.524C190.9 173.345 190.644 173.283 189.377 174.059Z" fill="#421B36"/>
<path d="M219.262 163.955C219.204 164.222 219.226 164.467 219.327 164.675L219.262 163.955Z" fill="#421B36"/>
</g>
</svg>
