<svg width="130" height="119" viewBox="0 0 130 119" fill="none" xmlns="http://www.w3.org/2000/svg">
<path d="M119.972 42.1664C119.972 42.1664 122.071 38.2436 117.625 37.6254C113.179 37.0072 -0.109087 38.6031 0.411948 45.5519C0.932983 52.5013 119.972 42.1664 119.972 42.1664Z" fill="#8380FF"/>
<path d="M30.2616 0.316788C29.0244 0.0791973 5.19566 48.6046 7.89685 51.0283C11.6205 54.37 87.1327 84.3428 89.6045 83.2569C92.077 82.1709 111.551 37.0418 111.844 34.7275C112.199 31.9317 43.4342 2.84653 30.2616 0.316788Z" fill="#8380FF"/>
<path d="M57.0876 60.1757C57.0876 60.1757 54.7943 64.2563 55.4095 64.9286C56.0247 65.6009 86.3499 77.1243 86.7695 76.6315C87.1896 76.1386 88.7032 71.9686 88.5197 71.6375C88.3356 71.3059 57.6582 59.0737 57.0876 60.1757Z" fill="#A0D2F4"/>
<path d="M48.4868 57.3568C48.4868 57.3568 46.4858 61.2791 46.8087 62.1092C47.0221 62.6573 51.8062 64.1666 52.2264 63.6743C52.6465 63.1821 54.1068 59.5356 53.9234 59.2046C53.7387 58.8735 48.8886 57.0811 48.4868 57.3568Z" fill="#A0D2F4"/>
<path d="M111.845 34.7281C112.03 33.2673 93.3425 24.6286 73.5768 16.3511C70.9973 17.1009 68.4392 18.0017 66.4437 19.6711C64.0826 21.6464 62.7549 25.0263 64.2373 27.6409C65.2525 29.4311 67.3066 30.4754 69.3168 31.2435C78.0337 34.5749 87.808 34.6045 96.7824 37.2761C97.5792 37.5131 98.4262 37.8111 98.8861 38.4618C99.757 39.6936 98.773 41.2912 98.6439 42.7612C98.4801 44.6266 99.8071 46.3849 101.499 47.3945C102.889 48.2246 104.498 48.6451 106.118 48.9847C109.329 41.4958 111.743 35.5315 111.845 34.7281Z" fill="#A0D2F4"/>
<path d="M31.9775 10.9414C31.9775 10.9414 27.5255 19.4177 27.9957 20.7795C28.3064 21.678 44.1607 27.6223 44.8713 26.8485C45.5813 26.0748 49.1007 17.7569 48.8243 17.2111C48.5479 16.6647 32.6453 10.5169 31.9775 10.9414Z" fill="#A0D2F4"/>
<path d="M30.0612 12.6268C31.7637 13.1202 33.4094 13.7629 34.9719 14.5645C36.2408 15.2157 37.7764 15.9741 38.4393 17.2424C39.0576 18.4252 38.5255 19.9499 37.2596 20.5544C35.8671 21.2188 34.0503 20.657 32.6449 20.306C30.7002 19.8206 28.8099 19.1659 26.9924 18.3591C26.6316 18.199 26.3045 18.6976 26.6689 18.8594C28.506 19.6753 30.4128 20.347 32.3771 20.8433C33.9255 21.2347 35.8017 21.7777 37.3624 21.1538C38.6533 20.6376 39.4716 19.2821 39.3175 17.9876C39.1432 16.5228 37.8351 15.5097 36.5827 14.7702C34.611 13.6062 32.4572 12.7099 30.2306 12.0644C29.8459 11.9527 29.6753 12.5151 30.0612 12.6268Z" fill="#8380FF"/>
<path d="M39.0231 19.4839C41.6815 20.5231 44.3392 21.5618 46.9976 22.601C47.3682 22.7458 47.5351 22.1823 47.167 22.0387C44.5086 20.9994 41.8509 19.9608 39.1925 18.9215C38.8213 18.7768 38.6543 19.3397 39.0231 19.4839Z" fill="#8380FF"/>
<path d="M25.1035 27.6246C25.0496 27.6662 24.9848 27.6908 24.9096 27.6982C24.8338 27.7061 24.7647 27.6964 24.7017 27.6702C24.5983 27.6281 24.5243 27.5597 24.4797 27.4651C24.435 27.3705 24.4357 27.2748 24.4815 27.1785C24.4968 27.1466 24.5158 27.1164 24.5396 27.0879C24.5635 27.0595 24.5898 27.0355 24.6203 27.0156C25.0356 26.745 25.4349 26.5797 25.8196 26.5199C26.2036 26.4601 26.6054 26.5153 27.0249 26.6868C27.4389 26.856 27.7502 27.0953 27.9612 27.4047C28.1716 27.7141 28.2859 28.0565 28.3049 28.4309C28.3232 28.8058 28.2486 29.1727 28.0798 29.5311C27.9441 29.8199 27.7355 30.0877 27.4548 30.3339C27.1748 30.58 26.8494 30.8045 26.48 31.0073C26.1101 31.2102 25.7211 31.3896 25.312 31.5446C24.9035 31.7001 24.5011 31.8341 24.106 31.9463C24.3348 32.0278 24.5537 32.1189 24.7628 32.2198C24.972 32.3212 25.1726 32.426 25.3658 32.5331C25.5578 32.6408 25.745 32.7457 25.926 32.8482C26.107 32.9508 26.2886 33.0494 26.4709 33.1428C26.5889 33.1975 26.6623 33.2704 26.6916 33.3616C26.7204 33.4539 26.7137 33.545 26.6708 33.6356C26.628 33.7268 26.5595 33.798 26.4672 33.8493C26.3742 33.9 26.266 33.8977 26.1419 33.8413C25.8966 33.7217 25.649 33.59 25.3982 33.4459C25.1475 33.3023 24.8949 33.1605 24.6424 33.0214C24.3892 32.883 24.1305 32.7599 23.8663 32.6517C23.4755 32.4921 23.1704 32.4055 22.9508 32.3918C22.8768 32.3879 22.8022 32.3805 22.7246 32.3713C22.6463 32.3617 22.576 32.344 22.5136 32.3183C22.398 32.2711 22.3222 32.2038 22.2855 32.1155C22.2482 32.0266 22.2549 31.9292 22.305 31.8221C22.3307 31.7685 22.3638 31.7201 22.4047 31.6757C22.4463 31.6318 22.5038 31.6033 22.579 31.589C23.0701 31.4774 23.563 31.3469 24.0577 31.1982C24.5525 31.0501 25.0172 30.8774 25.4514 30.6814C25.8862 30.486 26.266 30.2615 26.5907 30.008C26.9155 29.755 27.1534 29.4678 27.3044 29.1465C27.3649 29.0177 27.409 28.8702 27.4365 28.7027C27.464 28.5351 27.4604 28.3682 27.4261 28.2007C27.3919 28.0337 27.3148 27.8765 27.1962 27.7283C27.0769 27.5808 26.9002 27.4594 26.6641 27.3631C26.4116 27.26 26.1535 27.2247 25.8917 27.2577C25.63 27.2908 25.367 27.4133 25.1035 27.6246Z" fill="#421B36"/>
<path d="M30.2233 29.8036C30.1254 29.7637 30.0582 29.6964 30.0209 29.6007C29.9829 29.5061 29.9884 29.4076 30.0361 29.3062C30.0686 29.2367 30.126 29.1734 30.2074 29.1176C30.2887 29.0612 30.3884 29.0093 30.507 28.962C30.7902 28.8549 31.0562 28.7848 31.3045 28.7518C31.5528 28.7193 31.7852 28.717 32.0016 28.7449C32.2181 28.7729 32.412 28.8224 32.5844 28.8925C32.952 29.0429 33.2412 29.2315 33.4534 29.4583C33.665 29.6851 33.8112 29.9318 33.8913 30.1973C33.972 30.4633 33.9971 30.734 33.9671 31.0086C33.9366 31.2838 33.865 31.5413 33.7513 31.7823C33.6577 31.9801 33.5305 32.1532 33.3684 32.3008C33.2064 32.449 33.0027 32.5646 32.7575 32.649C32.9563 32.8518 33.0945 33.0677 33.1715 33.2968C33.2486 33.5264 33.2798 33.7549 33.2651 33.9822C33.251 34.209 33.196 34.4238 33.1 34.6277C32.9563 34.9325 32.7489 35.1878 32.4774 35.3929C32.2059 35.598 31.883 35.7205 31.5069 35.7621C31.1314 35.8037 30.7137 35.7296 30.2545 35.5422C29.8869 35.3918 29.5335 35.1747 29.1953 34.8892C28.8565 34.6044 28.596 34.242 28.4119 33.8033C28.3666 33.6956 28.3678 33.5908 28.4162 33.4888C28.4461 33.4244 28.4889 33.3731 28.5446 33.3355C28.5996 33.2979 28.6632 33.2757 28.7348 33.27C28.8057 33.2637 28.873 33.274 28.936 33.2996C28.9996 33.3253 29.0571 33.3628 29.1084 33.4136C29.1604 33.4637 29.2081 33.5423 29.254 33.65C29.3298 33.809 29.4295 33.9645 29.553 34.1166C29.6766 34.2693 29.8245 34.4095 29.997 34.5371C30.1701 34.6648 30.3596 34.7719 30.5664 34.8562C30.8648 34.9787 31.129 35.0237 31.3595 34.9935C31.5895 34.9633 31.7833 34.8813 31.9423 34.7485C32.1013 34.6152 32.2218 34.4608 32.305 34.2842C32.4462 33.9839 32.4701 33.707 32.3777 33.4529C32.2854 33.1976 32.127 32.9897 31.9013 32.8273C31.6989 32.821 31.4996 32.7965 31.3033 32.7555C31.1076 32.7133 30.9296 32.6615 30.77 32.6C30.611 32.5378 30.4777 32.4752 30.3707 32.4125C30.2979 32.3635 30.2392 32.3128 30.1964 32.2598C30.1529 32.2068 30.1279 32.1504 30.1218 32.0906C30.115 32.0308 30.1248 31.9738 30.1505 31.9208C30.1909 31.8353 30.263 31.7721 30.3676 31.7316C30.4722 31.6917 30.6049 31.6821 30.7663 31.7031C30.8874 31.7214 31.0097 31.7425 31.132 31.767C31.2537 31.7915 31.373 31.8222 31.4886 31.8598C31.6041 31.8974 31.7167 31.9385 31.8261 31.9835C31.935 32.0279 32.0389 32.0769 32.1374 32.1299C32.2707 32.0946 32.4175 32.0251 32.5808 31.9185C32.7434 31.8125 32.8713 31.661 32.9648 31.4633C33.0578 31.2656 33.103 31.0428 33.0994 30.7955C33.0957 30.5482 33.026 30.3124 32.8884 30.0867C32.7508 29.8617 32.5276 29.6856 32.2175 29.5586C32.0279 29.4811 31.798 29.456 31.5289 29.4828C31.2592 29.5096 30.9834 29.5967 30.7021 29.7432C30.5933 29.8001 30.504 29.8332 30.4355 29.8395C30.3688 29.8452 30.2979 29.8338 30.2233 29.8036Z" fill="#421B36"/>
<path d="M36.6014 31.444C36.495 31.3939 36.4295 31.3181 36.4063 31.2155C36.3824 31.1136 36.3934 31.0139 36.4387 30.9176C36.4791 30.8321 36.5476 30.7654 36.6448 30.7193C36.7426 30.6726 36.8472 30.676 36.9591 30.7284C37.2184 30.8475 37.4954 30.9717 37.7908 31.1016C38.0856 31.2321 38.3767 31.3557 38.6641 31.4731C38.9509 31.5904 39.2047 31.6924 39.4243 31.779C39.6438 31.8657 39.8034 31.9266 39.9037 31.9608C40.0407 32.0041 40.1214 32.077 40.1453 32.179C40.1685 32.2816 40.1581 32.3807 40.1128 32.4764C40.0676 32.5727 39.9985 32.6422 39.9074 32.6844C39.8156 32.7266 39.7037 32.7271 39.5722 32.6867C39.472 32.6525 39.3117 32.5932 39.091 32.5089C38.8702 32.4252 38.6182 32.3237 38.3351 32.2046C38.0519 32.0856 37.7602 31.9602 37.4594 31.8269C37.1579 31.6947 36.8723 31.5671 36.6014 31.444ZM36.4271 30.9421C36.4668 30.8435 36.5433 30.7757 36.6564 30.7387C36.7695 30.7022 36.8808 30.7056 36.9897 30.7506C37.1218 30.8048 37.1988 30.884 37.2221 30.9888C37.2441 31.0942 37.2154 31.2321 37.1346 31.4036C37.0668 31.5483 36.9799 31.7169 36.8753 31.9107C36.7702 32.1038 36.6613 32.3032 36.5469 32.5089C36.4332 32.7146 36.3243 32.9055 36.2204 33.0832C36.1164 33.261 36.029 33.4023 35.9586 33.5077L35.6786 33.3168C35.9415 33.2388 36.2351 33.2109 36.561 33.2319C36.887 33.2536 37.1989 33.3248 37.4979 33.4473C37.9174 33.6188 38.2489 33.8604 38.4935 34.1703C38.7375 34.4814 38.883 34.8261 38.9301 35.2062C38.9778 35.5856 38.9106 35.9685 38.7289 36.3537C38.5925 36.6431 38.4066 36.8955 38.1718 37.112C37.9358 37.3291 37.6734 37.4972 37.3835 37.6179C37.0937 37.7387 36.794 37.8048 36.484 37.8151C36.1739 37.8259 35.8755 37.7724 35.5887 37.655C35.3012 37.5376 35.0487 37.3878 34.8291 37.206C34.6102 37.0237 34.4334 36.8163 34.3001 36.5827C34.1668 36.3497 34.0794 36.103 34.0372 35.8432C34.0341 35.7913 34.0347 35.744 34.0378 35.6996C34.0408 35.6568 34.0506 35.6187 34.0653 35.5873C34.0959 35.5229 34.1381 35.4728 34.1925 35.4375C34.2463 35.4022 34.3093 35.3816 34.3809 35.3759C34.4518 35.3697 34.5227 35.3811 34.5918 35.409C34.6548 35.4346 34.7099 35.4814 34.757 35.5486C34.804 35.6158 34.8352 35.7064 34.8499 35.8209C34.8842 36.0391 34.9979 36.2562 35.1912 36.4716C35.3832 36.6881 35.6094 36.8482 35.8681 36.9542C36.1323 37.0624 36.3996 37.0915 36.6692 37.0425C36.9389 36.9935 37.186 36.879 37.411 36.6995C37.6355 36.52 37.8165 36.2858 37.9523 35.997C38.0685 35.7508 38.1082 35.5053 38.0727 35.2609C38.0367 35.0164 37.9388 34.7931 37.7774 34.5897C37.6159 34.3874 37.3976 34.229 37.1218 34.1162C36.9952 34.0644 36.8472 34.0228 36.6766 33.992C36.506 33.9607 36.3402 33.9418 36.1788 33.9362C36.0167 33.931 35.8816 33.9413 35.774 33.9669C35.6737 33.9903 35.585 34.0193 35.5067 34.0541C35.4284 34.0894 35.341 34.0866 35.2431 34.0467C35.1337 34.0022 35.0633 33.9236 35.0303 33.8114C34.9973 33.6986 35.0138 33.5886 35.078 33.4809C35.2419 33.1909 35.3868 32.9368 35.5128 32.7203C35.6388 32.5038 35.7538 32.3038 35.8577 32.1192C35.9617 31.9352 36.0589 31.75 36.15 31.5637C36.2399 31.3791 36.3329 31.1705 36.4271 30.9421Z" fill="#421B36"/>
<path d="M44.1708 41.2685C43.6595 41.0594 43.262 40.787 42.9789 40.4503C42.6951 40.1147 42.5367 39.7335 42.5043 39.3085C42.4713 38.8834 42.5685 38.4305 42.7954 37.9485C42.9819 37.5519 43.2327 37.1873 43.5476 36.8534C43.8619 36.5195 44.2179 36.2295 44.6148 35.9834C45.0116 35.7366 45.4299 35.5435 45.8684 35.4045C46.3075 35.2649 46.7472 35.1857 47.1869 35.168C47.6272 35.1498 48.0467 35.2034 48.4473 35.3281C48.5494 35.3578 48.6259 35.4256 48.6748 35.5321C48.7243 35.6381 48.7262 35.7395 48.6803 35.8364C48.6399 35.9218 48.5696 35.9765 48.4699 35.9993C48.3702 36.0221 48.2057 36.0221 47.977 35.9987C47.5722 35.9418 47.1881 35.9366 46.8237 35.9822C46.4592 36.0278 46.102 36.1292 45.7504 36.2853C45.3994 36.442 45.0337 36.6625 44.6527 36.9474C44.915 36.9138 45.1884 36.9143 45.4746 36.948C45.7602 36.9821 46.0091 37.042 46.2213 37.1291C46.6059 37.2864 46.9142 37.5194 47.1459 37.8277C47.3771 38.1365 47.5147 38.4812 47.5581 38.8629C47.6009 39.2441 47.5355 39.6196 47.3612 39.9888C47.2205 40.2885 47.0322 40.5466 46.7967 40.7631C46.5613 40.9802 46.2965 41.1454 46.0024 41.261C45.7082 41.3767 45.4036 41.4371 45.0893 41.4428C44.7756 41.4485 44.4692 41.3904 44.1708 41.2685ZM44.4869 40.5745C44.7511 40.6827 45.0178 40.7164 45.2869 40.6765C45.5559 40.6366 45.8024 40.5312 46.0262 40.3614C46.25 40.1916 46.4261 39.9705 46.5552 39.6976C46.6818 39.4298 46.7356 39.1729 46.7179 38.9262C46.7007 38.6795 46.6176 38.4607 46.4677 38.2681C46.3185 38.0761 46.1063 37.9234 45.8305 37.8111C45.6232 37.7268 45.411 37.6687 45.1927 37.6368C44.9743 37.6055 44.7548 37.6032 44.5328 37.6305C44.3114 37.6579 44.0833 37.716 43.8497 37.8054C43.8338 37.8248 43.8057 37.8658 43.7659 37.9291C43.7256 37.9923 43.6864 38.0584 43.6479 38.1251C43.6094 38.1929 43.58 38.2476 43.5592 38.2903C43.4106 38.6059 43.3501 38.9131 43.377 39.2116C43.4045 39.5102 43.5134 39.7774 43.7029 40.0144C43.8925 40.2514 44.1543 40.4383 44.4869 40.5745Z" fill="#421B36"/>
<path d="M49.7006 36.9039C49.6217 36.8526 49.5734 36.7848 49.5551 36.7005C49.5367 36.6167 49.5471 36.5312 49.5875 36.4458C49.6199 36.3763 49.6664 36.3182 49.7257 36.272C49.785 36.2264 49.8535 36.2002 49.9324 36.1939C50.0107 36.1877 50.0932 36.2088 50.1801 36.2572C50.5415 36.4498 50.8485 36.6127 51.0998 36.7477C51.3512 36.8828 51.583 37.0013 51.7952 37.1038C52.0068 37.2064 52.2312 37.3055 52.4666 37.4018C52.7021 37.4981 52.9816 37.6092 53.3057 37.7357C53.4115 37.7733 53.4824 37.8417 53.5173 37.942C53.5521 38.0428 53.5485 38.1385 53.505 38.2291C53.4647 38.3146 53.3778 38.3927 53.2458 38.4627C53.1131 38.5334 52.918 38.6536 52.6605 38.8217C52.4544 38.9544 52.1902 39.1447 51.8679 39.3926C51.5457 39.6404 51.1946 39.931 50.8149 40.2643C50.4351 40.5971 50.0541 40.9634 49.6713 41.3623C49.2885 41.7605 48.9344 42.181 48.6103 42.6226C48.5442 42.7046 48.4647 42.7496 48.3711 42.7593C48.277 42.769 48.1901 42.757 48.11 42.7245C48.0293 42.6921 47.9657 42.6419 47.9186 42.5747C47.8715 42.5075 47.8477 42.434 47.8477 42.3548C47.8477 42.275 47.8752 42.1981 47.9302 42.1252C48.5797 41.2996 49.3147 40.5127 50.1354 39.7669C50.9561 39.0205 51.8416 38.3665 52.7914 37.8035L52.8586 38.4246C52.4917 38.2747 52.178 38.1465 51.9199 38.0405C51.6612 37.9346 51.4252 37.832 51.2124 37.7323C50.9983 37.6326 50.7757 37.5169 50.5427 37.387C50.3085 37.256 50.0284 37.0953 49.7006 36.9039Z" fill="#421B36"/>
<path d="M53.9117 45.241C53.4463 45.0507 53.0702 44.8199 52.7828 44.5499C52.496 44.2787 52.3101 43.9903 52.2251 43.6844C52.1395 43.379 52.17 43.0702 52.3162 42.7597C52.4899 42.3905 52.7804 42.1056 53.1864 41.9045C53.5925 41.7039 54.1282 41.5666 54.7923 41.4942C54.4682 41.1062 54.2707 40.7541 54.2004 40.4385C54.1307 40.1217 54.1728 39.7981 54.3288 39.4665C54.4474 39.2152 54.6419 39.0215 54.911 38.8859C55.1801 38.7503 55.4901 38.6813 55.8411 38.6773C56.1922 38.6745 56.5456 38.7451 56.9016 38.891C57.2459 39.0317 57.5272 39.2232 57.7455 39.4659C57.9638 39.708 58.1051 39.9718 58.1693 40.2567C58.2341 40.5416 58.2029 40.8179 58.0776 41.0851C57.9461 41.3637 57.7051 41.5768 57.3553 41.7238C57.0049 41.8708 56.5756 41.9529 56.0686 41.9683C56.4869 42.4326 56.7713 42.8901 56.9217 43.3414C57.0728 43.7926 57.0673 44.1892 56.9058 44.5316C56.7903 44.7778 56.6227 44.976 56.405 45.1259C56.1873 45.2763 55.9396 45.3789 55.6632 45.4358C55.3868 45.4917 55.0975 45.5025 54.7948 45.4683C54.4933 45.4341 54.1985 45.3589 53.9117 45.241ZM55.6693 41.4213C56.1383 41.3706 56.5004 41.3005 56.7554 41.2099C57.0104 41.1193 57.1884 40.9672 57.2887 40.753C57.3565 40.6083 57.3706 40.4601 57.3296 40.3057C57.2893 40.1519 57.2055 40.0089 57.0789 39.8778C56.9523 39.7462 56.789 39.6397 56.5878 39.557C56.3695 39.4676 56.1579 39.418 55.9543 39.4078C55.75 39.3975 55.5727 39.4254 55.4216 39.4915C55.2706 39.5576 55.1642 39.6567 55.1012 39.7912C54.9899 40.0265 54.985 40.2772 55.0865 40.5416C55.188 40.8071 55.3819 41.1005 55.6693 41.4213ZM54.2071 44.5481C54.4823 44.6609 54.7483 44.7265 55.0033 44.7447C55.2583 44.7624 55.4852 44.7248 55.684 44.6302C55.8827 44.5356 56.0326 44.3818 56.1335 44.1681C56.2417 43.9374 56.2087 43.6439 56.035 43.2856C55.8607 42.9272 55.5727 42.5283 55.1697 42.0896C54.5924 42.166 54.1374 42.2771 53.8059 42.4218C53.4739 42.5671 53.2427 42.779 53.1112 43.0571C53.0305 43.228 53.0244 43.4052 53.091 43.5892C53.1589 43.7733 53.2879 43.9488 53.48 44.1168C53.6714 44.2843 53.9142 44.4285 54.2071 44.5481Z" fill="#421B36"/>
<path d="M64.6842 42.1973C64.7588 42.1255 64.8371 42.0827 64.9196 42.0685C65.0016 42.0537 65.0774 42.0611 65.1465 42.089C65.215 42.1169 65.2761 42.158 65.33 42.2121C65.3832 42.2657 65.4199 42.3255 65.4407 42.3916C65.4608 42.4577 65.4547 42.5249 65.4217 42.5944C65.4137 42.6109 65.3991 42.6314 65.3764 42.6571C65.3538 42.6833 65.3104 42.7277 65.2468 42.791C64.9869 43.036 64.7362 43.2747 64.4928 43.5071C64.25 43.7396 64.0041 43.9698 63.7571 44.1966C63.5094 44.4245 63.2532 44.6558 62.9878 44.8922C62.7223 45.1281 62.438 45.3794 62.1353 45.6443C62.5205 45.8147 62.8997 45.9845 63.2727 46.1525C63.6458 46.3212 64.0182 46.491 64.3894 46.6613C64.5882 46.2961 64.782 45.948 64.9692 45.6158C65.1563 45.2837 65.3556 44.9441 65.5672 44.5965C65.629 44.494 65.7146 44.4285 65.8241 44.4C65.9336 44.3715 66.0375 44.3772 66.1348 44.4171C66.2785 44.4757 66.3543 44.5612 66.3635 44.6734C66.3726 44.7851 66.3415 44.9008 66.2723 45.0193C66.199 45.1617 66.1134 45.3167 66.0173 45.4842C65.9207 45.6523 65.8223 45.8255 65.7207 46.0044C65.6192 46.1833 65.5208 46.3599 65.4248 46.5349C65.3287 46.7092 65.2413 46.8665 65.1618 47.0061C65.2395 47.0442 65.319 47.0795 65.3991 47.1126C65.4792 47.1451 65.5556 47.1804 65.6278 47.2157C65.7226 47.2613 65.7929 47.3268 65.8388 47.4123C65.884 47.4978 65.884 47.5883 65.8388 47.6852C65.7678 47.8351 65.6718 47.9154 65.5501 47.9262C65.4284 47.9376 65.3018 47.916 65.1697 47.8618C65.1116 47.8379 65.0517 47.81 64.9881 47.7781C64.9245 47.7456 64.8627 47.7137 64.8016 47.6824C64.7251 47.8299 64.6499 47.9781 64.5765 48.1268C64.5032 48.2755 64.4304 48.4225 64.3582 48.5689C64.2861 48.7148 64.2163 48.8601 64.1478 49.0042C64.1099 49.0845 64.061 49.1409 64.0011 49.174C63.9405 49.207 63.8751 49.223 63.8036 49.223C63.732 49.2219 63.6617 49.2076 63.5926 49.1797C63.5002 49.1421 63.4256 49.0794 63.3669 48.9922C63.3094 48.9045 63.3051 48.8071 63.3559 48.7005C63.4262 48.5507 63.499 48.3997 63.5736 48.2487C63.6482 48.0972 63.7234 47.9445 63.7999 47.7912C63.8757 47.6368 63.9522 47.4858 64.0286 47.3388L61.2216 46.0762C61.103 46.0084 61.0308 45.936 61.0057 45.8586C60.9807 45.7811 60.9862 45.7047 61.021 45.6301C61.0492 45.5714 61.0852 45.5156 61.1305 45.4637C61.1751 45.4119 61.2241 45.3589 61.2779 45.3036C61.3097 45.2791 61.4094 45.1902 61.5775 45.0381C61.7451 44.8865 61.9573 44.694 62.2148 44.4609C62.4716 44.2279 62.7474 43.9772 63.0422 43.7077C63.3363 43.4388 63.628 43.1733 63.9155 42.9112C64.2041 42.6502 64.4597 42.4121 64.6842 42.1973Z" fill="#421B36"/>
<path d="M68.5834 44.6335C68.4568 44.5817 68.3816 44.5087 68.3572 44.4164C68.3327 44.3236 68.3431 44.2284 68.3883 44.1321C68.4311 44.041 68.499 43.9698 68.5914 43.919C68.6843 43.8672 68.7938 43.8678 68.9204 43.919C69.1038 43.9943 69.3387 44.0917 69.6249 44.2119C69.9111 44.3321 70.2211 44.47 70.5556 44.6261C70.8896 44.7817 71.2265 44.9469 71.5659 45.1207C71.9053 45.2944 72.2221 45.4762 72.5163 45.6671C72.5951 45.7183 72.6441 45.7844 72.6636 45.8659C72.6832 45.948 72.6734 46.0311 72.6324 46.1172C72.6202 46.1439 72.5976 46.1741 72.564 46.2083C72.5309 46.2425 72.4722 46.291 72.3884 46.3519C71.9634 46.6567 71.509 46.9786 71.0247 47.3165C70.5397 47.6544 70.0493 47.9945 69.5527 48.3375C69.0555 48.6799 68.5785 49.0127 68.1211 49.3363C67.6637 49.6605 67.2527 49.9614 66.8888 50.24C66.8295 50.2924 66.7622 50.3192 66.687 50.3197C66.6112 50.3209 66.5415 50.3083 66.4785 50.2827C66.4381 50.2662 66.3996 50.2462 66.3635 50.2217C66.3268 50.1967 66.2987 50.171 66.2779 50.1431C66.2375 50.0821 66.2143 50.0217 66.2088 49.9619C66.2027 49.9021 66.2125 49.8457 66.2375 49.7916C66.2877 49.6844 66.3812 49.5819 66.5164 49.4839C66.5617 49.4452 66.6895 49.3523 66.8998 49.2047C67.1096 49.0577 67.3744 48.8725 67.6955 48.6498C68.0159 48.427 68.3675 48.1825 68.7491 47.9176C69.1314 47.6521 69.5185 47.3826 69.9105 47.1097C70.3031 46.8362 70.6761 46.5753 71.029 46.3268C71.3818 46.079 71.6876 45.8636 71.9445 45.6813L71.9322 46.2317C71.5574 46.0084 71.1916 45.8078 70.8339 45.6289C70.4761 45.4511 70.1135 45.2825 69.7472 45.1224C69.3784 44.9634 68.9907 44.8005 68.5834 44.6335Z" fill="#421B36"/>
<path d="M73.0516 48.0199C73.0149 48.0245 72.9794 48.0239 72.944 48.0194C72.9085 48.0142 72.8767 48.0057 72.8479 47.9943C72.7788 47.9658 72.725 47.9196 72.6865 47.8564C72.648 47.7926 72.6266 47.7242 72.6247 47.6496C72.6223 47.5755 72.6345 47.5083 72.662 47.4502C72.6877 47.3966 72.7256 47.3516 72.7776 47.3151C72.8284 47.2787 72.8908 47.2559 72.9629 47.2473C73.2589 47.2148 73.5298 47.1778 73.7769 47.1345C74.0233 47.0918 74.2753 47.032 74.534 46.9562C74.7927 46.8804 75.0844 46.7739 75.4085 46.6388C75.4684 46.6126 75.5259 46.6001 75.5791 46.6029C75.6329 46.6058 75.6879 46.6189 75.7454 46.6422C75.9179 46.7129 76.0102 46.8115 76.0225 46.9374C76.0347 47.0639 76.006 47.1641 75.9375 47.2376C75.7412 47.4507 75.5014 47.7715 75.2177 48.1977C74.9351 48.6244 74.6544 49.1321 74.3774 49.7207C74.2465 49.9993 74.1181 50.2785 73.9927 50.5594C73.8674 50.8397 73.7377 51.1217 73.6044 51.4054C73.5188 51.5872 73.4271 51.7781 73.3298 51.9781C73.232 52.1775 73.1378 52.3604 73.0449 52.5273C72.9855 52.6242 72.9042 52.6914 72.8015 52.729C72.6981 52.766 72.5862 52.7603 72.4657 52.7113C72.3679 52.6714 72.2951 52.6002 72.2474 52.4977C72.1997 52.3951 72.2046 52.2983 72.2609 52.2065C72.363 52.0185 72.467 51.8168 72.5715 51.6009C72.6767 51.3855 72.777 51.1758 72.873 50.9724C72.9941 50.716 73.1121 50.4562 73.2289 50.1941C73.3457 49.932 73.4656 49.6705 73.5891 49.4079C73.6998 49.172 73.8154 48.9418 73.9353 48.7162C74.0551 48.4911 74.1854 48.2683 74.3267 48.049C74.4673 47.8291 74.6184 47.6143 74.7786 47.4052L75.0299 47.6131C74.7101 47.7248 74.3841 47.8148 74.0502 47.8826C73.7176 47.9504 73.3843 47.9966 73.0516 48.0199Z" fill="#421B36"/>
<path d="M79.662 50.474C79.6259 50.478 79.5911 50.4768 79.5568 50.4688C79.5226 50.4614 79.4877 50.4506 79.4535 50.4364C79.3844 50.4085 79.33 50.3634 79.2902 50.3025C79.2505 50.2421 79.229 50.1743 79.2266 50.0996C79.2242 50.025 79.2364 49.9589 79.2645 49.8996C79.292 49.841 79.3312 49.7931 79.3832 49.7566C79.4345 49.7207 79.4963 49.698 79.5691 49.6888C79.6608 49.682 79.7911 49.6683 79.9586 49.6472C80.1262 49.6256 80.3152 49.5954 80.5267 49.5538C80.7377 49.5128 80.9505 49.4609 81.1646 49.3983C81.3792 49.3356 81.5749 49.2609 81.7529 49.1749C81.8128 49.1487 81.8734 49.1362 81.9345 49.1384C81.9951 49.1413 82.0538 49.1544 82.1113 49.1778C82.1804 49.2057 82.2415 49.2501 82.2959 49.3105C82.3491 49.3703 82.3797 49.4404 82.3871 49.5202C82.3938 49.6 82.3601 49.6814 82.2861 49.7658C82.0972 50.0079 81.8978 50.2854 81.6887 50.5993C81.4795 50.9121 81.271 51.242 81.0637 51.5879C80.8558 51.9337 80.6564 52.2778 80.4644 52.6208C80.2723 52.9633 80.0962 53.2903 79.9354 53.6008C79.7752 53.9125 79.6394 54.1854 79.5287 54.4207C79.4731 54.5386 79.4186 54.6537 79.366 54.766C79.3134 54.8782 79.2633 54.9916 79.2162 55.1067C79.1685 55.2081 79.0921 55.2759 78.9869 55.3095C78.8817 55.3431 78.7722 55.3363 78.6573 55.2896C78.4909 55.2212 78.4084 55.1272 78.4102 55.007C78.412 54.8868 78.4365 54.7688 78.4842 54.6543C78.7282 54.0777 79.0083 53.4948 79.3232 52.9057C79.6388 52.3166 79.9605 51.7605 80.2889 51.2374C80.6172 50.7144 80.9181 50.2569 81.1921 49.8643L81.4502 50.1236C81.1603 50.2153 80.8661 50.2916 80.5671 50.3509C80.2687 50.4107 79.9672 50.4517 79.662 50.474Z" fill="#421B36"/>
<path d="M83.198 57.1468C82.7784 56.9753 82.4421 56.7451 82.1877 56.4562C81.9333 56.1674 81.7559 55.8426 81.655 55.482C81.5535 55.1219 81.5278 54.7447 81.5767 54.3493C81.6257 53.9544 81.7406 53.5647 81.9223 53.179C82.1186 52.7619 82.3797 52.3785 82.7044 52.0298C83.0298 51.6811 83.3961 51.3939 83.804 51.1677C84.2119 50.9421 84.6424 50.8054 85.0968 50.7581C85.5506 50.7108 86.0043 50.7797 86.4581 50.9655C86.6073 51.0264 86.7528 51.0988 86.8953 51.1825C87.0372 51.2663 87.1748 51.3637 87.3069 51.4754C87.4653 51.6036 87.5069 51.7483 87.4311 51.909C87.4029 51.9682 87.3632 52.0167 87.3106 52.056C87.258 52.0953 87.2005 52.1226 87.1387 52.1386C87.0757 52.1545 87.0146 52.158 86.9534 52.1494C86.8929 52.1403 86.8415 52.1147 86.7999 52.0719C86.7321 52.0121 86.6299 51.9392 86.4936 51.8509C86.3566 51.7631 86.2398 51.6993 86.1419 51.6594C85.8031 51.521 85.4637 51.4737 85.1255 51.517C84.7867 51.5603 84.4626 51.672 84.1556 51.8526C83.848 52.0326 83.5704 52.2628 83.3227 52.5414C83.0744 52.82 82.872 53.1277 82.713 53.465C82.5546 53.8023 82.4568 54.1259 82.4201 54.4365C82.3834 54.7464 82.4023 55.0341 82.4769 55.2974C82.5509 55.5612 82.6751 55.7919 82.8488 55.9908C83.0224 56.1896 83.2444 56.344 83.5141 56.4545C83.8762 56.6021 84.2174 56.6522 84.5378 56.6044C84.8583 56.5571 85.1518 56.4426 85.4191 56.2614C85.6857 56.0802 85.9199 55.8597 86.1211 55.6005C86.3217 55.3407 86.4868 55.0751 86.6153 54.8017C86.7639 54.486 86.8739 54.1835 86.9455 53.8935C87.017 53.6035 87.0556 53.3402 87.0611 53.1026C87.0666 52.8656 87.0433 52.6639 86.9926 52.4958C86.9761 52.4001 86.9761 52.309 86.9926 52.2229C87.0085 52.1375 87.0421 52.0634 87.0923 52.0002C87.14 51.9426 87.2036 51.9022 87.2837 51.8777C87.3638 51.8526 87.4445 51.856 87.5265 51.8856C87.6078 51.9158 87.6738 51.9791 87.724 52.0765C87.8298 52.2731 87.8897 52.5033 87.9025 52.7671C87.9154 53.0309 87.8989 53.3055 87.8536 53.5898C87.809 53.8747 87.7442 54.1504 87.6604 54.4154C87.5766 54.6814 87.4892 54.9099 87.3987 55.1031C87.2048 55.515 86.9608 55.8865 86.6691 56.217C86.3761 56.5474 86.0465 56.8146 85.6802 57.0186C85.3133 57.2226 84.9201 57.3411 84.4999 57.3741C84.0798 57.4049 83.6456 57.3297 83.198 57.1468Z" fill="#421B36"/>
<path d="M89.4734 59.7503C89.0887 59.5931 88.7762 59.3652 88.5371 59.0661C88.2974 58.7675 88.1298 58.4257 88.0332 58.0416C87.9359 57.6576 87.9115 57.2548 87.9592 56.8343C88.0069 56.4133 88.1249 56.0025 88.3139 55.6008C88.5035 55.1991 88.7377 54.847 89.0171 54.5433C89.2972 54.2402 89.6165 53.9906 89.9754 53.7964C90.3344 53.6015 90.7209 53.471 91.1361 53.4044C91.1863 53.3998 91.2291 53.3992 91.2646 53.4044C91.2994 53.4089 91.3294 53.4163 91.352 53.4254C91.4211 53.4534 91.4737 53.4978 91.5104 53.5576C91.5471 53.6169 91.5679 53.683 91.5716 53.7548C91.5752 53.8271 91.5636 53.8921 91.5361 53.9508C91.508 54.01 91.4707 54.0567 91.423 54.0915C91.3759 54.1262 91.3104 54.1519 91.2273 54.169C91.0083 54.2265 90.768 54.3194 90.505 54.4482C90.2421 54.5769 89.9901 54.7558 89.7479 54.986C89.5064 55.2156 89.2991 55.513 89.1285 55.8766C88.9945 56.1603 88.8991 56.4611 88.8422 56.779C88.7841 57.0975 88.7756 57.4081 88.8141 57.7112C88.8533 58.0137 88.9536 58.2844 89.115 58.5231C89.2764 58.7612 89.5064 58.9419 89.8054 59.0644C90.1155 59.1914 90.4243 59.2336 90.7307 59.1931C91.0377 59.1527 91.3318 59.0484 91.6138 58.8792C91.8951 58.71 92.1489 58.498 92.3757 58.2428C92.602 57.9875 92.7867 57.7072 92.9304 57.4024C93.0943 57.0542 93.2007 56.7056 93.249 56.3552C93.2973 56.0048 93.2857 55.6697 93.2136 55.3495C93.1414 55.0305 93.0062 54.7467 92.8075 54.4989C92.6087 54.2516 92.3458 54.0607 92.0186 53.9268C91.944 53.8966 91.8443 53.8653 91.7183 53.8334C91.593 53.8015 91.5018 53.7798 91.445 53.769C91.3257 53.7462 91.2273 53.687 91.149 53.5907C91.0707 53.4949 91.0634 53.3804 91.1264 53.246C91.1618 53.1708 91.2144 53.1138 91.2835 53.0762C91.3532 53.0374 91.445 53.0278 91.5581 53.0494C91.8321 53.0785 92.0926 53.1434 92.3397 53.2442C92.8105 53.4368 93.1842 53.6949 93.46 54.0186C93.7358 54.3416 93.9217 54.708 94.0165 55.1171C94.1113 55.5256 94.1309 55.9535 94.0752 56.3996C94.019 56.8457 93.8979 57.2896 93.7107 57.73C93.5383 58.1254 93.2979 58.4821 92.9909 58.8C92.6833 59.1179 92.3341 59.3772 91.9415 59.5771C91.5495 59.7777 91.1398 59.8973 90.7136 59.9372C90.2898 59.9771 89.8758 59.9144 89.4734 59.7503Z" fill="#421B36"/>
<path d="M21.1828 36.4346C21.1828 36.4346 19.775 38.7358 20.1102 39.2002C20.4453 39.6645 72.5549 59.8369 72.8545 59.4051C73.1542 58.9732 73.9975 56.9443 73.8844 56.7015C73.7706 56.4577 23.6871 37.1542 21.1828 36.4346Z" fill="#421B36"/>
<path d="M19.0207 43.9404C19.0207 43.9404 17.6129 46.2417 17.9481 46.7061C18.2832 47.1704 36.1904 54.0753 36.4901 53.6435C36.7897 53.2116 37.633 51.1827 37.5199 50.9394C37.4061 50.6961 21.525 44.6606 19.0207 43.9404Z" fill="#421B36"/>
<path d="M89.4838 83.5749C85.8959 83.5749 55.3506 71.5649 49.089 69.0882C30.528 61.7445 9.64809 53.0312 7.66547 51.2518C4.93432 48.8013 23.8004 10.5532 28.1045 2.94349C29.8162 -0.0830804 30.04 -0.0414916 30.3274 0.0143449C37.1437 1.32366 58.3092 9.55955 76.261 17.1414C84.7548 20.728 112.447 32.6007 112.172 34.7646C112.008 36.0631 106.586 48.9329 101.847 59.572C97.1361 70.1491 91.2127 82.8929 89.745 83.5367C89.6869 83.5618 89.5988 83.5749 89.4838 83.5749ZM30.3195 0.644502C28.4518 2.54067 8.52836 42.596 8.02261 50.0137C7.97858 50.6547 8.11068 50.7926 8.12536 50.8057C11.898 54.1912 84.6545 82.9846 89.3359 82.9846C89.3933 82.9846 89.4398 82.9806 89.4765 82.9721C90.1816 82.6479 93.6992 76.2529 101.243 59.3128C106.872 46.6749 111.386 35.7007 111.513 34.6917C111.203 33.5772 98.7261 27.2905 75.4771 17.4883C57.8677 10.0644 37.1425 2.00509 30.3195 0.644502Z" fill="#421B36"/>
<path d="M7.25465 53.699C7.25465 53.699 4.08807 33.583 6.76296 29.5662C9.43786 25.5488 89.5207 11.6176 91.1101 14.9114C92.6989 18.2052 93.067 26.4359 93.067 26.4359L110.029 25.7534L113.838 45.5788L7.25465 53.699Z" fill="#A0D2F4"/>
<path d="M5.7207 43.0167C5.7207 43.0167 22.159 39.3502 35.6356 51.9904L6.35121 50.2196L5.7207 43.0167Z" fill="#8380FF"/>
<g opacity="0.2">
<path d="M63.9818 48.0098C63.9818 47.6144 63.9818 47.2184 63.9818 46.823C64.5396 46.823 64.6637 47.2788 64.9609 47.599C64.8392 47.8012 64.7279 47.9858 64.5995 48.1978C64.3683 48.1277 64.1751 48.0685 63.9818 48.0098ZM64.9101 43.9354C64.5934 43.6756 64.3891 43.3514 63.9818 43.2614C63.9818 43.311 63.9818 43.3605 63.9818 43.4101C63.9818 43.7565 63.9818 44.1024 63.9818 44.4482C64.4252 44.5963 64.778 44.3126 64.9101 43.9354ZM91.5361 41.0165C92.4889 39.9807 90.7417 38.6794 90.0586 40.0502C90.1926 40.8957 90.6323 41.4068 91.5361 41.0165ZM94.3009 39.7106C93.7805 40.5271 93.5921 40.1773 94.3761 41.0519C94.784 41.0746 95.1987 41.098 95.6127 41.1202C95.7735 40.0872 95.7044 39.9363 94.8574 39.4844C94.6819 39.5562 94.4911 39.6331 94.3009 39.7106ZM91.8792 43.7252C91.3013 42.8118 90.2598 42.8603 89.9865 43.94C90.5081 45.0932 91.5392 44.9188 91.8792 43.7252ZM99.5168 42.1253C99.688 42.7896 100.517 43.446 101.017 42.6882C101.734 41.2581 100.196 40.6627 99.5168 42.1253ZM96.2046 39.2263C96.4144 39.2964 96.6113 39.3614 96.9091 39.4605C97.4516 39.0731 97.5635 38.6082 97.4436 38.2532C96.9226 38.3295 96.3912 38.407 95.8499 38.4857C95.9735 38.7449 96.0897 38.987 96.2046 39.2263ZM102.472 41.1909C102.746 40.9675 103.022 40.743 103.303 40.5146C103.303 40.2946 103.303 40.0764 103.303 39.8468C101.834 38.8879 100.716 40.7846 102.472 41.1909ZM111.835 41.3168C111.609 41.3134 111.423 41.3966 111.298 41.5367C111.654 41.4763 111.845 41.4433 111.845 41.4433L111.835 41.3168ZM77.725 41.2695C77.2052 41.58 76.6781 41.6518 76.5741 42.2586C77.437 43.1776 78.1005 43.2813 78.4607 41.9891C78.3671 41.5965 78.0436 41.4604 77.725 41.2695ZM88.0179 40.3847C87.9353 40.1078 87.8748 39.824 87.6259 39.6497C87.2547 39.701 86.8811 39.7522 86.505 39.8035C85.3962 40.6 87.4522 41.8239 88.0179 40.3847ZM89.7755 41.719C89.4459 41.5777 89.2019 41.4262 88.9181 41.2211C86.7912 42.2409 89.9577 44.255 89.7755 41.719ZM111.66 39.2092L111.554 37.9507C111.318 38.0817 111.107 38.2897 110.981 38.562C111.102 38.913 111.366 39.1238 111.66 39.2092ZM78.646 43.8038C78.7243 45.3701 80.6543 44.7268 80.2721 43.5685C79.7443 43.066 78.8307 42.9771 78.646 43.8038ZM93.5456 38.8178C93.0949 38.8822 92.6387 38.9472 92.177 39.0127C92.6571 39.5762 93.1628 39.4782 93.5456 38.8178ZM104.735 41.7019C104.612 41.1117 103.584 41.3914 103.505 41.8717C103.396 42.3048 103.554 42.6175 103.817 42.7845C104.243 42.7144 104.656 42.6466 105.052 42.5811C105.114 42.5144 105.17 42.4409 105.218 42.3526C105.167 41.9902 104.808 41.984 104.735 41.7019ZM97.4332 41.5663C97.21 41.4473 97.0314 41.3515 96.8241 41.2404C94.0306 42.0632 97.928 44.1776 97.4332 41.5663ZM91.985 42.2113C92.2516 42.4797 92.484 42.7127 92.736 42.9651C93.0992 42.7224 94.1505 42.2626 93.6166 41.784C92.7415 41.0781 92.2369 41.1236 91.985 42.2113ZM98.3658 41.2017C99.4562 40.7938 99.5149 40.6678 99.0923 39.6502C98.9095 39.5973 98.7132 39.5403 98.4802 39.4731C97.887 39.832 97.5751 40.7938 98.3658 41.2017ZM89.1315 44.7849C88.7872 44.8869 88.4912 44.9821 88.3127 45.2527C88.3121 45.2561 88.3127 45.2584 88.3127 45.2618C88.7077 45.2003 89.104 45.1387 89.4923 45.0783C89.3988 44.9775 89.2875 44.8784 89.1315 44.7849ZM107.706 37.8464C107.543 38.1928 107.39 38.5164 107.244 38.8264C108.015 39.7534 108.553 39.3625 109.005 38.468C108.785 37.9222 108.349 37.7848 107.706 37.8464ZM72.7923 42.3173C73.1262 42.5674 73.4259 42.7919 73.7421 43.0284C74.8917 42.3275 74.4734 41.6131 73.8723 41.453C73.6515 41.4803 73.4308 41.5077 73.2094 41.5344C72.9911 41.6643 72.8205 41.9088 72.7923 42.3173ZM106.785 37.3176C106.819 37.1575 106.852 36.998 106.886 36.8334C106.483 36.8955 106.056 36.9615 105.608 37.0299C105.777 37.2259 105.933 37.4168 106.106 37.6436C106.356 37.5239 106.566 37.423 106.785 37.3176ZM109.352 37.1969C110.372 37.8914 111.104 37.3006 110.583 36.2539C110.227 36.3103 109.759 36.3844 109.19 36.4744C108.994 36.6556 108.977 36.9046 109.352 37.1969ZM98.3456 43.0449C98.038 43.2921 97.8687 43.54 97.8063 43.7605C98.2888 43.683 98.7603 43.6067 99.2226 43.532C99.1089 43.3497 98.8697 43.2443 98.3456 43.0449ZM73.7384 44.9348C72.2578 45.4128 73.0816 46.6611 74.3328 46.1894C74.9236 45.5911 74.5939 45.006 73.7384 44.9348ZM100.428 39.2845C101.49 39.1762 101.344 38.2538 100.672 37.7763C100.489 37.8037 100.301 37.8316 100.114 37.8595C99.5198 38.2737 99.5467 39.0856 100.428 39.2845ZM80.7748 41.5652C79.9248 42.6631 81.6004 43.0204 82.3935 42.2865C81.908 41.7811 81.5172 41.0057 80.7748 41.5652ZM86.341 43.4135C86.02 44.1918 87.1269 45.0601 87.6913 44.2607C88.3402 43.5092 87.0584 42.7685 86.341 43.4135ZM109.647 41.0097C110.087 40.8747 110.336 41.1578 110.799 41.0353C110.805 40.5328 110.86 40.0981 110.767 39.6873C110.251 39.297 109.933 39.6804 109.573 39.8525C109.493 40.1807 109.751 40.5134 109.43 40.7789C109.359 40.8382 109.541 41.0536 109.647 41.0097ZM75.4293 43.3394C74.7835 44.1696 74.8074 44.3963 75.5932 44.7542C76.7985 44.4385 76.8725 43.1708 75.4293 43.3394ZM103.374 38.5586C103.662 38.9785 104.028 39.2668 104.698 39.2765C105.789 37.8863 104.147 37.2778 103.374 38.5586ZM94.0789 44.3559C94.559 44.2796 95.0305 44.2049 95.4959 44.1303C95.5411 44.0767 95.5974 44.0289 95.6377 43.9719C94.9375 42.8586 93.2533 43.5394 94.0789 44.3559ZM85.1975 44.9388C84.5028 45.1501 84.3242 45.5484 84.4434 45.8595C84.9541 45.7814 85.4629 45.7028 85.9643 45.6259C86.0023 45.2436 85.8469 45.1741 85.1975 44.9388ZM71.7527 44.6032C71.9759 44.4909 72.1808 44.3872 72.3789 44.2875C72.6511 43.6881 72.6431 43.3503 71.9001 43.1685C70.9479 43.3087 70.6837 44.3798 71.7527 44.6032ZM82.4994 43.5446C82.3373 44.6653 83.701 45.0294 84.0569 43.9417C83.8392 43.0426 83.1776 43.087 82.4994 43.5446ZM82.2841 45.3347C81.2726 44.0175 79.9572 46.0828 81.2353 46.3483C81.3851 46.3256 81.5368 46.3028 81.686 46.28C81.9239 46.0071 81.8609 45.5786 82.2841 45.3347ZM80.1785 40.8627C80.2195 40.7858 80.2458 40.7123 80.2678 40.6393C79.8489 40.694 79.4276 40.7487 79.0056 40.8034C79.2661 41.2011 79.5737 41.0809 80.1785 40.8627ZM65.5572 48.6468C65.614 48.6388 65.6703 48.6308 65.7272 48.6228C65.6819 48.6063 65.6379 48.5886 65.5883 48.5755C65.5749 48.6006 65.5688 48.6228 65.5572 48.6468ZM66.1265 42.8198C66.5185 42.6939 66.7209 42.5048 66.7778 42.2979C66.3326 42.3486 65.888 42.3988 65.4434 42.4489C65.5602 42.6734 65.7932 42.8403 66.1265 42.8198ZM65.4159 45.4208C65.4862 45.7114 65.5596 46.015 65.644 46.3592C66.1234 46.4885 66.4787 46.3808 66.8078 46.0994C66.8078 45.8869 66.8078 45.672 66.8078 45.3735C66.7038 45.2789 66.5564 45.1427 66.4378 45.0345C66.0195 45.0584 65.6947 45.1262 65.4159 45.4208ZM107.409 42.1902C107.961 42.0985 108.461 42.0148 108.917 41.9384C108.976 41.3971 108.184 41.0661 107.409 42.1902ZM70.6311 41.8478C70.1731 41.9025 69.7144 41.9572 69.2551 42.0108C69.323 43.5474 70.847 42.5019 70.6311 41.8478ZM82.5 40.3687C82.9268 41.2045 84.1719 41.012 84.0673 40.1351C83.5512 40.2046 83.0326 40.2741 82.5097 40.3436C82.5073 40.3528 82.5024 40.359 82.5 40.3687ZM77.3061 44.9906C76.99 45.1729 76.8499 45.4276 76.7643 45.7125C76.8634 46.3694 78.0155 46.5142 78.2742 45.8874C78.199 45.6265 78.1348 45.4031 78.0553 45.1279C77.7886 45.0789 77.5361 45.0328 77.3061 44.9906ZM68.7292 47.1249C68.5244 46.7079 67.9581 46.9249 67.5905 46.901C67.508 47.1101 67.445 47.2708 67.36 47.4867C67.8131 48.8143 68.6993 48.2274 68.7292 47.1249ZM74.9547 47.2879C75.4103 47.2207 75.8647 47.1534 76.316 47.0862C76.2763 47.0207 76.2268 46.9529 76.1613 46.8828C75.7155 46.803 75.1926 46.9449 74.9547 47.2879ZM68.3764 43.3708C67.8682 43.1981 67.5752 43.4221 67.2872 43.7611C67.182 45.3234 69.2423 44.5075 68.3764 43.3708ZM71.0256 47.4617C71.0782 47.6007 71.1442 47.722 71.2194 47.8354C71.5919 47.7813 71.9618 47.7272 72.3318 47.6736C72.4119 47.5283 72.4817 47.3768 72.5373 47.2184C72.0132 46.4583 71.5246 46.9945 71.0256 47.4617ZM70.6085 45.7706C70.5009 45.5752 70.3828 45.3627 70.2514 45.1239C68.0137 44.9342 69.6924 47.3449 70.6085 45.7706ZM84.7908 41.7247C83.7971 42.2797 84.9834 42.9013 85.71 42.6774C86.4138 42.0227 85.5601 41.343 84.7908 41.7247ZM106.29 39.5255C106.021 39.6582 105.796 39.7699 105.554 39.889C105.684 40.4513 105.963 40.857 106.52 41.0524C107.178 40.8422 106.492 40.3476 106.784 39.8981C106.588 39.7505 106.43 39.6303 106.29 39.5255ZM63.9818 48.0098C63.9818 47.6144 63.9818 47.2184 63.9818 46.823C63.5311 46.5768 63.2963 47.1095 63.1972 47.4212C63.355 47.7836 63.4724 48.1351 63.9818 48.0098ZM63.9818 44.4488C63.9818 44.1029 63.9818 43.7559 63.9818 43.4101C63.2364 43.405 62.8187 44.6111 63.9818 44.5975C63.9818 44.5473 63.9818 44.4983 63.9818 44.4488ZM29.1924 51.7018C29.6235 51.8397 29.895 51.6141 30.2424 51.5258C30.2112 51.1896 30.1843 50.8979 30.1568 50.6056C29.725 50.1914 29.725 50.1914 29.1343 50.2239C28.604 49.6792 28.6144 48.7812 27.7577 48.4849C27.5247 48.6815 27.1315 48.5721 26.9003 48.9544C27.3082 49.4222 27.2434 50.1418 28.105 49.8752C28.5154 49.7538 28.9031 50.3105 28.6958 50.6523C28.5148 51.0187 29.0627 51.4101 29.1924 51.7018ZM25.2075 51.6055C25.5628 52.1354 26.6453 51.8824 26.5676 51.2432C26.707 50.3868 25.5659 49.6319 25.1464 50.6535C24.7232 51.1645 24.7214 51.1651 25.2075 51.6055ZM19.977 44.7809C19.5642 44.973 19.1802 45.165 19.0878 45.6595C19.7935 47.4622 22.1932 45.6732 19.977 44.7809ZM11.9426 44.9678C10.7335 45.8857 12.8409 47.6269 13.2867 45.5763C12.9657 44.8601 12.6373 44.9017 11.9426 44.9678ZM17.252 47.6343C17.6232 48.1573 17.6268 48.159 18.5882 48.1288C19.9782 47.2195 17.6898 45.6179 17.252 47.6343ZM34.081 51.2346C34.2987 50.8495 34.2523 50.5794 33.8633 50.3578C33.1894 49.8131 32.8121 50.4831 32.4935 50.968C32.6879 51.8323 33.8676 52.2938 34.081 51.2346ZM19.681 53.4932C21.1903 53.8168 21.2882 52.4226 20.0235 51.8961C19.4101 52.3548 18.5784 53.0972 19.681 53.4932ZM34.5403 52.5793C35.0687 52.5223 35.6019 52.4642 36.1358 52.4049C35.5518 51.7223 34.8393 52.0813 34.5403 52.5793ZM32.5081 43.9878C32.8127 44.283 33.0224 44.7052 33.6401 44.7564C34.0871 44.5171 34.2235 44.2009 34.1887 43.9081C33.6364 43.8893 33.0897 43.8682 32.5461 43.8454C32.5344 43.8938 32.5179 43.9343 32.5081 43.9878ZM10.2896 53.7433C9.87431 54.0082 9.79971 54.1894 9.78748 54.4219C10.2859 54.4133 10.7977 54.4008 11.32 54.3854C11.2601 54.0641 10.9592 53.7757 10.2896 53.7433ZM11.4582 52.3525C11.542 53.1256 12.0153 53.5034 12.7736 53.7006C13.7393 52.6095 12.696 51.385 11.4582 52.3525ZM17.4238 50.8774C17.1596 51.5104 17.6372 51.6984 18.198 51.9383C20.2546 51.1041 17.8213 49.4171 17.4238 50.8774ZM9.13312 53.2744C9.77157 52.6169 9.08298 51.8551 8.24638 52.0819C7.01841 52.8869 8.00299 54.0914 9.13312 53.2744ZM23.3099 53.3462C24.1367 53.6829 24.3893 53.512 24.8039 52.8282C24.5385 52.3246 24.5385 52.3246 23.9423 52.0049C23.3754 52.0357 23.0867 52.3531 22.9338 52.8351C23.0457 52.9872 23.1644 53.1484 23.3099 53.3462ZM10.695 46.766C10.0125 46.9455 10.0125 46.9455 9.55815 47.6343C10.2865 49.2251 12.4752 47.3904 10.695 46.766ZM28.4609 45.4686C27.9405 44.6106 26.6104 44.957 26.9131 45.9877C27.3437 47.0731 28.4658 46.3791 28.4609 45.4686ZM10.5837 51.7594C11.3714 51.9178 11.608 50.8842 11.18 50.5031C9.92813 49.6661 8.9888 51.532 10.5837 51.7594ZM38.8101 52.1052C38.8969 52.0955 38.9838 52.0853 39.0712 52.0756C38.9874 52.063 38.9 52.0739 38.8101 52.1052ZM26.5853 43.74C26.5688 43.6585 26.534 43.5861 26.4906 43.5195C26.0441 43.4899 25.602 43.4597 25.1647 43.4283C24.5134 44.4579 26.2355 45.5609 26.5853 43.74ZM41.6428 46.9278C41.3248 46.9004 41.1083 46.7882 40.8692 46.6036C40.7138 46.6885 40.5793 46.762 40.4533 46.8315C40.3396 47.4001 40.3139 48.2445 41.1364 48.3186C41.4263 48.1095 41.7137 47.9027 42.0293 47.6759C41.8917 47.4087 41.7675 47.1694 41.6428 46.9278ZM22.2758 50.2945C20.9035 50.282 20.8026 51.434 22.0024 51.8858C22.2293 51.744 22.4635 51.5981 22.6788 51.4631C22.7907 50.6831 22.7907 50.6831 22.2758 50.2945ZM27.6623 52.087C26.9627 51.9012 26.9847 52.7171 26.9523 53.169C27.0697 53.2003 27.1779 53.2533 27.2849 53.3102C27.6806 53.2732 28.0751 53.2368 28.4756 53.198C28.7802 52.6459 28.3869 52.2608 27.6623 52.087ZM43.1918 48.5436C42.4127 48.747 42.4127 48.747 42.1925 49.3823C42.9025 51.1623 44.7751 49.1322 43.1918 48.5436ZM48.5361 48.3345C48.7416 48.2662 48.9348 48.2024 49.1458 48.1323C49.2559 47.5403 49.7579 47.3967 49.1415 46.8036C48.0181 46.5016 47.3228 47.7477 48.5361 48.3345ZM52.5282 48.2833C53.4694 48.0251 53.5361 47.2867 52.7802 46.7631C51.4959 46.6577 51.4103 48.0297 52.5282 48.2833ZM34.9898 44.9496C34.0933 45.5205 34.854 46.8423 35.7481 46.26C36.5107 45.5769 36.0551 44.6926 34.9898 44.9496ZM15.6754 45.1405C15.5133 45.3667 15.4192 45.5005 15.2553 45.729C15.44 45.9187 15.6742 45.9113 15.7647 46.1489C16.8172 47.1996 18.2268 44.3331 15.6754 45.1405ZM8.11062 46.3444C9.02732 46.7557 9.4921 45.7062 9.29518 44.9712C8.37053 44.622 7.22083 45.7142 8.11062 46.3444ZM13.691 54.2965C14.1429 54.2766 14.6034 54.2538 15.0688 54.2293C15.0205 54.1011 14.9263 53.9729 14.7722 53.8527C14.4536 53.4595 13.8469 53.9079 13.691 54.2965ZM19.4358 48.7784C18.8187 49.5635 19.8113 49.8564 20.4724 50.1885C21.2117 49.3322 20.4999 47.9323 19.4358 48.7784ZM46.0391 45.6327C45.8269 46.6167 47.0684 46.5153 47.5582 45.9398C48.0059 44.7536 46.3975 44.6169 46.0391 45.6327ZM13.5399 47.828C14.8498 49.0274 15.846 46.8475 14.2866 46.6013C13.8145 46.9876 13.8145 46.9876 13.5399 47.828ZM14.5116 51.8927C14.8559 51.5765 15.5299 50.4615 14.6633 50.4637C14.0591 50.5777 13.4989 50.1937 13.3234 50.9942C13.6543 51.4158 13.9007 51.8574 14.5116 51.8927ZM16.5108 53.4903C16.69 53.3598 16.8337 53.2556 16.9676 53.1581C16.8875 52.7 16.8049 52.2682 16.3713 51.9275C15.0327 52.4522 14.974 53.3387 16.5108 53.4903ZM8.15526 48.7174C7.49113 49.0616 7.88374 49.9954 8.5864 50.1162C9.33799 49.7789 9.35266 49.6097 9.36367 49.0257C9.30374 48.4781 8.55277 48.7351 8.15526 48.7174ZM17.529 54.0886C17.7962 54.0715 18.0708 54.0527 18.3424 54.0344C18.2237 54.0082 18.1118 53.9729 18.0384 53.8982C17.8103 53.8601 17.6403 53.9438 17.529 54.0886ZM11.6955 42.2637C11.5707 42.9885 13.176 42.9816 13.1907 42.2939C12.6581 42.2307 12.1505 42.1692 11.6674 42.1088C11.6735 42.1589 11.6802 42.209 11.6955 42.2637ZM10.5183 43.0226C9.67617 43.3503 9.53185 43.7719 10.1269 44.4545C10.4926 44.4915 10.832 44.5445 11.1916 44.6265C11.213 44.3542 11.3408 43.8186 11.4081 43.7252C11.1005 43.4984 10.8167 43.2699 10.5183 43.0226ZM33.7728 48.1858C35.202 46.8366 32.3082 45.9484 32.6861 48.0086C32.9882 48.338 33.3967 48.1579 33.7728 48.1858ZM36.8415 46.7916C36.0319 47.9386 37.8653 48.9151 38.1814 47.4634C37.8004 46.7836 37.6213 46.6959 36.8415 46.7916ZM36.8446 50.3372C36.2924 51.0096 36.293 51.0198 36.9308 51.7599C37.1571 51.7497 37.4133 51.7389 37.6628 51.7286C38.338 50.862 37.9808 50.3019 36.8446 50.3372ZM39.2755 44.7844C38.6621 45.0157 38.0561 45.6601 38.6156 46.2253C40.0607 46.5062 40.4093 45.5809 39.2755 44.7844ZM28.9899 44.6282C29.7397 44.7832 30.3262 44.3673 30.3641 43.7451C29.8828 43.7206 29.4046 43.6955 28.9312 43.6688C28.9618 43.9833 28.974 44.2294 28.9899 44.6282ZM48.2945 44.4317C48.204 44.6043 48.4462 44.7986 48.6669 44.7747C49.3097 44.6408 49.498 44.2351 49.4326 43.8608C49.0259 43.879 48.6186 43.8955 48.2126 43.9109C48.3532 44.0351 48.4492 44.1599 48.2945 44.4317ZM44.9469 50.172C44.2424 50.2541 43.9948 51.0899 44.3574 51.45C44.7641 51.4004 45.1701 51.3514 45.5787 51.3013C45.9071 50.9178 45.6789 50.3065 44.9469 50.172ZM54.7781 49.8267C55.866 49.5795 54.8564 48.3334 53.9011 48.4069C53.3722 49.1037 53.7966 49.9903 54.7781 49.8267ZM44.7433 46.7221C44.5928 46.8104 44.4216 46.9118 44.2754 46.9973C44.2302 47.9824 44.2302 47.9824 45.0026 48.2821C45.2582 48.0457 45.5157 47.8075 45.7701 47.5722C45.4918 46.9831 45.4918 46.9831 44.7433 46.7221ZM51.4085 49.1875C50.978 48.2343 49.3335 48.5351 49.9757 49.7492C50.5266 50.1834 51.5125 49.9435 51.4085 49.1875ZM36.652 44.4231C37.0342 44.5308 37.3742 44.4898 37.7429 44.4715C37.8701 44.3001 37.9435 44.1462 37.9876 44.0044C37.5173 43.9964 37.0488 43.9873 36.5822 43.9764C36.5847 44.1103 36.6012 44.255 36.652 44.4231ZM21.482 43.6819C21.3022 43.691 21.1793 43.6967 21.0307 43.7047C21.2142 44.2437 21.6221 44.4727 22.1095 44.6089C23.0433 44.4214 23.0586 43.5286 22.3681 43.2124C22.2061 43.1993 22.0452 43.1856 21.885 43.1719C21.7303 43.3189 21.5756 43.5223 21.482 43.6819ZM28.6365 47.297C28.8407 47.885 29.4798 48.2992 30.1072 47.9454C31.0753 47.019 29.1844 46.2042 28.6365 47.297ZM12.9644 48.8354C12.1927 48.3551 12.0912 48.3642 11.6203 48.988C11.7426 49.1288 11.871 49.2769 11.997 49.4211C11.9193 49.5288 11.849 49.6251 11.7609 49.7464C12.0832 49.8849 12.3156 50.0991 12.6678 50.0979C12.8372 49.9076 13.0005 49.7236 13.1546 49.5498C13.0886 49.2997 13.025 49.0644 12.9644 48.8354ZM40.276 51.1019C40.3897 51.5725 41.0936 51.985 41.562 51.6562C41.7669 51.3628 41.4556 51.0859 41.7113 50.7577C41.2734 49.9407 40.1341 50.2353 40.276 51.1019ZM6.51143 46.7341C6.372 46.8019 6.26988 46.8737 6.18426 46.9472L6.29067 48.171C7.46422 48.3716 7.89107 46.9819 6.51143 46.7341ZM56.4305 44.7912C56.6806 44.5564 56.9167 44.3348 57.1301 44.1337C57.0371 43.8539 57.0121 43.5662 56.8616 43.3468C56.4886 43.3827 56.1155 43.4169 55.7413 43.4494C55.6679 44.0522 55.781 44.5177 56.4305 44.7912ZM59.8643 48.0115C60.2037 48.4627 60.6214 47.9665 60.9376 47.7739C61.0385 47.4224 60.8024 47.1762 60.7009 46.8891C60.1854 46.8794 59.7059 46.766 59.2607 47.1312C59.2613 47.6144 59.6405 47.6953 59.8643 48.0115ZM39.2296 48.5032C38.6982 48.6872 38.231 48.8986 38.39 49.5692C39.6173 50.4751 40.7089 49.1459 39.2296 48.5032ZM34.5697 49.4137C34.5391 49.4325 34.5788 49.6034 34.629 49.6763C35.4521 50.6141 35.9254 49.8455 36.041 48.9744C35.8074 48.6154 35.3922 48.6206 34.9494 48.473C34.8185 48.8496 34.9042 49.2108 34.5697 49.4137ZM52.0659 50.4803C52.3344 50.4455 52.6035 50.4096 52.8725 50.3749C52.6175 50.2615 52.313 50.3036 52.0659 50.4803ZM13.9405 43.2016C13.9949 43.5303 13.65 43.5748 13.5118 43.7947C13.6084 44.2687 13.9215 44.5086 14.3117 44.7092C14.7135 44.5884 14.9581 44.3325 15.0492 43.9365C14.7495 43.7018 14.4107 42.5663 13.9405 43.2016ZM23.2757 49.7652C24.4101 50.3327 25.2338 49.2325 24.13 48.5003C23.971 48.514 23.768 48.5322 23.546 48.5528C23.5191 48.9015 23.3955 49.0353 23.1417 49.3037C23.1925 49.4769 23.2323 49.6165 23.2757 49.7652ZM44.169 44.0499C44.4968 44.7029 45.5114 44.5992 45.6649 43.9867C45.1628 43.9981 44.6619 44.0078 44.1623 44.0146C44.1666 44.0277 44.1641 44.0368 44.169 44.0499ZM30.9242 48.7288C30.8674 48.9903 30.8154 49.2245 30.7695 49.4353C31.1909 49.7886 31.6037 50.2113 32.1106 49.7487C32.1498 49.4564 32.184 49.1926 32.2164 48.9476C31.6226 48.4183 31.6226 48.4183 30.9242 48.7288ZM6.56586 44.7228C6.77318 44.4083 7.32418 44.4425 7.39696 43.9525C7.16946 43.1138 6.37201 42.9856 5.90234 43.7047L5.92558 43.9747C6.05156 44.2875 6.2448 44.5422 6.56586 44.7228ZM24.4504 46.2042C24.5373 45.8515 24.8137 45.5347 24.5422 45.1296C24.2058 45.092 23.8511 45.0533 23.4805 45.0123C23.1387 45.3666 23.2188 45.7706 23.2653 46.2304C23.6781 46.2657 24.0542 46.3261 24.4504 46.2042ZM6.78969 53.9034L6.83555 54.4327C7.03736 54.4355 7.25141 54.435 7.45872 54.4361C7.37433 54.2549 7.28993 54.0737 7.19515 53.8709C7.02819 53.8806 6.90038 53.8903 6.78969 53.9034ZM25.6497 48.326C25.9316 47.9602 26.3896 47.7562 26.5517 47.285C26.3169 46.4173 25.3035 46.8281 24.8797 47.4036C25.2026 47.6429 25.0761 48.1676 25.6497 48.326ZM57.7979 46.1256C57.9685 46.2014 58.1764 46.2954 58.3819 46.3877C58.6161 46.2635 58.8198 46.1552 59.024 46.0469C59.0876 45.5758 59.1445 45.1308 58.5158 44.9479C57.741 45.0499 57.4609 45.4191 57.7979 46.1256ZM42.3742 45.5279C42.206 46.8321 43.9507 46.554 43.9024 45.4874C43.3257 44.924 43.1741 44.9296 42.3742 45.5279ZM52.1393 44.4197C52.5087 44.5775 52.8909 44.7787 53.2963 44.3776C53.4137 44.0807 53.3624 43.83 53.2242 43.646C52.7435 43.679 52.2622 43.7098 51.7803 43.7388C51.776 43.7468 51.7699 43.7531 51.7656 43.7611C51.8947 43.9873 52.0151 44.1992 52.1393 44.4197ZM18.6353 43.2677C18.1797 43.3195 17.6709 43.1953 17.3651 43.7348C17.4752 45.2949 19.4933 44.4636 18.6353 43.2677ZM30.7316 52.9764C31.2288 52.9262 31.7315 52.8744 32.2348 52.8225C32.5742 51.8841 30.7169 51.7964 30.7316 52.9764ZM47.409 48.6177C46.9271 48.2542 46.5394 48.3015 46.1327 48.6958C46.3871 49.037 46.6024 49.3738 46.2862 49.731C47.2641 50.4153 47.5808 49.3481 47.409 48.6177ZM60.7804 43.9018C60.6348 43.6203 60.6526 43.2688 60.3236 43.0192C58.325 43.3526 60.4355 45.7866 60.7804 43.9018ZM61.3283 49.2376C61.8163 49.1704 62.3037 49.1026 62.7905 49.0348C62.563 48.2895 61.554 48.4331 61.3283 49.2376ZM41.2612 44.6146C41.562 44.4761 41.6678 44.2636 41.7382 44.0334C41.2673 44.034 40.7988 44.0328 40.331 44.0306C40.3273 44.0585 40.3163 44.0779 40.3139 44.1069C40.5194 44.4989 40.9315 44.5114 41.2612 44.6146ZM6.49004 50.4535L6.60133 51.7292C6.85206 51.7975 7.10402 51.7417 7.23184 51.4557C7.31623 51.0985 7.12848 50.8455 7.3364 50.4842C7.06121 50.4062 6.75239 50.388 6.49004 50.4535ZM22.3235 46.7711C21.5224 46.8019 20.6852 47.2224 21.589 47.8833C22.0887 47.8844 22.625 48.0639 22.88 47.4708C22.7711 47.1762 22.6507 46.9084 22.3235 46.7711ZM32.1345 45.3114C31.4282 44.6311 30.9597 45.0898 30.7194 45.721C31.0753 46.6481 32.7271 46.137 32.1345 45.3114ZM15.6503 49.7527C16.1726 50.2501 17.0648 49.8467 17.1021 49.1368C16.6686 48.4183 15.2057 48.902 15.6503 49.7527ZM62.4909 45.2225C61.7375 44.8721 61.299 45.3245 61.4568 46.0259C62.1178 47.1386 63.1624 46.0122 62.4909 45.2225ZM55.5933 47.2583C55.175 48.0274 56.1663 48.118 56.7699 48.0423C57.3955 46.9523 56.3828 46.4464 55.5933 47.2583ZM51.384 46.015C51.3161 45.7803 51.244 45.5302 51.1767 45.296C50.315 45.2031 50.3151 45.2031 49.8289 45.5752C49.8564 46.2897 51.0098 46.8116 51.384 46.015ZM57.9086 48.5431C57.6395 48.8291 57.5404 49.1282 57.7135 49.5025C57.9392 49.49 58.141 49.5926 58.3538 49.645C58.5177 49.6228 58.681 49.6005 58.8449 49.5783C59.4295 49 58.6455 48.2479 57.9086 48.5431ZM7.95162 42.4347C8.5173 42.8198 8.9992 42.6158 9.51717 42.3355C9.48598 42.1139 9.4285 41.943 9.35634 41.8091C9.00715 41.7618 8.67936 41.7168 8.37664 41.674C8.18829 41.845 8.02929 42.1082 7.95162 42.4347ZM16.4001 42.6529C16.1561 42.6272 15.9151 42.6016 15.6779 42.576C15.8858 42.7258 16.1567 42.7321 16.4001 42.6529ZM55.2062 45.8703C55.2117 45.2761 53.9024 44.9314 53.8125 45.6379C53.6131 46.4167 54.9132 46.5204 55.2062 45.8703ZM48.895 50.613C48.552 50.7327 48.2389 50.8421 47.8756 50.9685C47.8799 50.9845 47.8872 50.9976 47.8921 51.013C48.3544 50.9549 48.8174 50.8962 49.2803 50.8375C49.2748 50.817 49.273 50.7976 49.2656 50.776C49.1507 50.7252 49.0131 50.6643 48.895 50.613ZM61.8848 42.8477C61.8983 42.8415 61.9136 42.8386 61.9276 42.8329C61.9105 42.8346 61.8934 42.8369 61.8763 42.8386C61.8793 42.8415 61.8818 42.8443 61.8848 42.8477Z" fill="#421B36"/>
</g>
<path d="M106.098 42.7362C105.807 42.3385 105.516 41.9414 105.225 41.5437C104.819 40.991 104.623 41.0064 103.866 40.8885C102.213 40.6304 100.555 40.0993 99.2718 39.0624C97.6604 37.761 96.9003 35.8369 96.8636 33.8827C96.8556 33.4713 96.8892 32.8919 96.9418 32.6241C96.9846 32.4064 96.833 32.1027 96.5419 32.1352C84.8639 33.4286 73.2929 35.4062 61.6631 37.0107C50.0279 38.6162 38.2698 39.8395 26.4896 39.4686C19.8299 39.2589 13.2008 38.5188 6.70314 37.1309C6.18332 37.0198 5.96195 37.7644 6.48237 37.8761C17.9195 40.3193 29.6966 40.7055 41.3709 39.9512C53.1229 39.1917 64.7557 37.3696 76.3763 35.6335C83.0831 34.6313 89.7959 33.6553 96.5425 32.9084C96.4092 32.7454 96.2759 32.5825 96.1425 32.4195C95.8594 33.8656 96.063 35.4763 96.6275 36.8374C97.9301 39.9763 101.188 41.379 104.597 41.7568C104.477 41.6929 104.358 41.6291 104.238 41.5653C104.62 42.0855 105.001 42.6057 105.382 43.1265C105.681 43.5344 106.401 43.1487 106.098 42.7362Z" fill="#8380FF"/>
<path d="M90.0205 26.7908C89.9563 26.0746 89.8921 25.3579 89.8285 24.6417C89.804 24.3699 89.5845 24.2297 89.3038 24.2691C86.701 24.6354 84.0586 24.085 82.6789 21.8373C82.1322 20.9468 81.7622 19.8637 81.7219 18.8307C81.7115 18.564 81.4662 18.4113 81.1972 18.4581C72.3536 19.9884 63.4098 21.0351 54.5088 22.223C44.0857 23.6138 33.6485 25.0097 23.3128 26.8956C18.7684 27.7246 14.2124 28.626 9.79277 29.9279C9.48333 30.0191 9.34878 30.488 9.6937 30.6344C12.4927 31.8207 15.7419 32.2936 18.7574 32.6656C26.1259 33.575 33.4962 33.0952 40.8592 32.4149C53.8508 31.215 66.8179 29.7689 79.7778 28.3035C83.055 27.9326 86.3317 27.56 89.6071 27.1777C90.13 27.1167 90.1361 26.343 89.6071 26.4051C80.9935 27.4101 72.3738 28.3736 63.7511 29.3069C57.0088 30.0362 50.2641 30.7472 43.512 31.3933C36.2891 32.0845 29.0607 32.759 21.7967 32.1978C18.8234 31.9682 15.8507 31.5597 12.9661 30.839C12.2279 30.6544 11.4947 30.4498 10.7761 30.2077C10.6006 30.1484 10.4135 30.0527 10.2319 30.0145C10.0674 29.9803 10.241 30.0219 10.1126 29.9672C10.0796 30.2025 10.0466 30.4378 10.0135 30.6737C18.6553 28.1275 27.7605 26.8239 36.6878 25.4883C47.0676 23.9352 57.4864 22.6264 67.8881 21.2128C72.4068 20.5986 76.9286 19.981 81.4191 19.2039C81.2442 19.0797 81.0694 18.9555 80.8944 18.8313C80.9446 20.1064 81.4136 21.4533 82.1548 22.5187C83.7999 24.8827 86.6931 25.4143 89.5264 25.0149C89.3515 24.8907 89.1766 24.7665 89.0017 24.6422C89.0659 25.3584 89.1301 26.0752 89.1937 26.7914C89.2347 27.2831 90.0645 27.2871 90.0205 26.7908Z" fill="#8380FF"/>
<path d="M0.410156 45.5518C0.410156 45.5518 5.65414 115.772 13.2079 117.91C20.7617 120.048 121.159 115.953 127.47 110.781C130.326 108.441 120.359 38.9448 120.359 38.9448C106.894 45.1216 6.01434 51.1878 0.410156 45.5518Z" fill="#8380FF"/>
<path d="M0.473328 53.6314C15.6268 54.5367 30.8267 54.735 46.0009 54.216C61.1042 53.6992 76.1781 52.4742 91.1505 50.5535C99.5788 49.4727 107.972 48.1668 116.322 46.6455C116.147 46.5213 115.972 46.3971 115.796 46.2729C116.086 48.7696 116.372 51.2675 116.657 53.7647C117.317 59.5512 117.969 65.3388 118.609 71.127C119.33 77.6468 120.04 84.1671 120.71 90.6915C121.191 95.3732 121.696 100.059 122.013 104.754C122.054 105.349 122.092 105.944 122.107 106.539C122.111 106.722 122.114 106.905 122.108 107.087C122.103 107.277 122.075 107.318 122.125 107.207C122.121 107.214 122.195 107.2 122.114 107.211C122.226 107.196 122.11 107.22 122.039 107.246C121.862 107.313 121.897 107.317 121.665 107.388C121.169 107.542 120.659 107.654 120.149 107.758C115.85 108.63 111.418 109.04 107.051 109.493C100.01 110.222 92.9515 110.802 85.8894 111.312C77.4776 111.92 69.0567 112.419 60.6296 112.803C52.2374 113.185 43.8366 113.459 35.4346 113.53C28.4239 113.59 21.393 113.545 14.3969 113.068C13.0583 112.977 11.7214 112.867 10.3877 112.729C9.85807 112.675 9.86235 113.448 10.3877 113.502C16.8847 114.171 23.449 114.292 29.9797 114.317C38.2453 114.348 46.5115 114.141 54.7692 113.821C63.3748 113.489 71.975 113.026 80.5659 112.453C88.1124 111.951 95.6539 111.369 103.18 110.649C108.293 110.16 113.427 109.662 118.493 108.838C119.68 108.645 120.932 108.475 122.064 108.073C122.837 107.797 122.948 107.432 122.939 106.698C122.891 102.916 122.379 99.1097 122.008 95.3481C121.383 89.0101 120.703 82.6772 120.011 76.3455C119.326 70.0758 118.625 63.8079 117.915 57.5411C117.508 53.955 117.098 50.3695 116.684 46.7846C116.664 46.6137 116.644 46.4433 116.624 46.2724C116.594 46.0108 116.385 45.8479 116.1 45.8997C101.234 48.609 86.2251 50.6253 71.142 51.9278C56.1305 53.224 41.0486 53.8217 25.9728 53.7134C17.4657 53.6525 8.96094 53.3647 0.470883 52.8577C-0.0593247 52.8269 -0.0574914 53.5995 0.473328 53.6314Z" fill="#421B36"/>
<path d="M3.15183 46.5729C3.34019 47.0355 3.68572 47.3119 4.22143 47.3888C5.03111 47.505 5.88788 47.4965 6.70674 47.5666C8.57745 47.7261 10.4451 47.9107 12.3176 48.0566C16.182 48.3568 20.0647 48.5055 23.9406 48.5995C31.7256 48.7881 39.5166 48.6502 47.293 48.2691C62.5486 47.5204 77.732 45.8373 92.8487 43.8232C101.536 42.6661 110.206 41.3966 118.875 40.1244C119.401 40.0474 119.177 39.3022 118.654 39.3791C103.759 41.5653 88.8572 43.744 73.8762 45.3559C58.9955 46.9569 44.0249 48.0007 29.0385 47.9044C24.8176 47.8771 20.5973 47.7597 16.3832 47.5386C14.3296 47.431 12.2803 47.2902 10.2329 47.109C9.16453 47.0145 8.09677 46.9147 7.02779 46.8219C6.49392 46.7757 5.96005 46.7307 5.42617 46.6891C5.0568 46.6606 4.10645 46.7461 3.95295 46.3678C3.76399 45.9068 2.96226 46.1063 3.15183 46.5729Z" fill="#421B36"/>
<path d="M112.423 37.7979C114.319 37.4025 117.055 37.174 118.813 38.1267C119.3 38.391 119.845 38.8098 120.01 39.3323C120.169 39.8314 120.161 40.4707 120.234 40.9823C120.4 42.156 120.563 43.3303 120.726 44.5046C121.373 49.1709 122.003 53.8395 122.616 58.5098C123.85 67.916 125.029 77.3296 126.034 86.7597C126.524 91.3605 126.973 95.9653 127.301 100.579C127.46 102.821 127.531 105.055 127.572 107.301C127.585 108.012 127.66 108.727 127.576 109.437C127.527 109.854 127.326 110.404 127.1 110.567C126.563 110.951 125.922 111.126 125.283 111.317C124.221 111.635 123.13 111.87 122.039 112.084C114.519 113.556 106.775 114.174 99.1341 114.818C88.5892 115.707 78.0193 116.349 67.4464 116.872C57.1651 117.38 46.8747 117.774 36.5812 117.981C29.7808 118.119 22.9089 118.329 16.1159 117.884C14.7607 117.795 13.3034 117.853 12.4595 116.906C10.9226 115.181 10.2805 112.591 9.6647 110.479C7.26439 102.247 6.09756 93.6641 4.95398 85.2185C3.7315 76.1912 2.7561 67.1349 1.90483 58.0711C1.61924 55.0303 1.34894 51.9884 1.09759 48.9453C1.00647 47.8439 0.763689 46.6503 0.826066 45.5438C0.837686 45.3427 1.06518 44.9917 1.34098 44.7621C2.47601 43.8186 4.28251 43.5776 5.72147 43.4021C6.24311 43.3383 6.24984 42.5651 5.72147 42.6295C4.0385 42.8346 0.5154 43.2488 0.032892 45.2669C-0.0356009 45.5546 0.0206604 45.8549 0.0426759 46.1443C0.204123 48.2251 0.379025 50.3053 0.560653 52.3843C1.3049 60.9233 2.16534 69.455 3.19701 77.9683C4.32348 87.2685 5.55024 96.6086 7.61664 105.774C8.31625 108.876 9.06905 112.041 10.3851 114.975C11.0144 116.379 11.8228 118.068 13.5835 118.389C15.5734 118.753 17.6704 118.755 19.6891 118.808C23.2728 118.9 26.8601 118.887 30.4449 118.85C40.4969 118.744 50.5464 118.403 60.5873 117.964C71.6391 117.48 82.6866 116.864 93.7146 116.025C102.313 115.371 110.96 114.684 119.468 113.321C121.772 112.952 124.176 112.589 126.359 111.779C127.36 111.408 128.121 110.998 128.34 109.91C128.472 109.253 128.451 108.576 128.426 107.912C128.386 106.868 128.399 105.823 128.365 104.779C128.284 102.375 128.097 99.9747 127.903 97.5772C127.126 88.0195 125.974 78.4862 124.787 68.9667C123.594 59.4021 122.326 49.8444 120.969 40.2986C120.841 39.4018 120.861 38.746 120.123 38.0976C119.445 37.5011 118.672 37.1433 117.762 36.9626C115.946 36.602 114.009 36.6755 112.204 37.0521C111.681 37.1615 111.902 37.9062 112.423 37.7979Z" fill="#421B36"/>
<path d="M129.254 86.1053C130.657 83.3602 127.159 57.8258 126.461 55.6425C125.763 53.4592 122.463 53.2085 122.463 53.2085L122.684 57.2339C122.684 57.2339 85.1402 60.8894 82.6157 62.2181C79.5745 63.818 84.0522 86.0609 85.1573 91.2184C85.1591 91.2263 85.1604 91.2337 85.1622 91.2417C85.309 91.9266 85.9835 92.3995 86.7308 92.3402C93.8614 91.7756 127.803 88.9462 129.254 86.1053Z" fill="#8380FF"/>
<path d="M129.613 86.3008C129.887 85.7379 129.924 85.0855 129.962 84.477C130.025 83.4577 130.001 82.4327 129.963 81.4129C129.855 78.4951 129.582 75.5814 129.279 72.6767C128.722 67.3455 128.117 61.9783 127.119 56.7C126.948 55.7993 126.77 54.9617 126.057 54.2672C125.153 53.3863 123.748 52.9277 122.463 52.8228C122.247 52.8052 122.038 53.0143 122.049 53.2091C122.123 54.5509 122.196 55.8927 122.27 57.2345C122.408 57.1057 122.547 56.977 122.685 56.8482C116.033 57.496 109.385 58.1928 102.745 58.9369C98.19 59.448 93.6346 59.9733 89.0969 60.608C87.521 60.8285 85.9426 61.0542 84.3819 61.3556C83.656 61.4957 82.6335 61.592 82.0899 62.1213C81.2098 62.9782 81.2166 64.6089 81.175 65.7023C81.0961 67.7893 81.2783 69.8872 81.4979 71.9628C82.0177 76.8764 82.8659 81.7627 83.804 86.6205C84.1055 88.1827 84.3226 89.8089 84.7623 91.3444C85.3164 93.2787 87.8145 92.6411 89.3978 92.5095C93.9226 92.1329 98.4444 91.7175 102.959 91.2526C108.25 90.7074 113.542 90.112 118.795 89.3069C120.889 88.9861 122.983 88.6368 125.046 88.1691C126.306 87.883 127.682 87.5913 128.815 86.9771C129.121 86.8108 129.447 86.6028 129.613 86.3008C129.855 85.8587 129.14 85.4673 128.897 85.9105C128.593 86.4655 127.229 86.7948 126.532 86.9937C124.843 87.4745 123.102 87.8016 121.369 88.1053C116.504 88.957 111.585 89.5428 106.671 90.0846C101.849 90.6162 97.0195 91.0788 92.1858 91.4993C90.5976 91.6378 89.0095 91.7711 87.4201 91.8987C87.1002 91.9244 86.7211 92.0001 86.4043 91.942C85.6863 91.8098 85.575 91.2071 85.4588 90.6567C85.3084 89.9433 85.1616 89.2294 85.0173 88.5149C84.1055 83.9859 83.283 79.4352 82.6751 74.8617C82.3754 72.6066 82.1192 70.3413 82.022 68.0696C81.9565 66.5449 81.8526 64.867 82.3167 63.3828C82.5785 62.5458 82.9521 62.4615 83.7802 62.2717C85.0687 61.9766 86.3866 61.7829 87.6953 61.5869C91.9027 60.9584 96.1339 60.4645 100.363 59.979C107.658 59.1426 114.965 58.3786 122.276 57.6601C122.411 57.647 122.548 57.6333 122.683 57.6202C122.898 57.5991 123.111 57.4601 123.098 57.2339C123.024 55.8921 122.951 54.5503 122.877 53.2086C122.739 53.3373 122.6 53.4661 122.462 53.5949C123.548 53.6837 124.798 54.1014 125.531 54.8723C126.07 55.4392 126.175 56.1542 126.311 56.8681C126.704 58.9358 126.995 61.0217 127.283 63.1036C128.075 68.8291 128.786 74.59 129.086 80.3582C129.147 81.5479 129.193 82.7415 129.156 83.9329C129.137 84.5425 129.139 85.412 128.896 85.91C128.677 86.3601 129.392 86.7532 129.613 86.3008Z" fill="#421B36"/>
<path d="M101.205 78.2607C100.39 81.3402 97.0507 83.2216 93.7453 82.4627C90.4399 81.7037 88.4206 78.5923 89.2352 75.5127C90.0498 72.4332 93.3894 70.5518 96.6948 71.3107C100 72.0691 102.019 75.1811 101.205 78.2607Z" fill="#421B36"/>
<path d="M6.07251 47.2333C5.34538 40.4714 4.82557 31.8896 6.48102 29.4038C8.27957 26.7025 38.4831 21.128 44.5196 20.0375C61.7645 16.9237 83.1661 13.7473 89.4277 14.1353C90.6355 14.21 91.2293 14.4042 91.4128 14.7848C92.8523 17.7704 93.2981 24.5614 93.3825 26.114L110.305 25.4337L113.113 40.0486L112.46 40.1574L109.754 26.0752L92.7496 26.7595L92.7355 26.4496C92.7325 26.3681 92.3521 18.241 90.8079 15.039C90.7835 15.0053 90.4667 14.6755 87.7031 14.7267C71 15.0145 9.18771 26.5122 7.04547 29.7297C5.84807 31.5278 5.73433 37.8852 6.73359 47.1718L6.07251 47.2333Z" fill="#421B36"/>
<path d="M9.60866 30.5734C10.4037 31.3118 11.5234 31.697 12.5832 31.9739C14.2056 32.3978 15.9008 32.5858 17.5758 32.7169C22.4761 33.1003 27.4315 32.9294 32.3348 32.6872C45.59 32.0332 58.7963 30.5484 71.9726 29.1C79.0023 28.3274 86.0295 27.5275 93.0678 26.8221C93.5931 26.7697 93.5986 25.996 93.0678 26.0495C80.2156 27.3383 67.3964 28.9012 54.5412 30.1649C48.1652 30.7916 41.7801 31.3608 35.3815 31.7471C30.1693 32.0616 24.9217 32.2987 19.6991 32.0713C17.681 31.9836 15.644 31.8377 13.6675 31.4286C12.4744 31.1819 11.0898 30.8577 10.1951 30.0264C9.81658 29.6755 9.23011 30.2219 9.60866 30.5734Z" fill="#421B36"/>
<path d="M89.2657 20.3432C89.2657 21.5198 88.242 22.8365 86.9786 22.8365C85.7157 22.8365 84.3184 21.5494 84.3184 20.3728C84.3184 19.1963 85.7157 18.2129 86.9786 18.2129C88.242 18.2129 89.2657 19.1667 89.2657 20.3432Z" fill="#8380FF"/>
<path d="M106.468 34.2341C106.468 35.7964 105.109 37.5439 103.432 37.5439C101.755 37.5439 99.9004 35.8352 99.9004 34.2729C99.9004 32.7106 101.755 31.4053 103.432 31.4053C105.109 31.4053 106.468 32.6724 106.468 34.2341Z" fill="#8380FF"/>
<g opacity="0.2">
<path d="M99.5594 77.3869C99.1986 78.3077 100.466 79.0951 101.2 78.2296C101.284 77.1887 100.503 76.8445 99.5594 77.3869Z" fill="#421B36"/>
<path d="M97.9191 82.7824C97.6952 83.6239 98.3496 84.5856 99.3018 83.8752C99.3635 83.5567 99.3379 83.1555 99.3177 82.8319C98.8676 82.4678 98.4389 82.3254 97.9191 82.7824Z" fill="#421B36"/>
<path d="M97.5416 85.0237C97.5495 85.0066 97.5569 84.9935 97.5654 84.9759C97.3404 84.0716 96.283 84.1064 95.9277 84.814C95.9858 84.8288 96.0409 84.8488 96.0996 84.8625C96.5821 84.9724 97.0646 85.0209 97.5416 85.0237Z" fill="#421B36"/>
<path d="M100.994 82.1685C101.145 81.842 101.276 81.5577 101.416 81.2552C101.263 81.0974 101.125 80.9549 100.971 80.796C99.1253 80.5305 99.3382 82.4352 100.994 82.1685Z" fill="#421B36"/>
<path d="M98.2809 80.087C98.3164 80.2181 98.1482 80.3731 98.3629 80.5007C98.8478 80.4449 99.1891 80.1811 99.4502 79.7327C99.1273 79.0866 99.2288 79.1219 98.4289 78.833C97.6804 79.1321 97.4871 79.727 98.2809 80.087Z" fill="#421B36"/>
<path d="M94.043 82.8069C94.1066 83.1699 93.939 84.0285 94.5493 83.9334C95.1499 83.7231 95.6813 83.5151 95.5088 82.8104C94.9065 82.4343 94.4943 82.0571 94.043 82.8069Z" fill="#421B36"/>
<path d="M99.0177 76.7603C99.7656 76.0578 99.2011 74.8887 98.1676 75.5764C98.0264 75.8322 97.9077 76.0464 97.7891 76.2601C98.1156 76.9028 98.1254 76.9062 99.0177 76.7603Z" fill="#421B36"/>
<path d="M94.4367 78.8667C93.9261 79.6045 93.9444 80.4563 95.1406 80.3931C95.6561 79.6034 95.658 78.71 94.4367 78.8667Z" fill="#421B36"/>
<path d="M99.9542 84.5309C99.9395 84.5497 99.9334 84.5708 99.9199 84.5902C100.121 84.5133 100.316 84.4261 100.506 84.3298C100.302 84.2842 100.113 84.311 99.9542 84.5309Z" fill="#421B36"/>
<path d="M102.636 82.5529C102.451 82.4652 102.247 82.4356 101.995 82.5495C101.874 82.8669 101.754 83.1848 101.604 83.5774C101.614 83.5865 101.626 83.591 101.637 83.5996C102.013 83.2936 102.347 82.9415 102.636 82.5529Z" fill="#421B36"/>
<path d="M101.656 79.2968C101.316 79.7816 101.656 80.2796 102.265 80.3833C102.534 80.2346 102.832 80.1828 102.974 79.9947C102.974 79.6688 102.974 79.4045 102.974 79.1361C102.53 78.7857 102.14 79.1959 101.656 79.2968Z" fill="#421B36"/>
<path d="M92.0498 77.5751C91.8419 78.4469 93.1335 78.8833 93.5976 78.0435C93.5242 77.2851 92.4669 76.7222 92.0498 77.5751Z" fill="#421B36"/>
<path d="M99.5117 74.3839C99.8994 74.6066 100.285 74.8283 100.675 75.0511C100.868 74.9063 100.974 74.732 101.06 74.5554C100.697 74.3229 100.303 74.1252 99.8817 73.9668C99.7612 74.0716 99.6395 74.2061 99.5117 74.3839Z" fill="#421B36"/>
<path d="M94.5018 75.5679C94.4143 75.9815 93.9361 76.243 93.9557 76.7547C94.1789 76.8282 94.3948 76.9 94.5972 76.9672C95.6882 76.4522 95.8203 75.8322 94.5018 75.5679Z" fill="#421B36"/>
<path d="M96.0371 74.0097C95.9558 74.3099 96.1491 74.5515 96.2328 74.8711C96.7172 74.9207 97.1318 74.9771 97.4553 74.564C97.1832 74.3282 97.1367 74.1396 97.229 73.7943C97.067 73.7259 96.9055 73.6587 96.7588 73.5972C96.7288 73.6012 96.6988 73.6023 96.6689 73.6063C96.4389 73.7538 96.2396 73.8809 96.0371 74.0097Z" fill="#421B36"/>
<path d="M97.1512 78.3631C97.1678 78.0019 97.1843 77.6726 97.2002 77.3245C96.4743 76.6123 95.645 77.5302 96.2235 78.2543C96.5501 78.3193 96.8339 78.6144 97.1512 78.3631Z" fill="#421B36"/>
<path d="M95.8066 81.4911C96.1931 81.972 97.0224 82.1782 97.3612 81.5498C97.1796 80.9453 97.1796 80.9453 96.6714 80.6245C96.4903 81.0319 96.0091 81.127 95.8066 81.4911Z" fill="#421B36"/>
<path d="M92.89 80.7241C92.6436 80.9594 92.4112 81.1822 92.1953 81.3896C92.5641 82.1992 93.4074 82.1559 93.734 81.3548C93.4771 81.1133 93.2973 80.8124 92.89 80.7241Z" fill="#421B36"/>
<path d="M101.92 76.3372C101.963 76.8335 102.542 76.6421 102.848 76.3127C102.652 76.0119 102.426 75.7287 102.174 75.4649C101.943 75.4176 101.849 75.6473 101.92 76.3372Z" fill="#421B36"/>
<path d="M91.4183 79.1074C91.4171 79.108 91.4164 79.108 91.4146 79.108C91.4067 79.3439 91.4183 79.5769 91.4409 79.8082C91.5418 79.6538 91.562 79.4208 91.4183 79.1074Z" fill="#421B36"/>
<path d="M116.783 96.9945C117.222 96.9358 117.654 96.8783 118.077 96.8213C118.059 96.8054 118.04 96.7854 118.023 96.7718C117.434 96.6156 116.775 96.5689 116.407 96.0277C116.658 95.2585 116.553 94.6061 115.547 94.8038C113.351 97.076 116.254 96.0915 116.783 96.9945Z" fill="#421B36"/>
<path d="M112.941 96.8163C112.855 97.0716 112.873 97.2944 112.94 97.5058C113.55 97.4254 114.153 97.3451 114.747 97.2665C114.523 96.5998 113.696 96.3491 112.941 96.8163Z" fill="#421B36"/>
<path d="M116.692 88.5273L115.059 88.7382C115.142 88.9062 115.295 89.0971 115.537 89.3113C116.075 89.6401 116.566 89.0948 116.692 88.5273Z" fill="#421B36"/>
<path d="M99.2992 97.2468C99.1531 97.0526 98.9898 96.8378 98.8222 96.6167C98.4791 96.6999 97.9067 96.6651 97.804 97.0155C98.0089 97.4337 97.42 98.0474 98.1306 98.1932C98.4645 98.3545 99.2448 98.2798 99.1341 97.8081C99.0265 97.5785 99.3598 97.4822 99.2992 97.2468Z" fill="#421B36"/>
<path d="M120.604 89.532C120.059 90.618 122.106 91.611 122.274 90.21C122.01 89.5525 121.32 89.2391 120.604 89.532Z" fill="#421B36"/>
<path d="M108.279 91.249C107.815 91.4604 107.287 91.5596 107.186 92.1521C107.331 92.3458 107.46 92.6136 107.652 92.7919C108.263 93.0876 108.672 92.5726 109.01 92.1777C109.144 91.7635 108.536 91.5282 108.279 91.249Z" fill="#421B36"/>
<path d="M97.4641 95.9486C97.2054 95.6307 97.3351 95.1435 96.8574 94.9868C96.3603 95.0501 95.9548 95.2375 95.7188 95.6654C95.8985 96.683 97.5271 96.8534 97.4641 95.9486Z" fill="#421B36"/>
<path d="M112.689 91.5986C111.947 90.9969 110.982 91.3923 111.188 92.3364C111.364 92.3905 111.55 92.4486 111.736 92.5062C111.703 92.6709 111.679 92.7877 111.646 92.9529C112.712 93.0053 112.725 92.2891 112.689 91.5986Z" fill="#421B36"/>
<path d="M118.883 89.0336C119.207 89.1766 119.486 89.2991 119.79 89.433C120.021 89.2177 120.254 89.0006 120.474 88.7954C120.363 88.5505 120.264 88.3345 120.148 88.0815L118.831 88.2513C118.823 88.2616 118.817 88.269 118.809 88.2792C118.927 88.5242 118.936 88.7835 118.883 89.0336Z" fill="#421B36"/>
<path d="M123.367 87.7056C122.539 87.9169 122.566 88.587 122.865 89.228C124.125 89.6832 124.773 88.0206 123.367 87.7056Z" fill="#421B36"/>
<path d="M115.524 91.2383C114.723 91.4366 114.755 92.539 115.48 92.6957C116.947 92.7943 116.797 91.4998 115.524 91.2383Z" fill="#421B36"/>
<path d="M93.7827 99.2788C93.4335 98.9723 93.1467 98.7216 92.836 98.4492C91.9083 98.5996 91.8037 99.534 92.474 100.011C92.6715 99.9933 92.877 99.9739 93.0978 99.9517C93.3699 99.7916 93.5503 99.5187 93.7827 99.2788Z" fill="#421B36"/>
<path d="M90.2935 97.9901C90.8451 98.2681 91.5404 98.3627 91.722 97.634C91.867 96.2819 89.7834 96.4984 90.2935 97.9901Z" fill="#421B36"/>
<path d="M125.486 89.5225C124.475 89.6626 124.288 90.3378 124.767 90.919C125.019 91.2243 125.398 91.0306 125.712 90.9332C126.579 90.6312 125.799 89.9521 125.486 89.5225Z" fill="#421B36"/>
<path d="M119.911 96.1968C119.907 96.1968 119.906 96.1991 119.903 96.1991C119.902 96.1939 119.9 96.1922 119.898 96.1877C119.797 96.2463 119.585 96.1928 119.646 96.088C119.77 96.0623 119.862 96.0634 119.898 96.1877C119.907 96.1825 119.92 96.182 119.927 96.1746C119.922 96.1837 119.916 96.1877 119.911 96.1968C120.203 96.1939 120.232 95.8828 120.35 95.6999C120.201 95.4441 120.067 95.2134 119.912 94.9467C117.899 94.5074 119.068 97.542 119.911 96.1968Z" fill="#421B36"/>
<path d="M88.5508 95.0851C88.5814 95.476 88.6217 95.8811 88.6731 96.285C88.7624 96.3352 88.8706 96.3705 89.0039 96.387C90.5414 95.9209 89.5164 94.2424 88.5508 95.0851Z" fill="#421B36"/>
<path d="M102.91 98.1955C103.008 97.9562 103.092 97.7534 103.188 97.5204C102.37 95.2242 100.298 98.097 102.91 98.1955Z" fill="#421B36"/>
<path d="M113.377 89.6965C112.872 90.1204 112.927 90.9972 113.702 91.0497C115.222 91.0548 114.497 89.0589 113.377 89.6965Z" fill="#421B36"/>
<path d="M93.834 93.9969C94.1966 94.4014 94.5214 94.8236 95.2601 94.5444C96.1377 93.2226 94.4822 92.5947 93.834 93.9969Z" fill="#421B36"/>
<path d="M102.348 91.1216C102.903 91.1882 103.215 90.6857 103.188 90.2681L101.65 90.4663C101.694 90.7769 101.929 91.0777 102.348 91.1216Z" fill="#421B36"/>
<path d="M93.7235 95.469C93.2747 95.2525 92.9291 94.6845 92.2454 95.1779C91.4572 96.3772 93.3156 96.9965 93.7235 95.469Z" fill="#421B36"/>
<path d="M116.965 90.2239C116.963 91.5423 118.831 91.1309 118.57 90.1549C118.008 89.543 117.386 89.4262 116.965 90.2239Z" fill="#421B36"/>
<path d="M112.879 95.8653C112.691 95.5696 112.517 95.2967 112.315 94.9804C111.815 94.8944 111.392 94.9343 111.057 95.287C111.031 96.3313 112.209 96.5359 112.879 95.8653Z" fill="#421B36"/>
<path d="M107.357 95.3315C107.419 95.993 107.522 96.205 107.97 96.5582C108.207 96.4466 108.459 96.3275 108.699 96.2141C108.743 95.9173 108.782 95.6563 108.819 95.4079C108.609 95.1372 108.324 95.025 107.993 94.9355C107.781 95.0689 107.565 95.2022 107.357 95.3315Z" fill="#421B36"/>
<path d="M102.057 93.2662C101.31 93.6394 101.598 94.4627 102.414 94.6251C103.643 94.4359 103.187 92.6264 102.057 93.2662Z" fill="#421B36"/>
<path d="M112.462 89.0745L112.463 89.0723L111.848 89.1514C112.027 89.1589 112.231 89.1389 112.462 89.0745Z" fill="#421B36"/>
<path d="M89.1582 98.5879C89.3007 99.0078 89.4713 99.3668 89.6756 99.634C89.7746 99.5798 89.8706 99.5194 89.9581 99.4465C89.8774 98.9411 89.5294 98.6568 89.1582 98.5879Z" fill="#421B36"/>
<path d="M98.7329 91.0506C98.9292 91.0893 99.0356 90.9628 99.1157 90.7925L98.3066 90.8968C98.4283 90.9663 98.5659 91.0238 98.7329 91.0506Z" fill="#421B36"/>
<path d="M105.463 97.5654C105.653 97.8491 105.952 98.4268 106.375 98.0998C106.954 97.6884 107.294 96.8987 106.41 96.603C105.942 96.8161 105.152 96.9711 105.463 97.5654Z" fill="#421B36"/>
<path d="M127.044 92.8142L126.906 91.4023C126.73 91.4365 126.551 91.5174 126.387 91.6804C126.492 92.2855 126.626 92.7658 127.044 92.8142Z" fill="#421B36"/>
<path d="M110.096 89.6494C108.699 89.8807 109.277 91.4419 110.515 90.9884C110.654 90.7918 110.809 90.5707 110.956 90.361C110.795 89.973 110.406 89.8864 110.096 89.6494Z" fill="#421B36"/>
<path d="M103.836 91.4292C103.653 91.689 103.497 91.9118 103.346 92.1283C103.892 92.6838 103.892 92.6838 104.617 92.8445C104.971 92.563 104.903 92.1921 105.007 91.8753C104.727 91.4269 104.24 91.5443 103.836 91.4292Z" fill="#421B36"/>
<path d="M125.505 87.3916L125.352 87.4115C125.402 87.4098 125.452 87.4047 125.505 87.3916Z" fill="#421B36"/>
<path d="M97.0476 92.7637C97.5149 91.8389 97.4195 91.4646 96.2551 91.4321C95.6778 91.7341 95.8117 92.1882 96.186 92.5329C96.334 92.9107 96.452 92.9124 97.0476 92.7637Z" fill="#421B36"/>
<path d="M96.7032 98.4351C96.0776 98.6305 95.9125 99.1712 96.1461 99.623C96.5258 99.5797 96.9191 99.5341 97.3251 99.4863C97.4872 99.0886 97.3178 98.6732 96.7032 98.4351Z" fill="#421B36"/>
<path d="M113.149 93.4558C112.89 95.4158 115.471 94.5543 114.267 93.123C113.887 93.3863 113.469 93.2017 113.149 93.4558Z" fill="#421B36"/>
<path d="M124.897 93.2241C123.921 94.9061 126.375 95.0975 126.005 93.3751C125.407 93.174 125.407 93.174 124.897 93.2241Z" fill="#421B36"/>
<path d="M104.004 98.6651C104.148 98.6469 104.293 98.6286 104.437 98.6098C104.322 98.5905 104.176 98.6099 104.004 98.6651Z" fill="#421B36"/>
<path d="M109.205 97.5268C109.378 97.6584 109.594 97.7615 109.743 97.9256C110.039 97.8869 110.334 97.8481 110.629 97.8094C111.118 96.9821 109.856 96.0237 109.205 97.5268Z" fill="#421B36"/>
<path d="M127.254 94.9516C127.111 94.9374 126.959 94.9528 126.794 95.0206C126.579 95.2986 126.581 95.4872 126.663 95.6576C127.083 95.6 127.314 95.5681 127.314 95.5681L127.254 94.9516Z" fill="#421B36"/>
<path d="M93.7501 92.142C93.6382 91.8332 93.3483 91.7233 93.1184 91.5654L92.3901 91.6594C92.332 91.7455 92.2726 91.8623 92.1797 92.0474C92.5142 93.4046 93.0897 92.7955 93.7501 92.142Z" fill="#421B36"/>
<path d="M100.875 98.5591C100.676 98.505 100.479 98.4509 100.286 98.3984C99.9993 98.7164 99.8727 98.9745 99.8379 99.1841C100.265 99.1323 100.701 99.0782 101.143 99.0235C101.096 98.885 101.018 98.7329 100.875 98.5591Z" fill="#421B36"/>
<path d="M103.67 95.3461C103.896 95.6327 103.786 95.9278 103.958 96.1671C104.683 96.5477 105.413 95.8372 105.046 95.1763C104.289 94.8316 104.198 94.8424 103.67 95.3461Z" fill="#421B36"/>
<path d="M106.974 94.099C106.901 93.2449 106.075 92.98 105.553 93.7081C105.058 94.5269 106.585 95.0214 106.974 94.099Z" fill="#421B36"/>
<path d="M88.4521 92.2012C88.4521 92.2012 88.4503 92.3078 88.4503 92.4895C88.5445 92.5904 88.6643 92.6764 88.8337 92.7191C89.2765 92.579 89.6379 92.2833 89.7247 92.0029L88.2754 92.1898C88.2778 92.1984 88.284 92.2063 88.2864 92.2149L88.4521 92.2012Z" fill="#421B36"/>
<path d="M120.615 94.0095C120.866 94.3816 121.195 94.5503 121.747 94.5805C123.367 93.0598 120.827 93.0182 120.615 94.0095Z" fill="#421B36"/>
<path d="M94.1364 97.8021C94.378 97.9229 94.6269 98.0471 94.9608 98.214C95.3173 97.8072 95.7454 97.3599 95.266 96.9121C94.3389 96.7999 93.9939 96.817 94.1364 97.8021Z" fill="#421B36"/>
<path d="M123.571 92.8583C124.687 91.855 123.311 90.6454 122.574 91.8749C123.013 92.1228 122.911 92.7768 123.571 92.8583Z" fill="#421B36"/>
<path d="M120.352 92.1271C120.038 91.5596 120.038 91.5596 119.355 91.3955C119.22 91.5305 119.064 91.6866 118.922 91.8291C118.934 92.7646 120.058 93.0848 120.352 92.1271Z" fill="#421B36"/>
<path d="M98.751 93.1694C98.4049 93.3626 98.0949 93.5347 97.7793 93.7107C97.7793 93.8435 97.7793 93.962 97.7793 94.0708C98.4245 94.599 99.4091 94.6953 99.3112 93.6475C99.1314 93.4936 98.9443 93.3341 98.751 93.1694Z" fill="#421B36"/>
<path d="M117.174 94.5784C119.32 94.1813 117.615 92.0008 116.871 94.0605C116.974 94.2383 117.072 94.4047 117.174 94.5784Z" fill="#421B36"/>
<path d="M101.263 95.4433C100.724 95.0097 99.7552 95.2507 99.8347 95.9281C100.246 96.899 101.11 96.2489 101.263 95.4433Z" fill="#421B36"/>
<path d="M106.253 91.0687C106.423 90.9769 106.596 90.8823 106.84 90.749C106.525 90.4157 106.841 90.063 106.397 89.8545L105.829 89.9274C105.676 89.9964 105.527 90.079 105.395 90.1986C105.477 90.6425 105.697 90.9382 106.253 91.0687Z" fill="#421B36"/>
<path d="M90.3492 93.3826C90.3413 93.7569 90.2667 94.1347 90.5816 94.4885C92.2108 94.1905 91.8328 93.1211 90.3492 93.3826Z" fill="#421B36"/>
<path d="M101.236 92.0538C100.833 91.6783 100.402 91.6008 99.8565 91.753C99.4468 92.8384 101.088 93.1312 101.236 92.0538Z" fill="#421B36"/>
<path d="M124.103 95.3209C123.708 95.264 123.408 95.0047 122.953 95.1626C122.916 95.4155 122.886 95.6263 122.857 95.8218C122.996 95.9511 123.117 96.0463 123.23 96.1255C123.504 96.0884 123.768 96.0519 124.019 96.0178C124.075 95.8514 124.103 95.6223 124.103 95.3209Z" fill="#421B36"/>
<path d="M109.338 93.6279C109.537 93.9122 109.644 94.1264 109.714 94.4381C110.437 94.4951 110.508 94.4569 110.775 93.878C110.217 93.2439 110.069 93.2108 109.338 93.6279Z" fill="#421B36"/>
<path d="M126.592 88.1934C126.559 88.3369 126.571 88.4685 126.63 88.5808L126.592 88.1934Z" fill="#421B36"/>
</g>
</svg>
