<svg width="24" height="25" viewBox="0 0 24 25" fill="none" xmlns="http://www.w3.org/2000/svg">
<path d="M5.06095 20.5451L5.50179 19.9383L5.06095 20.5451ZM3.95479 19.4389L4.56156 18.9981L3.95479 19.4389ZM20.045 19.4389L19.4382 18.9981L20.045 19.4389ZM18.9388 20.5451L18.498 19.9383L18.9388 20.5451ZM18.9388 4.45491L18.498 5.06168L18.9388 4.45491ZM20.045 5.56107L19.4382 6.00191L20.045 5.56107ZM5.06095 4.45491L5.50179 5.06168L5.06095 4.45491ZM3.95479 5.56107L4.56156 6.00191L3.95479 5.56107ZM8.99988 11.75C8.58566 11.75 8.24988 12.0858 8.24988 12.5C8.24988 12.9142 8.58566 13.25 8.99988 13.25V11.75ZM14.9999 13.25C15.4141 13.25 15.7499 12.9142 15.7499 12.5C15.7499 12.0858 15.4141 11.75 14.9999 11.75V13.25ZM11.2499 15.5C11.2499 15.9142 11.5857 16.25 11.9999 16.25C12.4141 16.25 12.7499 15.9142 12.7499 15.5H11.2499ZM12.7499 9.5C12.7499 9.08579 12.4141 8.75 11.9999 8.75C11.5857 8.75 11.2499 9.08579 11.2499 9.5H12.7499ZM11.9999 21.5V20.75C10.1083 20.75 8.74987 20.749 7.69792 20.635C6.66001 20.5225 6.00979 20.3074 5.50179 19.9383L5.06095 20.5451L4.62011 21.1518C5.42644 21.7377 6.37082 22 7.53635 22.1263C8.68785 22.251 10.1417 22.25 11.9999 22.25V21.5ZM2.99988 12.5H2.24988C2.24988 14.3582 2.24885 15.812 2.37361 16.9635C2.49988 18.1291 2.7622 19.0734 3.34803 19.8798L3.95479 19.4389L4.56156 18.9981C4.19247 18.4901 3.97733 17.8399 3.86488 16.802C3.75091 15.75 3.74988 14.3916 3.74988 12.5H2.99988ZM5.06095 20.5451L5.50179 19.9383C5.14099 19.6762 4.82369 19.3589 4.56156 18.9981L3.95479 19.4389L3.34803 19.8798C3.70269 20.3679 4.13197 20.7972 4.62011 21.1518L5.06095 20.5451ZM20.9999 12.5H20.2499C20.2499 14.3916 20.2488 15.75 20.1349 16.802C20.0224 17.8399 19.8073 18.4901 19.4382 18.9981L20.045 19.4389L20.6517 19.8798C21.2376 19.0734 21.4999 18.1291 21.6262 16.9635C21.7509 15.812 21.7499 14.3582 21.7499 12.5H20.9999ZM11.9999 21.5V22.25C13.858 22.25 15.3119 22.251 16.4634 22.1263C17.6289 22 18.5733 21.7377 19.3796 21.1518L18.9388 20.5451L18.498 19.9383C17.99 20.3074 17.3397 20.5225 16.3018 20.635C15.2499 20.749 13.8914 20.75 11.9999 20.75V21.5ZM20.045 19.4389L19.4382 18.9981C19.1761 19.3589 18.8588 19.6762 18.498 19.9383L18.9388 20.5451L19.3796 21.1518C19.8678 20.7972 20.2971 20.3679 20.6517 19.8798L20.045 19.4389ZM11.9999 3.5V4.25C13.8914 4.25 15.2499 4.25103 16.3018 4.365C17.3397 4.47745 17.99 4.69259 18.498 5.06168L18.9388 4.45491L19.3796 3.84815C18.5733 3.26232 17.6289 3.00001 16.4634 2.87373C15.3119 2.74897 13.858 2.75 11.9999 2.75V3.5ZM20.9999 12.5H21.7499C21.7499 10.6418 21.7509 9.18798 21.6262 8.03648C21.4999 6.87094 21.2376 5.92656 20.6517 5.12023L20.045 5.56107L19.4382 6.00191C19.8073 6.50992 20.0224 7.16013 20.1349 8.19804C20.2488 9.24999 20.2499 10.6084 20.2499 12.5H20.9999ZM18.9388 4.45491L18.498 5.06168C18.8588 5.32382 19.1761 5.64111 19.4382 6.00191L20.045 5.56107L20.6517 5.12023C20.2971 4.63209 19.8678 4.20281 19.3796 3.84815L18.9388 4.45491ZM11.9999 3.5V2.75C10.1417 2.75 8.68785 2.74897 7.53635 2.87373C6.37082 3.00001 5.42644 3.26232 4.62011 3.84815L5.06095 4.45491L5.50179 5.06168C6.00979 4.69259 6.66001 4.47745 7.69792 4.365C8.74987 4.25103 10.1083 4.25 11.9999 4.25V3.5ZM2.99988 12.5H3.74988C3.74988 10.6084 3.75091 9.24999 3.86488 8.19804C3.97733 7.16013 4.19247 6.50992 4.56156 6.00191L3.95479 5.56107L3.34803 5.12023C2.7622 5.92656 2.49988 6.87094 2.37361 8.03648C2.24885 9.18798 2.24988 10.6418 2.24988 12.5H2.99988ZM5.06095 4.45491L4.62011 3.84815C4.13197 4.20281 3.70269 4.63209 3.34803 5.12023L3.95479 5.56107L4.56156 6.00191C4.82369 5.64111 5.14099 5.32382 5.50179 5.06168L5.06095 4.45491ZM8.99988 12.5V13.25H14.9999V12.5V11.75H8.99988V12.5ZM11.9999 15.5H12.7499V9.5H11.9999H11.2499V15.5H11.9999Z" fill="#0F3446"/>
</svg>
