<svg width="20" height="20" viewBox="0 0 20 20" fill="none" xmlns="http://www.w3.org/2000/svg">
<path d="M1 9C1 5.22876 1 3.34315 2.17157 2.17157C3.34315 1 5.22876 1 9 1H11C14.7712 1 16.6569 1 17.8284 2.17157C19 3.34315 19 5.22876 19 9V11C19 14.7712 19 16.6569 17.8284 17.8284C16.6569 19 14.7712 19 11 19H9C5.22876 19 3.34315 19 2.17157 17.8284C1 16.6569 1 14.7712 1 11V9Z" stroke="#0F3446"/>
<circle cx="14.5" cy="4.5" r="1.5" fill="#0F3446"/>
<circle cx="10" cy="10" r="3.5" stroke="#0F3446"/>
</svg>
