<svg width="119" height="118" viewBox="0 0 119 118" fill="none" xmlns="http://www.w3.org/2000/svg">
<path d="M10.5 59C10.5 37.3908 10.5 26.5862 16.5269 19.3545C17.5332 18.147 18.647 17.0332 19.8545 16.0269C27.0862 10 37.8908 10 59.5 10V10C81.1092 10 91.9138 10 99.1455 16.0269C100.353 17.0332 101.467 18.147 102.473 19.3545C108.5 26.5862 108.5 37.3908 108.5 59V59C108.5 80.6092 108.5 91.4138 102.473 98.6455C101.467 99.853 100.353 100.967 99.1455 101.973C91.9138 108 81.1092 108 59.5 108V108C37.8908 108 27.0862 108 19.8545 101.973C18.647 100.967 17.5332 99.853 16.5269 98.6455C10.5 91.4138 10.5 80.6092 10.5 59V59Z" stroke="#242424" stroke-width="5"/>
<ellipse cx="83.9997" cy="29.0553" rx="8.16666" ry="8.16667" fill="#242424"/>
<circle cx="59.5004" cy="58.9999" r="19.7778" stroke="#242424" stroke-width="4"/>
</svg>
