<svg width="173" height="154" viewBox="0 0 173 154" fill="none" xmlns="http://www.w3.org/2000/svg">
<path d="M45.5471 53.4217L48.729 50.2397L45.5471 53.4217ZM34.3753 42.25L31.1933 45.432L34.3753 42.25ZM80.7087 124.625C78.2234 124.625 76.2087 126.64 76.2087 129.125C76.2087 131.61 78.2234 133.625 80.7087 133.625V124.625ZM138.886 117.188L135.246 114.543V114.543L138.886 117.188ZM132.48 123.594L129.835 119.954L132.48 123.594ZM132.48 30.4055L135.125 26.765V26.765L132.48 30.4055ZM138.886 36.8121L135.246 39.4571V39.4571L138.886 36.8121ZM40.5207 30.4055L37.8757 26.765V26.765L40.5207 30.4055ZM24.0837 77C24.0837 79.4853 26.0984 81.5 28.5837 81.5C31.0689 81.5 33.0837 79.4853 33.0837 77H24.0837ZM34.1142 36.8121L30.4736 34.167H30.4736L34.1142 36.8121ZM22.792 113.042C20.3067 113.042 18.292 115.056 18.292 117.542C18.292 120.027 20.3067 122.042 22.792 122.042V113.042ZM57.542 122.042C60.0273 122.042 62.042 120.027 62.042 117.542C62.042 115.056 60.0273 113.042 57.542 113.042V122.042ZM22.792 95.6667C20.3067 95.6667 18.292 97.6814 18.292 100.167C18.292 102.652 20.3067 104.667 22.792 104.667V95.6667ZM40.167 104.667C42.6523 104.667 44.667 102.652 44.667 100.167C44.667 97.6814 42.6523 95.6667 40.167 95.6667V104.667ZM32.1805 40.0551L28.1265 38.1017L32.1805 40.0551ZM45.5471 53.4217L48.729 50.2397L38.26 39.7707L35.078 42.9527L31.896 46.1346L42.3651 56.6037L45.5471 53.4217ZM137.923 42.9527L134.741 39.7707L124.272 50.2397L127.454 53.4217L130.636 56.6037L141.105 46.1346L137.923 42.9527ZM45.5471 53.4217L42.3651 56.6037C51.9279 66.1665 59.4134 73.6655 66.0356 78.7181C72.7616 83.8499 79.1233 86.8801 86.5003 86.8801V82.3801V77.8801C81.8824 77.8801 77.4203 76.0839 71.4948 71.5629C65.4655 66.9627 58.4718 59.9825 48.729 50.2397L45.5471 53.4217ZM127.454 53.4217L124.272 50.2397C114.529 59.9825 107.535 66.9627 101.506 71.5629C95.5804 76.0839 91.1183 77.8801 86.5003 77.8801V82.3801V86.8801C93.8773 86.8801 100.239 83.8499 106.965 78.7181C113.587 73.6655 121.073 66.1665 130.636 56.6037L127.454 53.4217ZM45.5471 53.4217L48.729 50.2397L37.5573 39.068L34.3753 42.25L31.1933 45.432L42.3651 56.6037L45.5471 53.4217ZM138.625 42.25L135.443 39.068L124.272 50.2397L127.454 53.4217L130.636 56.6037L141.807 45.432L138.625 42.25ZM80.7087 24.875V29.375H92.292V24.875V20.375H80.7087V24.875ZM92.292 129.125V124.625H80.7087V129.125V133.625H92.292V129.125ZM144.417 77H139.917C139.917 87.9588 139.911 95.8165 139.252 101.899C138.602 107.897 137.361 111.632 135.246 114.543L138.886 117.188L142.527 119.833C145.943 115.132 147.467 109.632 148.199 102.868C148.923 96.1886 148.917 87.7584 148.917 77H144.417ZM92.292 129.125V133.625C103.05 133.625 111.481 133.631 118.16 132.908C124.924 132.175 130.424 130.651 135.125 127.235L132.48 123.594L129.835 119.954C126.924 122.069 123.189 123.31 117.191 123.96C111.108 124.619 103.251 124.625 92.292 124.625V129.125ZM138.886 117.188L135.246 114.543C133.737 116.619 131.911 118.445 129.835 119.954L132.48 123.594L135.125 127.235C137.965 125.171 140.463 122.673 142.527 119.833L138.886 117.188ZM92.292 24.875V29.375C103.251 29.375 111.108 29.3812 117.191 30.0401C123.189 30.69 126.924 31.9311 129.835 34.0461L132.48 30.4055L135.125 26.765C130.424 23.3495 124.924 21.8253 118.16 21.0925C111.481 20.3688 103.05 20.375 92.292 20.375V24.875ZM132.48 30.4055L129.835 34.0461C131.911 35.5547 133.737 37.3807 135.246 39.4571L138.886 36.8121L142.527 34.167C140.463 31.3266 137.965 28.8287 135.125 26.765L132.48 30.4055ZM80.7087 24.875V20.375C69.9503 20.375 61.5201 20.3688 54.8406 21.0925C48.0769 21.8253 42.5767 23.3495 37.8757 26.765L40.5207 30.4055L43.1657 34.0461C46.0769 31.9311 49.8121 30.69 55.81 30.0401C61.8922 29.3812 69.7498 29.375 80.7087 29.375V24.875ZM40.5207 30.4055L37.8757 26.765C35.0352 28.8287 32.5373 31.3266 30.4736 34.167L34.1142 36.8121L37.7548 39.4571C39.2634 37.3807 41.0894 35.5547 43.1657 34.0461L40.5207 30.4055ZM22.792 117.542V122.042H57.542V117.542V113.042H22.792V117.542ZM22.792 100.167V104.667H40.167V100.167V95.6667H22.792V100.167ZM28.5837 77H33.0837C33.0837 67.5274 33.0866 60.3531 33.5205 54.6099C33.9536 48.8773 34.7942 44.9973 36.2344 42.0085L32.1805 40.0551L28.1265 38.1017C25.9699 42.5774 25.0122 47.762 24.546 53.9319C24.0807 60.091 24.0837 67.657 24.0837 77H28.5837ZM32.1805 40.0551L36.2344 42.0085C36.6752 41.0937 37.178 40.2509 37.7548 39.4571L34.1142 36.8121L30.4736 34.167C29.5725 35.4073 28.795 36.7144 28.1265 38.1017L32.1805 40.0551ZM34.3753 42.25L37.5573 39.068L35.3624 36.8731L32.1805 40.0551L28.9985 43.2371L31.1933 45.432L34.3753 42.25ZM144.417 77H148.917C148.917 67.657 148.92 60.091 148.455 53.9319C147.988 47.762 147.031 42.5774 144.874 38.1017L140.82 40.0551L136.766 42.0085C138.206 44.9973 139.047 48.8773 139.48 54.6098C139.914 60.3531 139.917 67.5274 139.917 77H144.417ZM140.82 40.0551L144.874 38.1017C144.206 36.7144 143.428 35.4073 142.527 34.167L138.886 36.8121L135.246 39.4571C135.823 40.2509 136.325 41.0937 136.766 42.0085L140.82 40.0551ZM138.625 42.25L141.807 45.432L144.002 43.2371L140.82 40.0551L137.638 36.8731L135.443 39.068L138.625 42.25Z" fill="#242424"/>
</svg>
