<svg width="131" height="131" viewBox="0 0 131 131" fill="none" xmlns="http://www.w3.org/2000/svg">
<path d="M16.4486 8.99124C16.9279 8.51186 17.1676 8.27217 17.3788 8.07814C22.5709 3.30729 30.5516 3.30729 35.7437 8.07814C35.9548 8.27217 36.1945 8.51186 36.6739 8.99124L46.5687 18.8861C52.0112 24.3285 53.5677 32.5476 50.4922 39.6032C47.4167 46.6588 48.9732 54.8779 54.4157 60.3204L70.6796 76.5843C76.1221 82.0268 84.3412 83.5833 91.3968 80.5078C98.4524 77.4323 106.671 78.9888 112.114 84.4313L122.009 94.3261C122.488 94.8055 122.728 95.0452 122.922 95.2563C127.693 100.448 127.693 108.429 122.922 113.621C122.728 113.832 122.488 114.072 122.009 114.551L115.994 120.566C111.096 125.464 104.036 127.52 97.2741 126.017C51.2022 115.779 15.221 79.7978 4.98281 33.7259C3.48021 26.9642 5.53629 19.9035 10.4341 15.0057L16.4486 8.99124Z" stroke="#242424" stroke-width="8"/>
</svg>
